%TF.GenerationSoftware,KiCad,Pcbnew,(6.0.2)*%
%TF.CreationDate,2022-11-18T22:18:21-06:00*%
%TF.ProjectId,REF1395A Optimized,52454631-3339-4354-9120-4f7074696d69,rev?*%
%TF.SameCoordinates,Original*%
%TF.FileFunction,Soldermask,Top*%
%TF.FilePolarity,Negative*%
%FSLAX46Y46*%
G04 Gerber Fmt 4.6, Leading zero omitted, Abs format (unit mm)*
G04 Created by KiCad (PCBNEW (6.0.2)) date 2022-11-18 22:18:21*
%MOMM*%
%LPD*%
G01*
G04 APERTURE LIST*
G04 Aperture macros list*
%AMRoundRect*
0 Rectangle with rounded corners*
0 $1 Rounding radius*
0 $2 $3 $4 $5 $6 $7 $8 $9 X,Y pos of 4 corners*
0 Add a 4 corners polygon primitive as box body*
4,1,4,$2,$3,$4,$5,$6,$7,$8,$9,$2,$3,0*
0 Add four circle primitives for the rounded corners*
1,1,$1+$1,$2,$3*
1,1,$1+$1,$4,$5*
1,1,$1+$1,$6,$7*
1,1,$1+$1,$8,$9*
0 Add four rect primitives between the rounded corners*
20,1,$1+$1,$2,$3,$4,$5,0*
20,1,$1+$1,$4,$5,$6,$7,0*
20,1,$1+$1,$6,$7,$8,$9,0*
20,1,$1+$1,$8,$9,$2,$3,0*%
G04 Aperture macros list end*
%ADD10R,2.250000X0.600000*%
%ADD11R,0.600000X2.250000*%
%ADD12RoundRect,0.150000X0.150000X-0.587500X0.150000X0.587500X-0.150000X0.587500X-0.150000X-0.587500X0*%
%ADD13C,5.240000*%
%ADD14R,0.600000X3.420000*%
%ADD15R,1.670000X1.670000*%
%ADD16R,1.500000X6.250000*%
%ADD17R,1.000000X6.000000*%
%ADD18C,1.830000*%
%ADD19C,2.020000*%
%ADD20R,0.650000X2.300000*%
%ADD21R,2.300000X0.650000*%
%ADD22R,1.700000X1.700000*%
%ADD23O,1.700000X1.700000*%
%ADD24C,2.200000*%
G04 APERTURE END LIST*
D10*
%TO.C,U3*%
X150517000Y-148512000D03*
X150517000Y-149512000D03*
X150517000Y-150512000D03*
X150517000Y-151512000D03*
X150517000Y-152512000D03*
X150517000Y-153512000D03*
X150517000Y-154512000D03*
X150517000Y-155512000D03*
X150517000Y-156512000D03*
X150517000Y-157512000D03*
X150517000Y-158512000D03*
X150517000Y-159512000D03*
X150517000Y-160512000D03*
X150517000Y-161512000D03*
X150517000Y-162512000D03*
X150517000Y-163512000D03*
X150517000Y-164512000D03*
X150517000Y-165512000D03*
X150517000Y-166512000D03*
D11*
X153267000Y-169262000D03*
X154267000Y-169262000D03*
X155267000Y-169262000D03*
X156267000Y-169262000D03*
X157267000Y-169262000D03*
X158267000Y-169262000D03*
X159267000Y-169262000D03*
X160267000Y-169262000D03*
X161267000Y-169262000D03*
X162267000Y-169262000D03*
X163267000Y-169262000D03*
X164267000Y-169262000D03*
X165267000Y-169262000D03*
D10*
X168017000Y-166512000D03*
X168017000Y-165512000D03*
X168017000Y-164512000D03*
X168017000Y-163512000D03*
X168017000Y-162512000D03*
X168017000Y-161512000D03*
X168017000Y-160512000D03*
X168017000Y-159512000D03*
X168017000Y-158512000D03*
X168017000Y-157512000D03*
X168017000Y-156512000D03*
X168017000Y-155512000D03*
X168017000Y-154512000D03*
X168017000Y-153512000D03*
X168017000Y-152512000D03*
X168017000Y-151512000D03*
X168017000Y-150512000D03*
X168017000Y-149512000D03*
X168017000Y-148512000D03*
D11*
X165267000Y-145762000D03*
X164267000Y-145762000D03*
X163267000Y-145762000D03*
X162267000Y-145762000D03*
X161267000Y-145762000D03*
X160267000Y-145762000D03*
X159267000Y-145762000D03*
X158267000Y-145762000D03*
X157267000Y-145762000D03*
X156267000Y-145762000D03*
X155267000Y-145762000D03*
X154267000Y-145762000D03*
X153267000Y-145762000D03*
%TD*%
D12*
%TO.C,Q1*%
X165788000Y-142749500D03*
X167688000Y-142749500D03*
X166738000Y-140874500D03*
%TD*%
D13*
%TO.C,Hole*%
X144577000Y-176279000D03*
%TD*%
D14*
%TO.C,U2*%
X122314500Y-154136000D03*
X123585500Y-154136000D03*
X124855500Y-154136000D03*
X126160500Y-154133000D03*
X127435500Y-154133000D03*
X128700500Y-154133000D03*
X129975500Y-154133000D03*
X131246500Y-154133000D03*
X132551500Y-154133000D03*
X133822500Y-154133000D03*
X135050500Y-154133000D03*
X136357500Y-154133000D03*
X137638500Y-154133000D03*
X138904500Y-154132000D03*
X140169500Y-154132000D03*
X141477500Y-154132000D03*
X141519500Y-142502000D03*
X140213500Y-142500000D03*
X138938500Y-142513000D03*
X137673500Y-142503000D03*
X136398500Y-142507000D03*
X135096500Y-142507000D03*
X133863500Y-142507000D03*
X132587500Y-142507000D03*
X131285500Y-142504000D03*
X130014500Y-142504000D03*
X128741500Y-142506000D03*
X127471500Y-142506000D03*
X126207500Y-142506000D03*
X124896500Y-142506000D03*
X123618500Y-142507000D03*
X122353500Y-142507000D03*
%TD*%
D15*
%TO.C,C1*%
X120412000Y-159466000D03*
X120421000Y-162597000D03*
%TD*%
D16*
%TO.C,J1*%
X120962484Y-188785200D03*
D17*
X122712742Y-188660200D03*
X124213000Y-188660200D03*
X125713258Y-188660200D03*
X127213516Y-188660200D03*
X128713774Y-188660200D03*
X130214032Y-188660200D03*
X131714290Y-188660200D03*
X133214548Y-188660200D03*
X134714806Y-188660200D03*
X136215064Y-188660200D03*
X137715322Y-188660200D03*
X139215580Y-188660200D03*
X140715838Y-188660200D03*
X142216096Y-188660200D03*
X143716354Y-188660200D03*
X145216612Y-188660200D03*
X146716870Y-188660200D03*
X148217128Y-188660200D03*
X149717386Y-188660200D03*
X151217644Y-188660200D03*
X152717902Y-188660200D03*
X154218160Y-188660200D03*
X155718418Y-188660200D03*
X157218676Y-188660200D03*
X158718934Y-188660200D03*
X160219192Y-188660200D03*
X161719450Y-188660200D03*
X163219708Y-188660200D03*
X164719966Y-188660200D03*
X166220224Y-188660200D03*
D16*
X167970484Y-188785200D03*
%TD*%
D15*
%TO.C,R2*%
X182143500Y-78196000D03*
X182152500Y-81327000D03*
%TD*%
D18*
%TO.C,SW1*%
X182246500Y-67091000D03*
X184389500Y-68364000D03*
X184429500Y-72815000D03*
X182246500Y-74121000D03*
%TD*%
D15*
%TO.C,C3*%
X111730500Y-133072500D03*
X114861500Y-133063500D03*
%TD*%
%TO.C,I1*%
X161186000Y-142641000D03*
X158055000Y-142650000D03*
%TD*%
D19*
%TO.C,J3*%
X109476000Y-76511000D03*
X109479000Y-73538000D03*
X109478000Y-70635000D03*
X109478000Y-79968000D03*
X109480000Y-67186000D03*
%TD*%
D15*
%TO.C,R1*%
X109076000Y-133075000D03*
X105945000Y-133084000D03*
%TD*%
D20*
%TO.C,U1*%
X129991000Y-175878000D03*
X131263000Y-175880000D03*
X132532000Y-175879000D03*
X133802000Y-175879000D03*
D21*
X135692000Y-174058000D03*
X135692000Y-172789000D03*
X135690000Y-171518000D03*
X135691000Y-170248000D03*
X135692000Y-168982000D03*
X135693000Y-167709000D03*
X135691000Y-166438000D03*
X135693000Y-165171000D03*
X135690000Y-163901000D03*
D20*
X133799000Y-162077000D03*
X132530000Y-162080000D03*
X131261000Y-162076000D03*
X129992000Y-162077000D03*
X128724000Y-162077000D03*
X127451000Y-162076000D03*
X126180000Y-162077000D03*
D21*
X124290000Y-163895000D03*
X124290000Y-165171000D03*
X124290000Y-166436000D03*
X124294000Y-167712000D03*
X124289000Y-168976000D03*
X124296000Y-170249000D03*
X124295000Y-171517000D03*
X124295000Y-172789000D03*
X124294000Y-174060000D03*
D20*
X126182000Y-175876000D03*
X127450000Y-175876000D03*
X128722000Y-175881000D03*
%TD*%
D15*
%TO.C,C2*%
X161204000Y-172825000D03*
X158073000Y-172834000D03*
%TD*%
D22*
%TO.C,J5*%
X163781000Y-124759000D03*
D23*
X161241000Y-124759000D03*
X158701000Y-124759000D03*
X156161000Y-124759000D03*
X153621000Y-124759000D03*
X151081000Y-124759000D03*
X148541000Y-124759000D03*
X146001000Y-124759000D03*
X143461000Y-124759000D03*
X140921000Y-124759000D03*
X138381000Y-124759000D03*
X135841000Y-124759000D03*
X133301000Y-124759000D03*
X130761000Y-124759000D03*
X128221000Y-124759000D03*
X125681000Y-124759000D03*
%TD*%
D24*
%TO.C,J2*%
X157731000Y-77163000D03*
X131731000Y-77163000D03*
%TD*%
D22*
%TO.C,J4*%
X163781000Y-128863000D03*
D23*
X161241000Y-128863000D03*
X158701000Y-128863000D03*
X156161000Y-128863000D03*
X153621000Y-128863000D03*
X151081000Y-128863000D03*
X148541000Y-128863000D03*
X146001000Y-128863000D03*
X143461000Y-128863000D03*
X140921000Y-128863000D03*
X138381000Y-128863000D03*
X135841000Y-128863000D03*
X133301000Y-128863000D03*
X130761000Y-128863000D03*
X128221000Y-128863000D03*
X125681000Y-128863000D03*
%TD*%
D22*
%TO.C,J8*%
X168856000Y-101324700D03*
D23*
X166316000Y-101324700D03*
X163776000Y-101324700D03*
X161236000Y-101324700D03*
X158696000Y-101324700D03*
X156156000Y-101324700D03*
X153616000Y-101324700D03*
X151076000Y-101324700D03*
X148536000Y-101324700D03*
X145996000Y-101324700D03*
X143456000Y-101324700D03*
X140916000Y-101324700D03*
X138376000Y-101324700D03*
X135836000Y-101324700D03*
X133296000Y-101324700D03*
X130756000Y-101324700D03*
X128216000Y-101324700D03*
X125676000Y-101324700D03*
X123136000Y-101324700D03*
X120596000Y-101324700D03*
%TD*%
D22*
%TO.C,J7*%
X168856000Y-110228000D03*
D23*
X166316000Y-110228000D03*
X163776000Y-110228000D03*
X161236000Y-110228000D03*
X158696000Y-110228000D03*
X156156000Y-110228000D03*
X153616000Y-110228000D03*
X151076000Y-110228000D03*
X148536000Y-110228000D03*
X145996000Y-110228000D03*
X143456000Y-110228000D03*
X140916000Y-110228000D03*
X138376000Y-110228000D03*
X135836000Y-110228000D03*
X133296000Y-110228000D03*
X130756000Y-110228000D03*
X128216000Y-110228000D03*
X125676000Y-110228000D03*
X123136000Y-110228000D03*
X120596000Y-110228000D03*
%TD*%
D22*
%TO.C,J6*%
X168856000Y-114754700D03*
D23*
X166316000Y-114754700D03*
X163776000Y-114754700D03*
X161236000Y-114754700D03*
X158696000Y-114754700D03*
X156156000Y-114754700D03*
X153616000Y-114754700D03*
X151076000Y-114754700D03*
X148536000Y-114754700D03*
X145996000Y-114754700D03*
X143456000Y-114754700D03*
X140916000Y-114754700D03*
X138376000Y-114754700D03*
X135836000Y-114754700D03*
X133296000Y-114754700D03*
X130756000Y-114754700D03*
X128216000Y-114754700D03*
X125676000Y-114754700D03*
X123136000Y-114754700D03*
X120596000Y-114754700D03*
%TD*%
D22*
%TO.C,J9*%
X168856000Y-96798000D03*
D23*
X166316000Y-96798000D03*
X163776000Y-96798000D03*
X161236000Y-96798000D03*
X158696000Y-96798000D03*
X156156000Y-96798000D03*
X153616000Y-96798000D03*
X151076000Y-96798000D03*
X148536000Y-96798000D03*
X145996000Y-96798000D03*
X143456000Y-96798000D03*
X140916000Y-96798000D03*
X138376000Y-96798000D03*
X135836000Y-96798000D03*
X133296000Y-96798000D03*
X130756000Y-96798000D03*
X128216000Y-96798000D03*
X125676000Y-96798000D03*
X123136000Y-96798000D03*
X120596000Y-96798000D03*
%TD*%
M02*
