%TF.GenerationSoftware,KiCad,Pcbnew,(6.0.2)*%
%TF.CreationDate,2022-11-18T22:33:18-06:00*%
%TF.ProjectId,REF1395A Optimized,52454631-3339-4354-9120-4f7074696d69,rev?*%
%TF.SameCoordinates,Original*%
%TF.FileFunction,Legend,Top*%
%TF.FilePolarity,Positive*%
%FSLAX46Y46*%
G04 Gerber Fmt 4.6, Leading zero omitted, Abs format (unit mm)*
G04 Created by KiCad (PCBNEW (6.0.2)) date 2022-11-18 22:33:18*
%MOMM*%
%LPD*%
G01*
G04 APERTURE LIST*
%ADD10C,0.150000*%
%ADD11C,0.125000*%
G04 APERTURE END LIST*
D10*
X172122761Y-114431000D02*
X172027523Y-114383380D01*
X171884666Y-114383380D01*
X171741809Y-114431000D01*
X171646571Y-114526238D01*
X171598952Y-114621476D01*
X171551333Y-114811952D01*
X171551333Y-114954809D01*
X171598952Y-115145285D01*
X171646571Y-115240523D01*
X171741809Y-115335761D01*
X171884666Y-115383380D01*
X171979904Y-115383380D01*
X172122761Y-115335761D01*
X172170380Y-115288142D01*
X172170380Y-114954809D01*
X171979904Y-114954809D01*
X172598952Y-115383380D02*
X172598952Y-114383380D01*
X173170380Y-115383380D01*
X173170380Y-114383380D01*
X173646571Y-115383380D02*
X173646571Y-114383380D01*
X173884666Y-114383380D01*
X174027523Y-114431000D01*
X174122761Y-114526238D01*
X174170380Y-114621476D01*
X174218000Y-114811952D01*
X174218000Y-114954809D01*
X174170380Y-115145285D01*
X174122761Y-115240523D01*
X174027523Y-115335761D01*
X173884666Y-115383380D01*
X173646571Y-115383380D01*
X175979904Y-115383380D02*
X175646571Y-114907190D01*
X175408476Y-115383380D02*
X175408476Y-114383380D01*
X175789428Y-114383380D01*
X175884666Y-114431000D01*
X175932285Y-114478619D01*
X175979904Y-114573857D01*
X175979904Y-114716714D01*
X175932285Y-114811952D01*
X175884666Y-114859571D01*
X175789428Y-114907190D01*
X175408476Y-114907190D01*
X176837047Y-115383380D02*
X176837047Y-114859571D01*
X176789428Y-114764333D01*
X176694190Y-114716714D01*
X176503714Y-114716714D01*
X176408476Y-114764333D01*
X176837047Y-115335761D02*
X176741809Y-115383380D01*
X176503714Y-115383380D01*
X176408476Y-115335761D01*
X176360857Y-115240523D01*
X176360857Y-115145285D01*
X176408476Y-115050047D01*
X176503714Y-115002428D01*
X176741809Y-115002428D01*
X176837047Y-114954809D01*
X177313238Y-115383380D02*
X177313238Y-114716714D01*
X177313238Y-114383380D02*
X177265619Y-114431000D01*
X177313238Y-114478619D01*
X177360857Y-114431000D01*
X177313238Y-114383380D01*
X177313238Y-114478619D01*
X177932285Y-115383380D02*
X177837047Y-115335761D01*
X177789428Y-115240523D01*
X177789428Y-114383380D01*
X167275761Y-128447000D02*
X167180523Y-128399380D01*
X167037666Y-128399380D01*
X166894809Y-128447000D01*
X166799571Y-128542238D01*
X166751952Y-128637476D01*
X166704333Y-128827952D01*
X166704333Y-128970809D01*
X166751952Y-129161285D01*
X166799571Y-129256523D01*
X166894809Y-129351761D01*
X167037666Y-129399380D01*
X167132904Y-129399380D01*
X167275761Y-129351761D01*
X167323380Y-129304142D01*
X167323380Y-128970809D01*
X167132904Y-128970809D01*
X167751952Y-129399380D02*
X167751952Y-128399380D01*
X168323380Y-129399380D01*
X168323380Y-128399380D01*
X168799571Y-129399380D02*
X168799571Y-128399380D01*
X169037666Y-128399380D01*
X169180523Y-128447000D01*
X169275761Y-128542238D01*
X169323380Y-128637476D01*
X169371000Y-128827952D01*
X169371000Y-128970809D01*
X169323380Y-129161285D01*
X169275761Y-129256523D01*
X169180523Y-129351761D01*
X169037666Y-129399380D01*
X168799571Y-129399380D01*
X171132904Y-129399380D02*
X170799571Y-128923190D01*
X170561476Y-129399380D02*
X170561476Y-128399380D01*
X170942428Y-128399380D01*
X171037666Y-128447000D01*
X171085285Y-128494619D01*
X171132904Y-128589857D01*
X171132904Y-128732714D01*
X171085285Y-128827952D01*
X171037666Y-128875571D01*
X170942428Y-128923190D01*
X170561476Y-128923190D01*
X171990047Y-129399380D02*
X171990047Y-128875571D01*
X171942428Y-128780333D01*
X171847190Y-128732714D01*
X171656714Y-128732714D01*
X171561476Y-128780333D01*
X171990047Y-129351761D02*
X171894809Y-129399380D01*
X171656714Y-129399380D01*
X171561476Y-129351761D01*
X171513857Y-129256523D01*
X171513857Y-129161285D01*
X171561476Y-129066047D01*
X171656714Y-129018428D01*
X171894809Y-129018428D01*
X171990047Y-128970809D01*
X172466238Y-129399380D02*
X172466238Y-128732714D01*
X172466238Y-128399380D02*
X172418619Y-128447000D01*
X172466238Y-128494619D01*
X172513857Y-128447000D01*
X172466238Y-128399380D01*
X172466238Y-128494619D01*
X173085285Y-129399380D02*
X172990047Y-129351761D01*
X172942428Y-129256523D01*
X172942428Y-128399380D01*
X117111761Y-128447000D02*
X117016523Y-128399380D01*
X116873666Y-128399380D01*
X116730809Y-128447000D01*
X116635571Y-128542238D01*
X116587952Y-128637476D01*
X116540333Y-128827952D01*
X116540333Y-128970809D01*
X116587952Y-129161285D01*
X116635571Y-129256523D01*
X116730809Y-129351761D01*
X116873666Y-129399380D01*
X116968904Y-129399380D01*
X117111761Y-129351761D01*
X117159380Y-129304142D01*
X117159380Y-128970809D01*
X116968904Y-128970809D01*
X117587952Y-129399380D02*
X117587952Y-128399380D01*
X118159380Y-129399380D01*
X118159380Y-128399380D01*
X118635571Y-129399380D02*
X118635571Y-128399380D01*
X118873666Y-128399380D01*
X119016523Y-128447000D01*
X119111761Y-128542238D01*
X119159380Y-128637476D01*
X119207000Y-128827952D01*
X119207000Y-128970809D01*
X119159380Y-129161285D01*
X119111761Y-129256523D01*
X119016523Y-129351761D01*
X118873666Y-129399380D01*
X118635571Y-129399380D01*
X120968904Y-129399380D02*
X120635571Y-128923190D01*
X120397476Y-129399380D02*
X120397476Y-128399380D01*
X120778428Y-128399380D01*
X120873666Y-128447000D01*
X120921285Y-128494619D01*
X120968904Y-128589857D01*
X120968904Y-128732714D01*
X120921285Y-128827952D01*
X120873666Y-128875571D01*
X120778428Y-128923190D01*
X120397476Y-128923190D01*
X121826047Y-129399380D02*
X121826047Y-128875571D01*
X121778428Y-128780333D01*
X121683190Y-128732714D01*
X121492714Y-128732714D01*
X121397476Y-128780333D01*
X121826047Y-129351761D02*
X121730809Y-129399380D01*
X121492714Y-129399380D01*
X121397476Y-129351761D01*
X121349857Y-129256523D01*
X121349857Y-129161285D01*
X121397476Y-129066047D01*
X121492714Y-129018428D01*
X121730809Y-129018428D01*
X121826047Y-128970809D01*
X122302238Y-129399380D02*
X122302238Y-128732714D01*
X122302238Y-128399380D02*
X122254619Y-128447000D01*
X122302238Y-128494619D01*
X122349857Y-128447000D01*
X122302238Y-128399380D01*
X122302238Y-128494619D01*
X122921285Y-129399380D02*
X122826047Y-129351761D01*
X122778428Y-129256523D01*
X122778428Y-128399380D01*
X111924761Y-114431000D02*
X111829523Y-114383380D01*
X111686666Y-114383380D01*
X111543809Y-114431000D01*
X111448571Y-114526238D01*
X111400952Y-114621476D01*
X111353333Y-114811952D01*
X111353333Y-114954809D01*
X111400952Y-115145285D01*
X111448571Y-115240523D01*
X111543809Y-115335761D01*
X111686666Y-115383380D01*
X111781904Y-115383380D01*
X111924761Y-115335761D01*
X111972380Y-115288142D01*
X111972380Y-114954809D01*
X111781904Y-114954809D01*
X112400952Y-115383380D02*
X112400952Y-114383380D01*
X112972380Y-115383380D01*
X112972380Y-114383380D01*
X113448571Y-115383380D02*
X113448571Y-114383380D01*
X113686666Y-114383380D01*
X113829523Y-114431000D01*
X113924761Y-114526238D01*
X113972380Y-114621476D01*
X114020000Y-114811952D01*
X114020000Y-114954809D01*
X113972380Y-115145285D01*
X113924761Y-115240523D01*
X113829523Y-115335761D01*
X113686666Y-115383380D01*
X113448571Y-115383380D01*
X115781904Y-115383380D02*
X115448571Y-114907190D01*
X115210476Y-115383380D02*
X115210476Y-114383380D01*
X115591428Y-114383380D01*
X115686666Y-114431000D01*
X115734285Y-114478619D01*
X115781904Y-114573857D01*
X115781904Y-114716714D01*
X115734285Y-114811952D01*
X115686666Y-114859571D01*
X115591428Y-114907190D01*
X115210476Y-114907190D01*
X116639047Y-115383380D02*
X116639047Y-114859571D01*
X116591428Y-114764333D01*
X116496190Y-114716714D01*
X116305714Y-114716714D01*
X116210476Y-114764333D01*
X116639047Y-115335761D02*
X116543809Y-115383380D01*
X116305714Y-115383380D01*
X116210476Y-115335761D01*
X116162857Y-115240523D01*
X116162857Y-115145285D01*
X116210476Y-115050047D01*
X116305714Y-115002428D01*
X116543809Y-115002428D01*
X116639047Y-114954809D01*
X117115238Y-115383380D02*
X117115238Y-114716714D01*
X117115238Y-114383380D02*
X117067619Y-114431000D01*
X117115238Y-114478619D01*
X117162857Y-114431000D01*
X117115238Y-114383380D01*
X117115238Y-114478619D01*
X117734285Y-115383380D02*
X117639047Y-115335761D01*
X117591428Y-115240523D01*
X117591428Y-114383380D01*
X111924761Y-100728000D02*
X111829523Y-100680380D01*
X111686666Y-100680380D01*
X111543809Y-100728000D01*
X111448571Y-100823238D01*
X111400952Y-100918476D01*
X111353333Y-101108952D01*
X111353333Y-101251809D01*
X111400952Y-101442285D01*
X111448571Y-101537523D01*
X111543809Y-101632761D01*
X111686666Y-101680380D01*
X111781904Y-101680380D01*
X111924761Y-101632761D01*
X111972380Y-101585142D01*
X111972380Y-101251809D01*
X111781904Y-101251809D01*
X112400952Y-101680380D02*
X112400952Y-100680380D01*
X112972380Y-101680380D01*
X112972380Y-100680380D01*
X113448571Y-101680380D02*
X113448571Y-100680380D01*
X113686666Y-100680380D01*
X113829523Y-100728000D01*
X113924761Y-100823238D01*
X113972380Y-100918476D01*
X114020000Y-101108952D01*
X114020000Y-101251809D01*
X113972380Y-101442285D01*
X113924761Y-101537523D01*
X113829523Y-101632761D01*
X113686666Y-101680380D01*
X113448571Y-101680380D01*
X115781904Y-101680380D02*
X115448571Y-101204190D01*
X115210476Y-101680380D02*
X115210476Y-100680380D01*
X115591428Y-100680380D01*
X115686666Y-100728000D01*
X115734285Y-100775619D01*
X115781904Y-100870857D01*
X115781904Y-101013714D01*
X115734285Y-101108952D01*
X115686666Y-101156571D01*
X115591428Y-101204190D01*
X115210476Y-101204190D01*
X116639047Y-101680380D02*
X116639047Y-101156571D01*
X116591428Y-101061333D01*
X116496190Y-101013714D01*
X116305714Y-101013714D01*
X116210476Y-101061333D01*
X116639047Y-101632761D02*
X116543809Y-101680380D01*
X116305714Y-101680380D01*
X116210476Y-101632761D01*
X116162857Y-101537523D01*
X116162857Y-101442285D01*
X116210476Y-101347047D01*
X116305714Y-101299428D01*
X116543809Y-101299428D01*
X116639047Y-101251809D01*
X117115238Y-101680380D02*
X117115238Y-101013714D01*
X117115238Y-100680380D02*
X117067619Y-100728000D01*
X117115238Y-100775619D01*
X117162857Y-100728000D01*
X117115238Y-100680380D01*
X117115238Y-100775619D01*
X117734285Y-101680380D02*
X117639047Y-101632761D01*
X117591428Y-101537523D01*
X117591428Y-100680380D01*
X172122761Y-100728000D02*
X172027523Y-100680380D01*
X171884666Y-100680380D01*
X171741809Y-100728000D01*
X171646571Y-100823238D01*
X171598952Y-100918476D01*
X171551333Y-101108952D01*
X171551333Y-101251809D01*
X171598952Y-101442285D01*
X171646571Y-101537523D01*
X171741809Y-101632761D01*
X171884666Y-101680380D01*
X171979904Y-101680380D01*
X172122761Y-101632761D01*
X172170380Y-101585142D01*
X172170380Y-101251809D01*
X171979904Y-101251809D01*
X172598952Y-101680380D02*
X172598952Y-100680380D01*
X173170380Y-101680380D01*
X173170380Y-100680380D01*
X173646571Y-101680380D02*
X173646571Y-100680380D01*
X173884666Y-100680380D01*
X174027523Y-100728000D01*
X174122761Y-100823238D01*
X174170380Y-100918476D01*
X174218000Y-101108952D01*
X174218000Y-101251809D01*
X174170380Y-101442285D01*
X174122761Y-101537523D01*
X174027523Y-101632761D01*
X173884666Y-101680380D01*
X173646571Y-101680380D01*
X175979904Y-101680380D02*
X175646571Y-101204190D01*
X175408476Y-101680380D02*
X175408476Y-100680380D01*
X175789428Y-100680380D01*
X175884666Y-100728000D01*
X175932285Y-100775619D01*
X175979904Y-100870857D01*
X175979904Y-101013714D01*
X175932285Y-101108952D01*
X175884666Y-101156571D01*
X175789428Y-101204190D01*
X175408476Y-101204190D01*
X176837047Y-101680380D02*
X176837047Y-101156571D01*
X176789428Y-101061333D01*
X176694190Y-101013714D01*
X176503714Y-101013714D01*
X176408476Y-101061333D01*
X176837047Y-101632761D02*
X176741809Y-101680380D01*
X176503714Y-101680380D01*
X176408476Y-101632761D01*
X176360857Y-101537523D01*
X176360857Y-101442285D01*
X176408476Y-101347047D01*
X176503714Y-101299428D01*
X176741809Y-101299428D01*
X176837047Y-101251809D01*
X177313238Y-101680380D02*
X177313238Y-101013714D01*
X177313238Y-100680380D02*
X177265619Y-100728000D01*
X177313238Y-100775619D01*
X177360857Y-100728000D01*
X177313238Y-100680380D01*
X177313238Y-100775619D01*
X177932285Y-101680380D02*
X177837047Y-101632761D01*
X177789428Y-101537523D01*
X177789428Y-100680380D01*
X156691000Y-171302000D02*
X162495000Y-171302000D01*
X162495000Y-171302000D02*
X162495000Y-175032000D01*
X162495000Y-175032000D02*
X156691000Y-175032000D01*
X156691000Y-175032000D02*
X156691000Y-171302000D01*
X110355500Y-131746500D02*
X104597500Y-131746500D01*
X104597500Y-131746500D02*
X104597500Y-135491500D01*
X104597500Y-135491500D02*
X110355500Y-135491500D01*
X110355500Y-135491500D02*
X110355500Y-131746500D01*
X183641500Y-82650000D02*
X179896500Y-82650000D01*
X179896500Y-82650000D02*
X179896500Y-76892000D01*
X179896500Y-76892000D02*
X183641500Y-76892000D01*
X183641500Y-76892000D02*
X183641500Y-82650000D01*
X118830000Y-163910000D02*
X122560000Y-163910000D01*
X122560000Y-163910000D02*
X122560000Y-158106000D01*
X122560000Y-158106000D02*
X118830000Y-158106000D01*
X118830000Y-158106000D02*
X118830000Y-163910000D01*
X110355500Y-131746500D02*
X116159500Y-131746500D01*
X116159500Y-131746500D02*
X116159500Y-135476500D01*
X116159500Y-135476500D02*
X110355500Y-135476500D01*
X110355500Y-135476500D02*
X110355500Y-131746500D01*
D11*
X122063190Y-162216285D02*
X122063190Y-162502000D01*
X122063190Y-162359142D02*
X121563190Y-162359142D01*
X121634619Y-162406761D01*
X121682238Y-162454380D01*
X121706047Y-162502000D01*
X121563190Y-161906761D02*
X121563190Y-161859142D01*
X121587000Y-161811523D01*
X121610809Y-161787714D01*
X121658428Y-161763904D01*
X121753666Y-161740095D01*
X121872714Y-161740095D01*
X121967952Y-161763904D01*
X122015571Y-161787714D01*
X122039380Y-161811523D01*
X122063190Y-161859142D01*
X122063190Y-161906761D01*
X122039380Y-161954380D01*
X122015571Y-161978190D01*
X121967952Y-162002000D01*
X121872714Y-162025809D01*
X121753666Y-162025809D01*
X121658428Y-162002000D01*
X121610809Y-161978190D01*
X121587000Y-161954380D01*
X121563190Y-161906761D01*
X121563190Y-161430571D02*
X121563190Y-161382952D01*
X121587000Y-161335333D01*
X121610809Y-161311523D01*
X121658428Y-161287714D01*
X121753666Y-161263904D01*
X121872714Y-161263904D01*
X121967952Y-161287714D01*
X122015571Y-161311523D01*
X122039380Y-161335333D01*
X122063190Y-161382952D01*
X122063190Y-161430571D01*
X122039380Y-161478190D01*
X122015571Y-161502000D01*
X121967952Y-161525809D01*
X121872714Y-161549619D01*
X121753666Y-161549619D01*
X121658428Y-161525809D01*
X121610809Y-161502000D01*
X121587000Y-161478190D01*
X121563190Y-161430571D01*
X121729857Y-160668666D02*
X122063190Y-160668666D01*
X121777476Y-160668666D02*
X121753666Y-160644857D01*
X121729857Y-160597238D01*
X121729857Y-160525809D01*
X121753666Y-160478190D01*
X121801285Y-160454380D01*
X122063190Y-160454380D01*
X121801285Y-160049619D02*
X121801285Y-160216285D01*
X122063190Y-160216285D02*
X121563190Y-160216285D01*
X121563190Y-159978190D01*
X106103357Y-135145690D02*
X105817642Y-135145690D01*
X105960500Y-135145690D02*
X105960500Y-134645690D01*
X105912880Y-134717119D01*
X105865261Y-134764738D01*
X105817642Y-134788547D01*
X106412880Y-134645690D02*
X106460500Y-134645690D01*
X106508119Y-134669500D01*
X106531928Y-134693309D01*
X106555738Y-134740928D01*
X106579547Y-134836166D01*
X106579547Y-134955214D01*
X106555738Y-135050452D01*
X106531928Y-135098071D01*
X106508119Y-135121880D01*
X106460500Y-135145690D01*
X106412880Y-135145690D01*
X106365261Y-135121880D01*
X106341452Y-135098071D01*
X106317642Y-135050452D01*
X106293833Y-134955214D01*
X106293833Y-134836166D01*
X106317642Y-134740928D01*
X106341452Y-134693309D01*
X106365261Y-134669500D01*
X106412880Y-134645690D01*
X106793833Y-135145690D02*
X106793833Y-134645690D01*
X107079547Y-135145690D02*
X106865261Y-134859976D01*
X107079547Y-134645690D02*
X106793833Y-134931404D01*
X107770023Y-134645690D02*
X107865261Y-134645690D01*
X107912880Y-134669500D01*
X107960500Y-134717119D01*
X107984309Y-134812357D01*
X107984309Y-134979023D01*
X107960500Y-135074261D01*
X107912880Y-135121880D01*
X107865261Y-135145690D01*
X107770023Y-135145690D01*
X107722404Y-135121880D01*
X107674785Y-135074261D01*
X107650976Y-134979023D01*
X107650976Y-134812357D01*
X107674785Y-134717119D01*
X107722404Y-134669500D01*
X107770023Y-134645690D01*
X108198595Y-135145690D02*
X108198595Y-134645690D01*
X108412880Y-135145690D02*
X108412880Y-134883785D01*
X108389071Y-134836166D01*
X108341452Y-134812357D01*
X108270023Y-134812357D01*
X108222404Y-134836166D01*
X108198595Y-134859976D01*
X108650976Y-135145690D02*
X108650976Y-134812357D01*
X108650976Y-134859976D02*
X108674785Y-134836166D01*
X108722404Y-134812357D01*
X108793833Y-134812357D01*
X108841452Y-134836166D01*
X108865261Y-134883785D01*
X108865261Y-135145690D01*
X108865261Y-134883785D02*
X108889071Y-134836166D01*
X108936690Y-134812357D01*
X109008119Y-134812357D01*
X109055738Y-134836166D01*
X109079547Y-134883785D01*
X109079547Y-135145690D01*
D10*
X124919857Y-151883142D02*
X124872238Y-151930761D01*
X124729380Y-151978380D01*
X124634142Y-151978380D01*
X124491285Y-151930761D01*
X124396047Y-151835523D01*
X124348428Y-151740285D01*
X124300809Y-151549809D01*
X124300809Y-151406952D01*
X124348428Y-151216476D01*
X124396047Y-151121238D01*
X124491285Y-151026000D01*
X124634142Y-150978380D01*
X124729380Y-150978380D01*
X124872238Y-151026000D01*
X124919857Y-151073619D01*
X125538904Y-151502190D02*
X125538904Y-151978380D01*
X125205571Y-150978380D02*
X125538904Y-151502190D01*
X125872238Y-150978380D01*
X126634142Y-150978380D02*
X126443666Y-150978380D01*
X126348428Y-151026000D01*
X126300809Y-151073619D01*
X126205571Y-151216476D01*
X126157952Y-151406952D01*
X126157952Y-151787904D01*
X126205571Y-151883142D01*
X126253190Y-151930761D01*
X126348428Y-151978380D01*
X126538904Y-151978380D01*
X126634142Y-151930761D01*
X126681761Y-151883142D01*
X126729380Y-151787904D01*
X126729380Y-151549809D01*
X126681761Y-151454571D01*
X126634142Y-151406952D01*
X126538904Y-151359333D01*
X126348428Y-151359333D01*
X126253190Y-151406952D01*
X126205571Y-151454571D01*
X126157952Y-151549809D01*
X127110333Y-151073619D02*
X127157952Y-151026000D01*
X127253190Y-150978380D01*
X127491285Y-150978380D01*
X127586523Y-151026000D01*
X127634142Y-151073619D01*
X127681761Y-151168857D01*
X127681761Y-151264095D01*
X127634142Y-151406952D01*
X127062714Y-151978380D01*
X127681761Y-151978380D01*
X128634142Y-151978380D02*
X128062714Y-151978380D01*
X128348428Y-151978380D02*
X128348428Y-150978380D01*
X128253190Y-151121238D01*
X128157952Y-151216476D01*
X128062714Y-151264095D01*
X129015095Y-151073619D02*
X129062714Y-151026000D01*
X129157952Y-150978380D01*
X129396047Y-150978380D01*
X129491285Y-151026000D01*
X129538904Y-151073619D01*
X129586523Y-151168857D01*
X129586523Y-151264095D01*
X129538904Y-151406952D01*
X128967476Y-151978380D01*
X129586523Y-151978380D01*
X130157952Y-151406952D02*
X130062714Y-151359333D01*
X130015095Y-151311714D01*
X129967476Y-151216476D01*
X129967476Y-151168857D01*
X130015095Y-151073619D01*
X130062714Y-151026000D01*
X130157952Y-150978380D01*
X130348428Y-150978380D01*
X130443666Y-151026000D01*
X130491285Y-151073619D01*
X130538904Y-151168857D01*
X130538904Y-151216476D01*
X130491285Y-151311714D01*
X130443666Y-151359333D01*
X130348428Y-151406952D01*
X130157952Y-151406952D01*
X130062714Y-151454571D01*
X130015095Y-151502190D01*
X129967476Y-151597428D01*
X129967476Y-151787904D01*
X130015095Y-151883142D01*
X130062714Y-151930761D01*
X130157952Y-151978380D01*
X130348428Y-151978380D01*
X130443666Y-151930761D01*
X130491285Y-151883142D01*
X130538904Y-151787904D01*
X130538904Y-151597428D01*
X130491285Y-151502190D01*
X130443666Y-151454571D01*
X130348428Y-151406952D01*
X131300809Y-151454571D02*
X131443666Y-151502190D01*
X131491285Y-151549809D01*
X131538904Y-151645047D01*
X131538904Y-151787904D01*
X131491285Y-151883142D01*
X131443666Y-151930761D01*
X131348428Y-151978380D01*
X130967476Y-151978380D01*
X130967476Y-150978380D01*
X131300809Y-150978380D01*
X131396047Y-151026000D01*
X131443666Y-151073619D01*
X131491285Y-151168857D01*
X131491285Y-151264095D01*
X131443666Y-151359333D01*
X131396047Y-151406952D01*
X131300809Y-151454571D01*
X130967476Y-151454571D01*
X132443666Y-151978380D02*
X131967476Y-151978380D01*
X131967476Y-150978380D01*
X133253190Y-151978380D02*
X132777000Y-151978380D01*
X132777000Y-150978380D01*
X133586523Y-151597428D02*
X134348428Y-151597428D01*
X134729380Y-150978380D02*
X135396047Y-150978380D01*
X134967476Y-151978380D01*
X135967476Y-150978380D02*
X136062714Y-150978380D01*
X136157952Y-151026000D01*
X136205571Y-151073619D01*
X136253190Y-151168857D01*
X136300809Y-151359333D01*
X136300809Y-151597428D01*
X136253190Y-151787904D01*
X136205571Y-151883142D01*
X136157952Y-151930761D01*
X136062714Y-151978380D01*
X135967476Y-151978380D01*
X135872238Y-151930761D01*
X135824619Y-151883142D01*
X135777000Y-151787904D01*
X135729380Y-151597428D01*
X135729380Y-151359333D01*
X135777000Y-151168857D01*
X135824619Y-151073619D01*
X135872238Y-151026000D01*
X135967476Y-150978380D01*
X136681761Y-151930761D02*
X136824619Y-151978380D01*
X137062714Y-151978380D01*
X137157952Y-151930761D01*
X137205571Y-151883142D01*
X137253190Y-151787904D01*
X137253190Y-151692666D01*
X137205571Y-151597428D01*
X137157952Y-151549809D01*
X137062714Y-151502190D01*
X136872238Y-151454571D01*
X136777000Y-151406952D01*
X136729380Y-151359333D01*
X136681761Y-151264095D01*
X136681761Y-151168857D01*
X136729380Y-151073619D01*
X136777000Y-151026000D01*
X136872238Y-150978380D01*
X137110333Y-150978380D01*
X137253190Y-151026000D01*
X138253190Y-151883142D02*
X138205571Y-151930761D01*
X138062714Y-151978380D01*
X137967476Y-151978380D01*
X137824619Y-151930761D01*
X137729380Y-151835523D01*
X137681761Y-151740285D01*
X137634142Y-151549809D01*
X137634142Y-151406952D01*
X137681761Y-151216476D01*
X137729380Y-151121238D01*
X137824619Y-151026000D01*
X137967476Y-150978380D01*
X138062714Y-150978380D01*
X138205571Y-151026000D01*
X138253190Y-151073619D01*
X169245428Y-139537857D02*
X169197809Y-139680714D01*
X169150190Y-139728333D01*
X169054952Y-139775952D01*
X168912095Y-139775952D01*
X168816857Y-139728333D01*
X168769238Y-139680714D01*
X168721619Y-139585476D01*
X168721619Y-139204523D01*
X169721619Y-139204523D01*
X169721619Y-139537857D01*
X169674000Y-139633095D01*
X169626380Y-139680714D01*
X169531142Y-139728333D01*
X169435904Y-139728333D01*
X169340666Y-139680714D01*
X169293047Y-139633095D01*
X169245428Y-139537857D01*
X169245428Y-139204523D01*
X168816857Y-140775952D02*
X168769238Y-140728333D01*
X168721619Y-140585476D01*
X168721619Y-140490238D01*
X168769238Y-140347380D01*
X168864476Y-140252142D01*
X168959714Y-140204523D01*
X169150190Y-140156904D01*
X169293047Y-140156904D01*
X169483523Y-140204523D01*
X169578761Y-140252142D01*
X169674000Y-140347380D01*
X169721619Y-140490238D01*
X169721619Y-140585476D01*
X169674000Y-140728333D01*
X169626380Y-140775952D01*
X169293047Y-141347380D02*
X169340666Y-141252142D01*
X169388285Y-141204523D01*
X169483523Y-141156904D01*
X169531142Y-141156904D01*
X169626380Y-141204523D01*
X169674000Y-141252142D01*
X169721619Y-141347380D01*
X169721619Y-141537857D01*
X169674000Y-141633095D01*
X169626380Y-141680714D01*
X169531142Y-141728333D01*
X169483523Y-141728333D01*
X169388285Y-141680714D01*
X169340666Y-141633095D01*
X169293047Y-141537857D01*
X169293047Y-141347380D01*
X169245428Y-141252142D01*
X169197809Y-141204523D01*
X169102571Y-141156904D01*
X168912095Y-141156904D01*
X168816857Y-141204523D01*
X168769238Y-141252142D01*
X168721619Y-141347380D01*
X168721619Y-141537857D01*
X168769238Y-141633095D01*
X168816857Y-141680714D01*
X168912095Y-141728333D01*
X169102571Y-141728333D01*
X169197809Y-141680714D01*
X169245428Y-141633095D01*
X169293047Y-141537857D01*
X169388285Y-142585476D02*
X168721619Y-142585476D01*
X169769238Y-142347380D02*
X169054952Y-142109285D01*
X169054952Y-142728333D01*
X169721619Y-143014047D02*
X169721619Y-143680714D01*
X168721619Y-143252142D01*
X169245428Y-144395000D02*
X169197809Y-144537857D01*
X169150190Y-144585476D01*
X169054952Y-144633095D01*
X168912095Y-144633095D01*
X168816857Y-144585476D01*
X168769238Y-144537857D01*
X168721619Y-144442619D01*
X168721619Y-144061666D01*
X169721619Y-144061666D01*
X169721619Y-144395000D01*
X169674000Y-144490238D01*
X169626380Y-144537857D01*
X169531142Y-144585476D01*
X169435904Y-144585476D01*
X169340666Y-144537857D01*
X169293047Y-144490238D01*
X169245428Y-144395000D01*
X169245428Y-144061666D01*
D11*
X180242809Y-78300857D02*
X180242809Y-78015142D01*
X180242809Y-78158000D02*
X180742809Y-78158000D01*
X180671380Y-78110380D01*
X180623761Y-78062761D01*
X180599952Y-78015142D01*
X180742809Y-78610380D02*
X180742809Y-78658000D01*
X180719000Y-78705619D01*
X180695190Y-78729428D01*
X180647571Y-78753238D01*
X180552333Y-78777047D01*
X180433285Y-78777047D01*
X180338047Y-78753238D01*
X180290428Y-78729428D01*
X180266619Y-78705619D01*
X180242809Y-78658000D01*
X180242809Y-78610380D01*
X180266619Y-78562761D01*
X180290428Y-78538952D01*
X180338047Y-78515142D01*
X180433285Y-78491333D01*
X180552333Y-78491333D01*
X180647571Y-78515142D01*
X180695190Y-78538952D01*
X180719000Y-78562761D01*
X180742809Y-78610380D01*
X180242809Y-78991333D02*
X180742809Y-78991333D01*
X180242809Y-79277047D02*
X180528523Y-79062761D01*
X180742809Y-79277047D02*
X180457095Y-78991333D01*
X180742809Y-79967523D02*
X180742809Y-80062761D01*
X180719000Y-80110380D01*
X180671380Y-80158000D01*
X180576142Y-80181809D01*
X180409476Y-80181809D01*
X180314238Y-80158000D01*
X180266619Y-80110380D01*
X180242809Y-80062761D01*
X180242809Y-79967523D01*
X180266619Y-79919904D01*
X180314238Y-79872285D01*
X180409476Y-79848476D01*
X180576142Y-79848476D01*
X180671380Y-79872285D01*
X180719000Y-79919904D01*
X180742809Y-79967523D01*
X180242809Y-80396095D02*
X180742809Y-80396095D01*
X180242809Y-80610380D02*
X180504714Y-80610380D01*
X180552333Y-80586571D01*
X180576142Y-80538952D01*
X180576142Y-80467523D01*
X180552333Y-80419904D01*
X180528523Y-80396095D01*
X180242809Y-80848476D02*
X180576142Y-80848476D01*
X180528523Y-80848476D02*
X180552333Y-80872285D01*
X180576142Y-80919904D01*
X180576142Y-80991333D01*
X180552333Y-81038952D01*
X180504714Y-81062761D01*
X180242809Y-81062761D01*
X180504714Y-81062761D02*
X180552333Y-81086571D01*
X180576142Y-81134190D01*
X180576142Y-81205619D01*
X180552333Y-81253238D01*
X180504714Y-81277047D01*
X180242809Y-81277047D01*
X158574714Y-174701190D02*
X158289000Y-174701190D01*
X158431857Y-174701190D02*
X158431857Y-174201190D01*
X158384238Y-174272619D01*
X158336619Y-174320238D01*
X158289000Y-174344047D01*
X158884238Y-174201190D02*
X158931857Y-174201190D01*
X158979476Y-174225000D01*
X159003285Y-174248809D01*
X159027095Y-174296428D01*
X159050904Y-174391666D01*
X159050904Y-174510714D01*
X159027095Y-174605952D01*
X159003285Y-174653571D01*
X158979476Y-174677380D01*
X158931857Y-174701190D01*
X158884238Y-174701190D01*
X158836619Y-174677380D01*
X158812809Y-174653571D01*
X158789000Y-174605952D01*
X158765190Y-174510714D01*
X158765190Y-174391666D01*
X158789000Y-174296428D01*
X158812809Y-174248809D01*
X158836619Y-174225000D01*
X158884238Y-174201190D01*
X159360428Y-174201190D02*
X159408047Y-174201190D01*
X159455666Y-174225000D01*
X159479476Y-174248809D01*
X159503285Y-174296428D01*
X159527095Y-174391666D01*
X159527095Y-174510714D01*
X159503285Y-174605952D01*
X159479476Y-174653571D01*
X159455666Y-174677380D01*
X159408047Y-174701190D01*
X159360428Y-174701190D01*
X159312809Y-174677380D01*
X159289000Y-174653571D01*
X159265190Y-174605952D01*
X159241380Y-174510714D01*
X159241380Y-174391666D01*
X159265190Y-174296428D01*
X159289000Y-174248809D01*
X159312809Y-174225000D01*
X159360428Y-174201190D01*
X160122333Y-174367857D02*
X160122333Y-174701190D01*
X160122333Y-174415476D02*
X160146142Y-174391666D01*
X160193761Y-174367857D01*
X160265190Y-174367857D01*
X160312809Y-174391666D01*
X160336619Y-174439285D01*
X160336619Y-174701190D01*
X160741380Y-174439285D02*
X160574714Y-174439285D01*
X160574714Y-174701190D02*
X160574714Y-174201190D01*
X160812809Y-174201190D01*
D10*
X129995000Y-179197714D02*
X129995000Y-177769142D01*
X130280714Y-180474380D02*
X129709285Y-180474380D01*
X129995000Y-180474380D02*
X129995000Y-179474380D01*
X129899761Y-179617238D01*
X129804523Y-179712476D01*
X129709285Y-179760095D01*
D11*
X112239214Y-135145690D02*
X111953500Y-135145690D01*
X112096357Y-135145690D02*
X112096357Y-134645690D01*
X112048738Y-134717119D01*
X112001119Y-134764738D01*
X111953500Y-134788547D01*
X112548738Y-134645690D02*
X112596357Y-134645690D01*
X112643976Y-134669500D01*
X112667785Y-134693309D01*
X112691595Y-134740928D01*
X112715404Y-134836166D01*
X112715404Y-134955214D01*
X112691595Y-135050452D01*
X112667785Y-135098071D01*
X112643976Y-135121880D01*
X112596357Y-135145690D01*
X112548738Y-135145690D01*
X112501119Y-135121880D01*
X112477309Y-135098071D01*
X112453500Y-135050452D01*
X112429690Y-134955214D01*
X112429690Y-134836166D01*
X112453500Y-134740928D01*
X112477309Y-134693309D01*
X112501119Y-134669500D01*
X112548738Y-134645690D01*
X113024928Y-134645690D02*
X113072547Y-134645690D01*
X113120166Y-134669500D01*
X113143976Y-134693309D01*
X113167785Y-134740928D01*
X113191595Y-134836166D01*
X113191595Y-134955214D01*
X113167785Y-135050452D01*
X113143976Y-135098071D01*
X113120166Y-135121880D01*
X113072547Y-135145690D01*
X113024928Y-135145690D01*
X112977309Y-135121880D01*
X112953500Y-135098071D01*
X112929690Y-135050452D01*
X112905880Y-134955214D01*
X112905880Y-134836166D01*
X112929690Y-134740928D01*
X112953500Y-134693309D01*
X112977309Y-134669500D01*
X113024928Y-134645690D01*
X113786833Y-134812357D02*
X113786833Y-135145690D01*
X113786833Y-134859976D02*
X113810642Y-134836166D01*
X113858261Y-134812357D01*
X113929690Y-134812357D01*
X113977309Y-134836166D01*
X114001119Y-134883785D01*
X114001119Y-135145690D01*
X114405880Y-134883785D02*
X114239214Y-134883785D01*
X114239214Y-135145690D02*
X114239214Y-134645690D01*
X114477309Y-134645690D01*
D10*
X122602714Y-149767380D02*
X122031285Y-149767380D01*
X122317000Y-149767380D02*
X122317000Y-148767380D01*
X122221761Y-148910238D01*
X122126523Y-149005476D01*
X122031285Y-149053095D01*
X122317000Y-151710714D02*
X122317000Y-150282142D01*
X152307857Y-148449428D02*
X153069761Y-148449428D01*
X154069761Y-148830380D02*
X153498333Y-148830380D01*
X153784047Y-148830380D02*
X153784047Y-147830380D01*
X153688809Y-147973238D01*
X153593571Y-148068476D01*
X153498333Y-148116095D01*
X157510333Y-139939380D02*
X158129380Y-139939380D01*
X157796047Y-140320333D01*
X157938904Y-140320333D01*
X158034142Y-140367952D01*
X158081761Y-140415571D01*
X158129380Y-140510809D01*
X158129380Y-140748904D01*
X158081761Y-140844142D01*
X158034142Y-140891761D01*
X157938904Y-140939380D01*
X157653190Y-140939380D01*
X157557952Y-140891761D01*
X157510333Y-140844142D01*
X158748428Y-139939380D02*
X158843666Y-139939380D01*
X158938904Y-139987000D01*
X158986523Y-140034619D01*
X159034142Y-140129857D01*
X159081761Y-140320333D01*
X159081761Y-140558428D01*
X159034142Y-140748904D01*
X158986523Y-140844142D01*
X158938904Y-140891761D01*
X158843666Y-140939380D01*
X158748428Y-140939380D01*
X158653190Y-140891761D01*
X158605571Y-140844142D01*
X158557952Y-140748904D01*
X158510333Y-140558428D01*
X158510333Y-140320333D01*
X158557952Y-140129857D01*
X158605571Y-140034619D01*
X158653190Y-139987000D01*
X158748428Y-139939380D01*
X160700809Y-140272714D02*
X160700809Y-140939380D01*
X160272238Y-140272714D02*
X160272238Y-140796523D01*
X160319857Y-140891761D01*
X160415095Y-140939380D01*
X160557952Y-140939380D01*
X160653190Y-140891761D01*
X160700809Y-140844142D01*
X161177000Y-140939380D02*
X161177000Y-139939380D01*
X161177000Y-140415571D02*
X161748428Y-140415571D01*
X161748428Y-140939380D02*
X161748428Y-139939380D01*
X128748142Y-166966761D02*
X128891000Y-167014380D01*
X129129095Y-167014380D01*
X129224333Y-166966761D01*
X129271952Y-166919142D01*
X129319571Y-166823904D01*
X129319571Y-166728666D01*
X129271952Y-166633428D01*
X129224333Y-166585809D01*
X129129095Y-166538190D01*
X128938619Y-166490571D01*
X128843380Y-166442952D01*
X128795761Y-166395333D01*
X128748142Y-166300095D01*
X128748142Y-166204857D01*
X128795761Y-166109619D01*
X128843380Y-166062000D01*
X128938619Y-166014380D01*
X129176714Y-166014380D01*
X129319571Y-166062000D01*
X129700523Y-166966761D02*
X129843380Y-167014380D01*
X130081476Y-167014380D01*
X130176714Y-166966761D01*
X130224333Y-166919142D01*
X130271952Y-166823904D01*
X130271952Y-166728666D01*
X130224333Y-166633428D01*
X130176714Y-166585809D01*
X130081476Y-166538190D01*
X129891000Y-166490571D01*
X129795761Y-166442952D01*
X129748142Y-166395333D01*
X129700523Y-166300095D01*
X129700523Y-166204857D01*
X129748142Y-166109619D01*
X129795761Y-166062000D01*
X129891000Y-166014380D01*
X130129095Y-166014380D01*
X130271952Y-166062000D01*
X130557666Y-166014380D02*
X131129095Y-166014380D01*
X130843380Y-167014380D02*
X130843380Y-166014380D01*
X126748142Y-167624380D02*
X127367190Y-167624380D01*
X127033857Y-168005333D01*
X127176714Y-168005333D01*
X127271952Y-168052952D01*
X127319571Y-168100571D01*
X127367190Y-168195809D01*
X127367190Y-168433904D01*
X127319571Y-168529142D01*
X127271952Y-168576761D01*
X127176714Y-168624380D01*
X126891000Y-168624380D01*
X126795761Y-168576761D01*
X126748142Y-168529142D01*
X127843380Y-168624380D02*
X128033857Y-168624380D01*
X128129095Y-168576761D01*
X128176714Y-168529142D01*
X128271952Y-168386285D01*
X128319571Y-168195809D01*
X128319571Y-167814857D01*
X128271952Y-167719619D01*
X128224333Y-167672000D01*
X128129095Y-167624380D01*
X127938619Y-167624380D01*
X127843380Y-167672000D01*
X127795761Y-167719619D01*
X127748142Y-167814857D01*
X127748142Y-168052952D01*
X127795761Y-168148190D01*
X127843380Y-168195809D01*
X127938619Y-168243428D01*
X128129095Y-168243428D01*
X128224333Y-168195809D01*
X128271952Y-168148190D01*
X128319571Y-168052952D01*
X128700523Y-168576761D02*
X128843380Y-168624380D01*
X129081476Y-168624380D01*
X129176714Y-168576761D01*
X129224333Y-168529142D01*
X129271952Y-168433904D01*
X129271952Y-168338666D01*
X129224333Y-168243428D01*
X129176714Y-168195809D01*
X129081476Y-168148190D01*
X128891000Y-168100571D01*
X128795761Y-168052952D01*
X128748142Y-168005333D01*
X128700523Y-167910095D01*
X128700523Y-167814857D01*
X128748142Y-167719619D01*
X128795761Y-167672000D01*
X128891000Y-167624380D01*
X129129095Y-167624380D01*
X129271952Y-167672000D01*
X130033857Y-168100571D02*
X129700523Y-168100571D01*
X129700523Y-168624380D02*
X129700523Y-167624380D01*
X130176714Y-167624380D01*
X130748142Y-167624380D02*
X130843380Y-167624380D01*
X130938619Y-167672000D01*
X130986238Y-167719619D01*
X131033857Y-167814857D01*
X131081476Y-168005333D01*
X131081476Y-168243428D01*
X131033857Y-168433904D01*
X130986238Y-168529142D01*
X130938619Y-168576761D01*
X130843380Y-168624380D01*
X130748142Y-168624380D01*
X130652904Y-168576761D01*
X130605285Y-168529142D01*
X130557666Y-168433904D01*
X130510047Y-168243428D01*
X130510047Y-168005333D01*
X130557666Y-167814857D01*
X130605285Y-167719619D01*
X130652904Y-167672000D01*
X130748142Y-167624380D01*
X132033857Y-168624380D02*
X131462428Y-168624380D01*
X131748142Y-168624380D02*
X131748142Y-167624380D01*
X131652904Y-167767238D01*
X131557666Y-167862476D01*
X131462428Y-167910095D01*
X132652904Y-167624380D02*
X132748142Y-167624380D01*
X132843380Y-167672000D01*
X132891000Y-167719619D01*
X132938619Y-167814857D01*
X132986238Y-168005333D01*
X132986238Y-168243428D01*
X132938619Y-168433904D01*
X132891000Y-168529142D01*
X132843380Y-168576761D01*
X132748142Y-168624380D01*
X132652904Y-168624380D01*
X132557666Y-168576761D01*
X132510047Y-168529142D01*
X132462428Y-168433904D01*
X132414809Y-168243428D01*
X132414809Y-168005333D01*
X132462428Y-167814857D01*
X132510047Y-167719619D01*
X132557666Y-167672000D01*
X132652904Y-167624380D01*
%TO.C,U3*%
X155723000Y-149648571D02*
X155770619Y-149553333D01*
X155770619Y-149410476D01*
X155723000Y-149267619D01*
X155627761Y-149172380D01*
X155532523Y-149124761D01*
X155342047Y-149077142D01*
X155199190Y-149077142D01*
X155008714Y-149124761D01*
X154913476Y-149172380D01*
X154818238Y-149267619D01*
X154770619Y-149410476D01*
X154770619Y-149505714D01*
X154818238Y-149648571D01*
X154865857Y-149696190D01*
X155199190Y-149696190D01*
X155199190Y-149505714D01*
X155294428Y-150458095D02*
X155246809Y-150600952D01*
X155199190Y-150648571D01*
X155103952Y-150696190D01*
X154961095Y-150696190D01*
X154865857Y-150648571D01*
X154818238Y-150600952D01*
X154770619Y-150505714D01*
X154770619Y-150124761D01*
X155770619Y-150124761D01*
X155770619Y-150458095D01*
X155723000Y-150553333D01*
X155675380Y-150600952D01*
X155580142Y-150648571D01*
X155484904Y-150648571D01*
X155389666Y-150600952D01*
X155342047Y-150553333D01*
X155294428Y-150458095D01*
X155294428Y-150124761D01*
X155056333Y-151077142D02*
X155056333Y-151553333D01*
X154770619Y-150981904D02*
X155770619Y-151315238D01*
X154770619Y-151648571D01*
X154818238Y-151934285D02*
X154770619Y-152077142D01*
X154770619Y-152315238D01*
X154818238Y-152410476D01*
X154865857Y-152458095D01*
X154961095Y-152505714D01*
X155056333Y-152505714D01*
X155151571Y-152458095D01*
X155199190Y-152410476D01*
X155246809Y-152315238D01*
X155294428Y-152124761D01*
X155342047Y-152029523D01*
X155389666Y-151981904D01*
X155484904Y-151934285D01*
X155580142Y-151934285D01*
X155675380Y-151981904D01*
X155723000Y-152029523D01*
X155770619Y-152124761D01*
X155770619Y-152362857D01*
X155723000Y-152505714D01*
X154770619Y-152934285D02*
X155770619Y-152934285D01*
X154865857Y-153981904D02*
X154818238Y-153934285D01*
X154770619Y-153791428D01*
X154770619Y-153696190D01*
X154818238Y-153553333D01*
X154913476Y-153458095D01*
X155008714Y-153410476D01*
X155199190Y-153362857D01*
X155342047Y-153362857D01*
X155532523Y-153410476D01*
X155627761Y-153458095D01*
X155723000Y-153553333D01*
X155770619Y-153696190D01*
X155770619Y-153791428D01*
X155723000Y-153934285D01*
X155675380Y-153981904D01*
X155770619Y-154267619D02*
X154770619Y-154600952D01*
X155770619Y-154934285D01*
X155770619Y-155172380D02*
X155770619Y-155791428D01*
X155389666Y-155458095D01*
X155389666Y-155600952D01*
X155342047Y-155696190D01*
X155294428Y-155743809D01*
X155199190Y-155791428D01*
X154961095Y-155791428D01*
X154865857Y-155743809D01*
X154818238Y-155696190D01*
X154770619Y-155600952D01*
X154770619Y-155315238D01*
X154818238Y-155220000D01*
X154865857Y-155172380D01*
X155770619Y-157172380D02*
X155770619Y-157362857D01*
X155723000Y-157458095D01*
X155627761Y-157553333D01*
X155437285Y-157600952D01*
X155103952Y-157600952D01*
X154913476Y-157553333D01*
X154818238Y-157458095D01*
X154770619Y-157362857D01*
X154770619Y-157172380D01*
X154818238Y-157077142D01*
X154913476Y-156981904D01*
X155103952Y-156934285D01*
X155437285Y-156934285D01*
X155627761Y-156981904D01*
X155723000Y-157077142D01*
X155770619Y-157172380D01*
X154770619Y-158600952D02*
X155246809Y-158267619D01*
X154770619Y-158029523D02*
X155770619Y-158029523D01*
X155770619Y-158410476D01*
X155723000Y-158505714D01*
X155675380Y-158553333D01*
X155580142Y-158600952D01*
X155437285Y-158600952D01*
X155342047Y-158553333D01*
X155294428Y-158505714D01*
X155246809Y-158410476D01*
X155246809Y-158029523D01*
X155294428Y-159362857D02*
X155246809Y-159505714D01*
X155199190Y-159553333D01*
X155103952Y-159600952D01*
X154961095Y-159600952D01*
X154865857Y-159553333D01*
X154818238Y-159505714D01*
X154770619Y-159410476D01*
X154770619Y-159029523D01*
X155770619Y-159029523D01*
X155770619Y-159362857D01*
X155723000Y-159458095D01*
X155675380Y-159505714D01*
X155580142Y-159553333D01*
X155484904Y-159553333D01*
X155389666Y-159505714D01*
X155342047Y-159458095D01*
X155294428Y-159362857D01*
X155294428Y-159029523D01*
X154770619Y-160029523D02*
X155770619Y-160029523D01*
X155770619Y-160362857D02*
X155770619Y-160934285D01*
X154770619Y-160648571D02*
X155770619Y-160648571D01*
X155770619Y-162458095D02*
X155770619Y-162267619D01*
X155723000Y-162172380D01*
X155675380Y-162124761D01*
X155532523Y-162029523D01*
X155342047Y-161981904D01*
X154961095Y-161981904D01*
X154865857Y-162029523D01*
X154818238Y-162077142D01*
X154770619Y-162172380D01*
X154770619Y-162362857D01*
X154818238Y-162458095D01*
X154865857Y-162505714D01*
X154961095Y-162553333D01*
X155199190Y-162553333D01*
X155294428Y-162505714D01*
X155342047Y-162458095D01*
X155389666Y-162362857D01*
X155389666Y-162172380D01*
X155342047Y-162077142D01*
X155294428Y-162029523D01*
X155199190Y-161981904D01*
X154770619Y-163505714D02*
X154770619Y-162934285D01*
X154770619Y-163220000D02*
X155770619Y-163220000D01*
X155627761Y-163124761D01*
X155532523Y-163029523D01*
X155484904Y-162934285D01*
X155770619Y-164362857D02*
X155770619Y-164172380D01*
X155723000Y-164077142D01*
X155675380Y-164029523D01*
X155532523Y-163934285D01*
X155342047Y-163886666D01*
X154961095Y-163886666D01*
X154865857Y-163934285D01*
X154818238Y-163981904D01*
X154770619Y-164077142D01*
X154770619Y-164267619D01*
X154818238Y-164362857D01*
X154865857Y-164410476D01*
X154961095Y-164458095D01*
X155199190Y-164458095D01*
X155294428Y-164410476D01*
X155342047Y-164362857D01*
X155389666Y-164267619D01*
X155389666Y-164077142D01*
X155342047Y-163981904D01*
X155294428Y-163934285D01*
X155199190Y-163886666D01*
X155770619Y-164791428D02*
X155770619Y-165458095D01*
X154770619Y-165029523D01*
X155770619Y-166267619D02*
X155770619Y-166077142D01*
X155723000Y-165981904D01*
X155675380Y-165934285D01*
X155532523Y-165839047D01*
X155342047Y-165791428D01*
X154961095Y-165791428D01*
X154865857Y-165839047D01*
X154818238Y-165886666D01*
X154770619Y-165981904D01*
X154770619Y-166172380D01*
X154818238Y-166267619D01*
X154865857Y-166315238D01*
X154961095Y-166362857D01*
X155199190Y-166362857D01*
X155294428Y-166315238D01*
X155342047Y-166267619D01*
X155389666Y-166172380D01*
X155389666Y-165981904D01*
X155342047Y-165886666D01*
X155294428Y-165839047D01*
X155199190Y-165791428D01*
%TO.C,U2*%
X123234333Y-147219380D02*
X123567666Y-148219380D01*
X123901000Y-147219380D01*
X124662904Y-147219380D02*
X124472428Y-147219380D01*
X124377190Y-147267000D01*
X124329571Y-147314619D01*
X124234333Y-147457476D01*
X124186714Y-147647952D01*
X124186714Y-148028904D01*
X124234333Y-148124142D01*
X124281952Y-148171761D01*
X124377190Y-148219380D01*
X124567666Y-148219380D01*
X124662904Y-148171761D01*
X124710523Y-148124142D01*
X124758142Y-148028904D01*
X124758142Y-147790809D01*
X124710523Y-147695571D01*
X124662904Y-147647952D01*
X124567666Y-147600333D01*
X124377190Y-147600333D01*
X124281952Y-147647952D01*
X124234333Y-147695571D01*
X124186714Y-147790809D01*
X125139095Y-147314619D02*
X125186714Y-147267000D01*
X125281952Y-147219380D01*
X125520047Y-147219380D01*
X125615285Y-147267000D01*
X125662904Y-147314619D01*
X125710523Y-147409857D01*
X125710523Y-147505095D01*
X125662904Y-147647952D01*
X125091476Y-148219380D01*
X125710523Y-148219380D01*
X126710523Y-148124142D02*
X126662904Y-148171761D01*
X126520047Y-148219380D01*
X126424809Y-148219380D01*
X126281952Y-148171761D01*
X126186714Y-148076523D01*
X126139095Y-147981285D01*
X126091476Y-147790809D01*
X126091476Y-147647952D01*
X126139095Y-147457476D01*
X126186714Y-147362238D01*
X126281952Y-147267000D01*
X126424809Y-147219380D01*
X126520047Y-147219380D01*
X126662904Y-147267000D01*
X126710523Y-147314619D01*
X127615285Y-147219380D02*
X127139095Y-147219380D01*
X127091476Y-147695571D01*
X127139095Y-147647952D01*
X127234333Y-147600333D01*
X127472428Y-147600333D01*
X127567666Y-147647952D01*
X127615285Y-147695571D01*
X127662904Y-147790809D01*
X127662904Y-148028904D01*
X127615285Y-148124142D01*
X127567666Y-148171761D01*
X127472428Y-148219380D01*
X127234333Y-148219380D01*
X127139095Y-148171761D01*
X127091476Y-148124142D01*
X128615285Y-148219380D02*
X128043857Y-148219380D01*
X128329571Y-148219380D02*
X128329571Y-147219380D01*
X128234333Y-147362238D01*
X128139095Y-147457476D01*
X128043857Y-147505095D01*
X129186714Y-147647952D02*
X129091476Y-147600333D01*
X129043857Y-147552714D01*
X128996238Y-147457476D01*
X128996238Y-147409857D01*
X129043857Y-147314619D01*
X129091476Y-147267000D01*
X129186714Y-147219380D01*
X129377190Y-147219380D01*
X129472428Y-147267000D01*
X129520047Y-147314619D01*
X129567666Y-147409857D01*
X129567666Y-147457476D01*
X129520047Y-147552714D01*
X129472428Y-147600333D01*
X129377190Y-147647952D01*
X129186714Y-147647952D01*
X129091476Y-147695571D01*
X129043857Y-147743190D01*
X128996238Y-147838428D01*
X128996238Y-148028904D01*
X129043857Y-148124142D01*
X129091476Y-148171761D01*
X129186714Y-148219380D01*
X129377190Y-148219380D01*
X129472428Y-148171761D01*
X129520047Y-148124142D01*
X129567666Y-148028904D01*
X129567666Y-147838428D01*
X129520047Y-147743190D01*
X129472428Y-147695571D01*
X129377190Y-147647952D01*
X130520047Y-148219380D02*
X129948619Y-148219380D01*
X130234333Y-148219380D02*
X130234333Y-147219380D01*
X130139095Y-147362238D01*
X130043857Y-147457476D01*
X129948619Y-147505095D01*
X131139095Y-147219380D02*
X131234333Y-147219380D01*
X131329571Y-147267000D01*
X131377190Y-147314619D01*
X131424809Y-147409857D01*
X131472428Y-147600333D01*
X131472428Y-147838428D01*
X131424809Y-148028904D01*
X131377190Y-148124142D01*
X131329571Y-148171761D01*
X131234333Y-148219380D01*
X131139095Y-148219380D01*
X131043857Y-148171761D01*
X130996238Y-148124142D01*
X130948619Y-148028904D01*
X130901000Y-147838428D01*
X130901000Y-147600333D01*
X130948619Y-147409857D01*
X130996238Y-147314619D01*
X131043857Y-147267000D01*
X131139095Y-147219380D01*
X131853380Y-147314619D02*
X131901000Y-147267000D01*
X131996238Y-147219380D01*
X132234333Y-147219380D01*
X132329571Y-147267000D01*
X132377190Y-147314619D01*
X132424809Y-147409857D01*
X132424809Y-147505095D01*
X132377190Y-147647952D01*
X131805761Y-148219380D01*
X132424809Y-148219380D01*
X133281952Y-147552714D02*
X133281952Y-148219380D01*
X133043857Y-147171761D02*
X132805761Y-147886047D01*
X133424809Y-147886047D01*
X134281952Y-148219380D02*
X133805761Y-148219380D01*
X133805761Y-147219380D01*
X134615285Y-147838428D02*
X135377190Y-147838428D01*
X135758142Y-147219380D02*
X136424809Y-147219380D01*
X135996238Y-148219380D01*
X136996238Y-147219380D02*
X137091476Y-147219380D01*
X137186714Y-147267000D01*
X137234333Y-147314619D01*
X137281952Y-147409857D01*
X137329571Y-147600333D01*
X137329571Y-147838428D01*
X137281952Y-148028904D01*
X137234333Y-148124142D01*
X137186714Y-148171761D01*
X137091476Y-148219380D01*
X136996238Y-148219380D01*
X136901000Y-148171761D01*
X136853380Y-148124142D01*
X136805761Y-148028904D01*
X136758142Y-147838428D01*
X136758142Y-147600333D01*
X136805761Y-147409857D01*
X136853380Y-147314619D01*
X136901000Y-147267000D01*
X136996238Y-147219380D01*
X137662904Y-147219380D02*
X137901000Y-148219380D01*
X138091476Y-147505095D01*
X138281952Y-148219380D01*
X138520047Y-147219380D01*
%TD*%
M02*
