%TF.GenerationSoftware,KiCad,Pcbnew,(6.0.2)*%
%TF.CreationDate,2022-11-18T22:18:21-06:00*%
%TF.ProjectId,REF1395A Optimized,52454631-3339-4354-9120-4f7074696d69,rev?*%
%TF.SameCoordinates,Original*%
%TF.FileFunction,Copper,L2,Bot*%
%TF.FilePolarity,Positive*%
%FSLAX46Y46*%
G04 Gerber Fmt 4.6, Leading zero omitted, Abs format (unit mm)*
G04 Created by KiCad (PCBNEW (6.0.2)) date 2022-11-18 22:18:21*
%MOMM*%
%LPD*%
G01*
G04 APERTURE LIST*
%TA.AperFunction,ComponentPad*%
%ADD10C,5.240000*%
%TD*%
%TA.AperFunction,ComponentPad*%
%ADD11C,1.830000*%
%TD*%
%TA.AperFunction,ComponentPad*%
%ADD12C,2.020000*%
%TD*%
%TA.AperFunction,ComponentPad*%
%ADD13R,1.700000X1.700000*%
%TD*%
%TA.AperFunction,ComponentPad*%
%ADD14O,1.700000X1.700000*%
%TD*%
%TA.AperFunction,SMDPad,CuDef*%
%ADD15R,1.000000X5.000000*%
%TD*%
%TA.AperFunction,SMDPad,CuDef*%
%ADD16R,5.500000X3.500000*%
%TD*%
%TA.AperFunction,ViaPad*%
%ADD17C,0.500000*%
%TD*%
%TA.AperFunction,ViaPad*%
%ADD18C,0.800000*%
%TD*%
%TA.AperFunction,Conductor*%
%ADD19C,0.200000*%
%TD*%
%TA.AperFunction,Conductor*%
%ADD20C,0.500000*%
%TD*%
G04 APERTURE END LIST*
D10*
%TO.P,Hole,1*%
%TO.N,N/C*%
X144577000Y-176279000D03*
%TD*%
D11*
%TO.P,SW1,1,1*%
%TO.N,unconnected-(SW1-Pad1)*%
X182246500Y-67091000D03*
%TO.P,SW1,2,2*%
%TO.N,/GND*%
X184389500Y-68364000D03*
%TO.P,SW1,3,3*%
%TO.N,/Button*%
X184429500Y-72815000D03*
%TO.P,SW1,4,4*%
%TO.N,unconnected-(SW1-Pad4)*%
X182246500Y-74121000D03*
%TD*%
D12*
%TO.P,J3,1,A*%
%TO.N,unconnected-(J3-Pad1)*%
X109476000Y-76511000D03*
%TO.P,J3,2,B*%
%TO.N,/Switch*%
X109479000Y-73538000D03*
%TO.P,J3,3,C*%
%TO.N,/GND*%
X109478000Y-70635000D03*
%TO.P,J3,4*%
%TO.N,N/C*%
X109478000Y-79968000D03*
%TO.P,J3,5*%
X109480000Y-67186000D03*
%TD*%
D13*
%TO.P,J5,1,Pin_1*%
%TO.N,/CE_SST*%
X163781000Y-124759000D03*
D14*
%TO.P,J5,2,Pin_2*%
%TO.N,/CE_V62*%
X161241000Y-124759000D03*
%TO.P,J5,3,Pin_3*%
%TO.N,/Reset*%
X158701000Y-124759000D03*
%TO.P,J5,4,Pin_4*%
%TO.N,/BC847C*%
X156161000Y-124759000D03*
%TO.P,J5,5,Pin_5*%
%TO.N,/WE*%
X153621000Y-124759000D03*
%TO.P,J5,6,Pin_6*%
%TO.N,/OE_V62*%
X151081000Y-124759000D03*
%TO.P,J5,7,Pin_7*%
%TO.N,/Pin_9*%
X148541000Y-124759000D03*
%TO.P,J5,8,Pin_8*%
%TO.N,/Pin_15*%
X146001000Y-124759000D03*
%TO.P,J5,9,Pin_9*%
%TO.N,/Pin_21*%
X143461000Y-124759000D03*
%TO.P,J5,10,Pin_10*%
%TO.N,/Pin_22*%
X140921000Y-124759000D03*
%TO.P,J5,11,Pin_11*%
%TO.N,/Pin_24*%
X138381000Y-124759000D03*
%TO.P,J5,12,Pin_12*%
%TO.N,/Pin_44*%
X135841000Y-124759000D03*
%TO.P,J5,13,Pin_13*%
%TO.N,/Pin_61*%
X133301000Y-124759000D03*
%TO.P,J5,14,Pin_14*%
%TO.N,/Pin_62*%
X130761000Y-124759000D03*
%TO.P,J5,15,Pin_15*%
%TO.N,/Pin_63*%
X128221000Y-124759000D03*
%TO.P,J5,16,Pin_16*%
%TO.N,/Pin_64*%
X125681000Y-124759000D03*
%TD*%
D15*
%TO.P,J2,1,+5V*%
%TO.N,/VCC*%
X167981000Y-85663000D03*
%TO.P,J2,2,Clock*%
%TO.N,/Clk*%
X166481000Y-85663000D03*
%TO.P,J2,3,Write*%
%TO.N,/Wr_Game*%
X164981000Y-85663000D03*
%TO.P,J2,4,Read*%
%TO.N,/Rd_Game*%
X163481000Y-85663000D03*
%TO.P,J2,5,CS*%
%TO.N,/CS*%
X161981000Y-85663000D03*
%TO.P,J2,6,A0*%
%TO.N,/A0*%
X160481000Y-85663000D03*
%TO.P,J2,7,A1*%
%TO.N,/A1*%
X158981000Y-85663000D03*
%TO.P,J2,8,A2*%
%TO.N,/A2*%
X157481000Y-85663000D03*
%TO.P,J2,9,A3*%
%TO.N,/A3*%
X155981000Y-85663000D03*
%TO.P,J2,10,A4*%
%TO.N,/A4*%
X154481000Y-85663000D03*
%TO.P,J2,11,A5*%
%TO.N,/A5*%
X152981000Y-85663000D03*
%TO.P,J2,12,A6*%
%TO.N,/A6*%
X151481000Y-85663000D03*
%TO.P,J2,13,A7*%
%TO.N,/A7*%
X149981000Y-85663000D03*
%TO.P,J2,14,A8*%
%TO.N,/A8*%
X148481000Y-85663000D03*
%TO.P,J2,15,A9*%
%TO.N,/A9*%
X146981000Y-85663000D03*
%TO.P,J2,16,A10*%
%TO.N,/A10*%
X145481000Y-85663000D03*
%TO.P,J2,17,A11*%
%TO.N,/A11*%
X143981000Y-85663000D03*
%TO.P,J2,18,A12*%
%TO.N,/A12*%
X142481000Y-85663000D03*
%TO.P,J2,19,A13*%
%TO.N,/A13*%
X140981000Y-85663000D03*
%TO.P,J2,20,A14*%
%TO.N,/A14*%
X139481000Y-85663000D03*
%TO.P,J2,21,A15*%
%TO.N,/A15_Game*%
X137981000Y-85663000D03*
%TO.P,J2,22,Data_0*%
%TO.N,/D0*%
X136481000Y-85663000D03*
%TO.P,J2,23,Data_1*%
%TO.N,/D1*%
X134981000Y-85663000D03*
%TO.P,J2,24,Data_2*%
%TO.N,/D2*%
X133481000Y-85663000D03*
%TO.P,J2,25,Data_3*%
%TO.N,/D3*%
X131981000Y-85663000D03*
%TO.P,J2,26,Data_4*%
%TO.N,/D4*%
X130481000Y-85663000D03*
%TO.P,J2,27,Data_5*%
%TO.N,/D5*%
X128981000Y-85663000D03*
%TO.P,J2,28,Data_6*%
%TO.N,/D6*%
X127481000Y-85663000D03*
%TO.P,J2,29,Data_7*%
%TO.N,/D7*%
X125981000Y-85663000D03*
%TO.P,J2,30,Reset*%
%TO.N,/Reset*%
X124481000Y-85663000D03*
%TO.P,J2,31,Audio*%
%TO.N,/Audio*%
X122981000Y-85663000D03*
%TO.P,J2,32,GND*%
%TO.N,/GND*%
X121481000Y-85663000D03*
D16*
%TO.P,J2,SHIELD_3*%
%TO.N,N/C*%
X157731000Y-64413000D03*
%TO.P,J2,SHIELD_4*%
X131731000Y-64413000D03*
%TD*%
D13*
%TO.P,J4,1,Pin_1*%
%TO.N,/GND*%
X163781000Y-128863000D03*
D14*
%TO.P,J4,2,Pin_2*%
X161241000Y-128863000D03*
%TO.P,J4,3,Pin_3*%
X158701000Y-128863000D03*
%TO.P,J4,4,Pin_4*%
X156161000Y-128863000D03*
%TO.P,J4,5,Pin_5*%
X153621000Y-128863000D03*
%TO.P,J4,6,Pin_6*%
X151081000Y-128863000D03*
%TO.P,J4,7,Pin_7*%
X148541000Y-128863000D03*
%TO.P,J4,8,Pin_8*%
X146001000Y-128863000D03*
%TO.P,J4,9,Pin_9*%
X143461000Y-128863000D03*
%TO.P,J4,10,Pin_10*%
X140921000Y-128863000D03*
%TO.P,J4,11,Pin_11*%
X138381000Y-128863000D03*
%TO.P,J4,12,Pin_12*%
X135841000Y-128863000D03*
%TO.P,J4,13,Pin_13*%
X133301000Y-128863000D03*
%TO.P,J4,14,Pin_14*%
X130761000Y-128863000D03*
%TO.P,J4,15,Pin_15*%
X128221000Y-128863000D03*
%TO.P,J4,16,Pin_16*%
X125681000Y-128863000D03*
%TD*%
D13*
%TO.P,J8,1,Pin_1*%
%TO.N,/GND*%
X168856000Y-101324700D03*
D14*
%TO.P,J8,2,Pin_2*%
X166316000Y-101324700D03*
%TO.P,J8,3,Pin_3*%
X163776000Y-101324700D03*
%TO.P,J8,4,Pin_4*%
X161236000Y-101324700D03*
%TO.P,J8,5,Pin_5*%
X158696000Y-101324700D03*
%TO.P,J8,6,Pin_6*%
X156156000Y-101324700D03*
%TO.P,J8,7,Pin_7*%
X153616000Y-101324700D03*
%TO.P,J8,8,Pin_8*%
X151076000Y-101324700D03*
%TO.P,J8,9,Pin_9*%
X148536000Y-101324700D03*
%TO.P,J8,10,Pin_10*%
X145996000Y-101324700D03*
%TO.P,J8,11,Pin_11*%
X143456000Y-101324700D03*
%TO.P,J8,12,Pin_12*%
X140916000Y-101324700D03*
%TO.P,J8,13,Pin_13*%
X138376000Y-101324700D03*
%TO.P,J8,14,Pin_14*%
X135836000Y-101324700D03*
%TO.P,J8,15,Pin_15*%
X133296000Y-101324700D03*
%TO.P,J8,16,Pin_16*%
X130756000Y-101324700D03*
%TO.P,J8,17,Pin_17*%
X128216000Y-101324700D03*
%TO.P,J8,18,Pin_18*%
X125676000Y-101324700D03*
%TO.P,J8,19,Pin_19*%
X123136000Y-101324700D03*
%TO.P,J8,20,Pin_20*%
X120596000Y-101324700D03*
%TD*%
D13*
%TO.P,J7,1,Pin_1*%
%TO.N,/A12*%
X168856000Y-110228000D03*
D14*
%TO.P,J7,2,Pin_2*%
%TO.N,/A13*%
X166316000Y-110228000D03*
%TO.P,J7,3,Pin_3*%
%TO.N,/A14*%
X163776000Y-110228000D03*
%TO.P,J7,4,Pin_4*%
%TO.N,/A15_Sys*%
X161236000Y-110228000D03*
%TO.P,J7,5,Pin_5*%
%TO.N,/A15_Game*%
X158696000Y-110228000D03*
%TO.P,J7,6,Pin_6*%
%TO.N,/A13_SST*%
X156156000Y-110228000D03*
%TO.P,J7,7,Pin_7*%
%TO.N,/A14_SST*%
X153616000Y-110228000D03*
%TO.P,J7,8,Pin_8*%
%TO.N,/A15_SST*%
X151076000Y-110228000D03*
%TO.P,J7,9,Pin_9*%
%TO.N,/A16_SST*%
X148536000Y-110228000D03*
%TO.P,J7,10,Pin_10*%
%TO.N,/A12_V62*%
X145996000Y-110228000D03*
%TO.P,J7,11,Pin_11*%
%TO.N,/A13_V62*%
X143456000Y-110228000D03*
%TO.P,J7,12,Pin_12*%
%TO.N,/A14_V62*%
X140916000Y-110228000D03*
%TO.P,J7,13,Pin_13*%
%TO.N,/A15_V62*%
X138376000Y-110228000D03*
%TO.P,J7,14,Pin_14*%
%TO.N,/A16_V62*%
X135836000Y-110228000D03*
%TO.P,J7,15,Pin_15*%
%TO.N,/Rd_Game*%
X133296000Y-110228000D03*
%TO.P,J7,16,Pin_16*%
%TO.N,/Wr_Game*%
X130756000Y-110228000D03*
%TO.P,J7,17,Pin_17*%
%TO.N,/Rd_Sys*%
X128216000Y-110228000D03*
%TO.P,J7,18,Pin_18*%
%TO.N,/Wr_Sys*%
X125676000Y-110228000D03*
%TO.P,J7,19,Pin_19*%
%TO.N,/Button*%
X123136000Y-110228000D03*
%TO.P,J7,20,Pin_20*%
%TO.N,/Switch*%
X120596000Y-110228000D03*
%TD*%
D13*
%TO.P,J6,1,Pin_1*%
%TO.N,/GND*%
X168856000Y-114754700D03*
D14*
%TO.P,J6,2,Pin_2*%
X166316000Y-114754700D03*
%TO.P,J6,3,Pin_3*%
X163776000Y-114754700D03*
%TO.P,J6,4,Pin_4*%
X161236000Y-114754700D03*
%TO.P,J6,5,Pin_5*%
X158696000Y-114754700D03*
%TO.P,J6,6,Pin_6*%
X156156000Y-114754700D03*
%TO.P,J6,7,Pin_7*%
X153616000Y-114754700D03*
%TO.P,J6,8,Pin_8*%
X151076000Y-114754700D03*
%TO.P,J6,9,Pin_9*%
X148536000Y-114754700D03*
%TO.P,J6,10,Pin_10*%
X145996000Y-114754700D03*
%TO.P,J6,11,Pin_11*%
X143456000Y-114754700D03*
%TO.P,J6,12,Pin_12*%
X140916000Y-114754700D03*
%TO.P,J6,13,Pin_13*%
X138376000Y-114754700D03*
%TO.P,J6,14,Pin_14*%
X135836000Y-114754700D03*
%TO.P,J6,15,Pin_15*%
X133296000Y-114754700D03*
%TO.P,J6,16,Pin_16*%
X130756000Y-114754700D03*
%TO.P,J6,17,Pin_17*%
X128216000Y-114754700D03*
%TO.P,J6,18,Pin_18*%
X125676000Y-114754700D03*
%TO.P,J6,19,Pin_19*%
X123136000Y-114754700D03*
%TO.P,J6,20,Pin_20*%
X120596000Y-114754700D03*
%TD*%
D13*
%TO.P,J9,1,Pin_1*%
%TO.N,/D0*%
X168856000Y-96798000D03*
D14*
%TO.P,J9,2,Pin_2*%
%TO.N,/D1*%
X166316000Y-96798000D03*
%TO.P,J9,3,Pin_3*%
%TO.N,/D2*%
X163776000Y-96798000D03*
%TO.P,J9,4,Pin_4*%
%TO.N,/D3*%
X161236000Y-96798000D03*
%TO.P,J9,5,Pin_5*%
%TO.N,/D4*%
X158696000Y-96798000D03*
%TO.P,J9,6,Pin_6*%
%TO.N,/D5*%
X156156000Y-96798000D03*
%TO.P,J9,7,Pin_7*%
%TO.N,/D6*%
X153616000Y-96798000D03*
%TO.P,J9,8,Pin_8*%
%TO.N,/D7*%
X151076000Y-96798000D03*
%TO.P,J9,9,Pin_9*%
%TO.N,/A0*%
X148536000Y-96798000D03*
%TO.P,J9,10,Pin_10*%
%TO.N,/A1*%
X145996000Y-96798000D03*
%TO.P,J9,11,Pin_11*%
%TO.N,/A2*%
X143456000Y-96798000D03*
%TO.P,J9,12,Pin_12*%
%TO.N,/A3*%
X140916000Y-96798000D03*
%TO.P,J9,13,Pin_13*%
%TO.N,/A4*%
X138376000Y-96798000D03*
%TO.P,J9,14,Pin_14*%
%TO.N,/A5*%
X135836000Y-96798000D03*
%TO.P,J9,15,Pin_15*%
%TO.N,/A6*%
X133296000Y-96798000D03*
%TO.P,J9,16,Pin_16*%
%TO.N,/A7*%
X130756000Y-96798000D03*
%TO.P,J9,17,Pin_17*%
%TO.N,/A8*%
X128216000Y-96798000D03*
%TO.P,J9,18,Pin_18*%
%TO.N,/A9*%
X125676000Y-96798000D03*
%TO.P,J9,19,Pin_19*%
%TO.N,/A10*%
X123136000Y-96798000D03*
%TO.P,J9,20,Pin_20*%
%TO.N,/A11*%
X120596000Y-96798000D03*
%TD*%
D17*
%TO.N,/D0*%
X148324000Y-136339500D03*
X137638500Y-156300600D03*
X162618400Y-134461400D03*
X164358200Y-82002100D03*
X167984500Y-143986000D03*
X168449600Y-138918600D03*
X152397700Y-155348600D03*
X160059300Y-100179500D03*
%TO.N,/D1*%
X164926200Y-103590100D03*
X167231800Y-118573500D03*
X164821400Y-131059700D03*
X148256800Y-132721700D03*
X167745700Y-100052400D03*
X165158700Y-81981800D03*
X167516200Y-112871300D03*
X141029000Y-131795900D03*
%TO.N,/D2*%
X148870000Y-151371400D03*
X142890100Y-130641500D03*
X142831900Y-151500400D03*
X166749800Y-134650000D03*
X140055800Y-160434800D03*
X132853400Y-160092900D03*
X163776000Y-99533100D03*
X163610300Y-131518500D03*
X140169500Y-151966200D03*
X163600200Y-80783400D03*
%TO.N,/D3*%
X160159400Y-80535700D03*
X152288300Y-153075700D03*
X129992000Y-158354100D03*
X130074600Y-164216300D03*
X141576900Y-150908800D03*
X144103900Y-164613800D03*
%TO.N,/D4*%
X136451300Y-88687800D03*
X142186000Y-98500500D03*
X144844900Y-100622700D03*
X140593700Y-150331300D03*
X148250100Y-150261500D03*
X128724000Y-158495200D03*
%TO.N,/D5*%
X127588100Y-163677800D03*
X149093900Y-80151100D03*
X139201400Y-140018500D03*
X147116800Y-141807000D03*
X148770200Y-153888400D03*
X145942400Y-159635900D03*
%TO.N,/D6*%
X148428700Y-79480900D03*
X146148500Y-131721600D03*
X128274800Y-170411300D03*
X168329100Y-136513700D03*
X160484200Y-94207100D03*
X141720600Y-131241300D03*
X159382600Y-93858700D03*
X148838600Y-155057500D03*
X147780600Y-163557100D03*
X147953900Y-169775300D03*
X162890800Y-131645300D03*
%TO.N,/D7*%
X136731100Y-150735500D03*
X126322900Y-159263300D03*
X154729000Y-98036500D03*
X145982200Y-149645300D03*
X154729000Y-99736900D03*
X148234700Y-156161300D03*
X138332500Y-89091300D03*
X148243300Y-159148800D03*
%TO.N,/Pin_9*%
X153317700Y-148496600D03*
D18*
%TO.N,/GND*%
X141477500Y-156722000D03*
X131356700Y-160012700D03*
D17*
%TO.N,/CE_SST*%
X147673900Y-158682600D03*
X126827900Y-165039600D03*
X153865900Y-149044900D03*
%TO.N,/CE_V62*%
X135096500Y-137724600D03*
X154361100Y-149540000D03*
X148899800Y-142151700D03*
%TO.N,/Rd_Game*%
X153844000Y-158718700D03*
%TO.N,/Wr_Game*%
X133663300Y-103578900D03*
X154699900Y-155424400D03*
X169735200Y-94645200D03*
X164341400Y-80535500D03*
%TO.N,/Pin_15*%
X154426800Y-148049600D03*
%TO.N,/Rd_Sys*%
X148761300Y-167666100D03*
X126556200Y-168948000D03*
X121366000Y-113115200D03*
X124199100Y-158001200D03*
X116592300Y-125039100D03*
X127315200Y-111924300D03*
X126567500Y-180907800D03*
%TO.N,/Reset*%
X155509400Y-148682000D03*
X157426000Y-80132400D03*
%TO.N,/Switch*%
X153182900Y-175283700D03*
X110882600Y-131669100D03*
%TO.N,/Wr_Sys*%
X152813100Y-174316100D03*
X125248000Y-183457700D03*
X119761600Y-157838000D03*
%TO.N,/Button*%
X153267000Y-165255500D03*
X171554600Y-107569600D03*
X175002000Y-135570600D03*
%TO.N,/Pin_21*%
X144611100Y-151841200D03*
X156284500Y-154261000D03*
%TO.N,/Pin_22*%
X156585000Y-149728200D03*
%TO.N,/A15_Game*%
X139646000Y-106790200D03*
X139646000Y-90629700D03*
X157289900Y-149692300D03*
%TO.N,/Pin_24*%
X155127000Y-148074100D03*
D18*
%TO.N,/VCC*%
X166571300Y-147053800D03*
X180680600Y-81348500D03*
X107230100Y-70769100D03*
X124896500Y-144838300D03*
X158601000Y-150242400D03*
D17*
%TO.N,/A0*%
X136357500Y-156293500D03*
X160267000Y-166917800D03*
X128713800Y-177736400D03*
X137334500Y-167112000D03*
%TO.N,/A1*%
X161513000Y-99506800D03*
X130169400Y-165428800D03*
X161267000Y-152595100D03*
X135050500Y-150158600D03*
X133155200Y-165087100D03*
X158741700Y-89198300D03*
%TO.N,/A2*%
X138047400Y-167987300D03*
X142327200Y-92415800D03*
X131185800Y-179481700D03*
X133822500Y-151727300D03*
X117692500Y-105655700D03*
X124796100Y-156706000D03*
X126984100Y-94305100D03*
X125418500Y-159611800D03*
X161895500Y-167465400D03*
%TO.N,/A3*%
X121979700Y-100363500D03*
X120501900Y-106680100D03*
X134112200Y-168265800D03*
X135905700Y-98504300D03*
X134253100Y-148738200D03*
X162788700Y-167384400D03*
X133241800Y-179434700D03*
%TO.N,/A4*%
X164226000Y-167684000D03*
X137301400Y-170248000D03*
%TO.N,/A5*%
X135282200Y-99284500D03*
X133933200Y-171157300D03*
X125822100Y-99284500D03*
X129739600Y-168895400D03*
X120512300Y-104328700D03*
X164926200Y-167484900D03*
X129386200Y-152046600D03*
%TO.N,/A6*%
X137312900Y-172789000D03*
X166272400Y-168262000D03*
X129040100Y-170838700D03*
%TO.N,/A7*%
X166340200Y-167492500D03*
X138701500Y-182581500D03*
X120242600Y-103578900D03*
X126308800Y-156401200D03*
X138247500Y-172096600D03*
%TO.N,/A8*%
X141056200Y-182497400D03*
X166434500Y-164959300D03*
X127376600Y-150221200D03*
X127348000Y-172237600D03*
%TO.N,/A9*%
X127735200Y-171634600D03*
X165871300Y-164507100D03*
X142166200Y-181950900D03*
%TO.N,/A10*%
X131847000Y-158744600D03*
X138840100Y-166342400D03*
X166440400Y-161360500D03*
X126396400Y-165873800D03*
X119716900Y-106322700D03*
X132051100Y-150659200D03*
%TO.N,/A11*%
X124002300Y-160380100D03*
X123144100Y-129692800D03*
X144661300Y-179749300D03*
X118693900Y-103231300D03*
X126037400Y-157949900D03*
X115142100Y-128741400D03*
X131285500Y-132852300D03*
X128281300Y-171190400D03*
X165097900Y-165229200D03*
%TO.N,/A12*%
X142867800Y-89122400D03*
X149702700Y-104083600D03*
X162331500Y-174461200D03*
X168856000Y-105284200D03*
X146716900Y-181819100D03*
X137579500Y-184150400D03*
%TO.N,/A13*%
X165037500Y-82698300D03*
X170003500Y-159398600D03*
X148967300Y-185229900D03*
%TO.N,/A14*%
X152061600Y-180351800D03*
X166427900Y-158093900D03*
X161889700Y-82305300D03*
%TO.N,/A15_Sys*%
X169601200Y-156735500D03*
X151145600Y-182601700D03*
X171595300Y-136521300D03*
X170582900Y-112342600D03*
%TO.N,/Pin_44*%
X166007800Y-155534800D03*
X145544400Y-153471800D03*
X135841000Y-121416200D03*
X145220800Y-143989800D03*
%TO.N,/A13_SST*%
X166432800Y-154089900D03*
X128328300Y-165184700D03*
X169464900Y-116282200D03*
X169395800Y-140518400D03*
%TO.N,/A14_SST*%
X124899800Y-175482100D03*
X166423300Y-153088300D03*
X168197400Y-140251500D03*
%TO.N,/A15_SST*%
X157909900Y-108345800D03*
X164317000Y-166214100D03*
X160061600Y-147762800D03*
X132532000Y-172580400D03*
%TO.N,/A16_SST*%
X152245900Y-115747400D03*
X169791800Y-154792300D03*
X169080100Y-125630800D03*
X132734800Y-184369000D03*
%TO.N,/A12_V62*%
X165228300Y-137488700D03*
X143526200Y-116464300D03*
X126190300Y-147922400D03*
%TO.N,/A13_V62*%
X165267000Y-147953100D03*
X126110000Y-146060700D03*
X153933200Y-113444600D03*
%TO.N,/A14_V62*%
X164028100Y-149471900D03*
X124855500Y-150731600D03*
X162391100Y-114024100D03*
X162218300Y-133761200D03*
X162593400Y-140364700D03*
%TO.N,/A15_V62*%
X126433100Y-130432200D03*
X149790900Y-113375800D03*
X152610300Y-126416500D03*
X162782800Y-141216400D03*
%TO.N,/A16_V62*%
X123967000Y-149986800D03*
X162267000Y-149879900D03*
X134463700Y-116917200D03*
X134463700Y-113432600D03*
%TO.N,/WE*%
X126207500Y-135249300D03*
%TO.N,/OE_V62*%
X161074500Y-150201000D03*
X132798100Y-145911400D03*
X132657700Y-138043900D03*
%TO.N,/Pin_61*%
X147875800Y-127684400D03*
%TO.N,/Pin_62*%
X155267000Y-144186800D03*
%TO.N,/Pin_63*%
X154267000Y-144183100D03*
%TO.N,/Pin_64*%
X153267000Y-144110100D03*
%TO.N,/Clk*%
X126017300Y-184430000D03*
%TO.N,/CS*%
X119706400Y-98111400D03*
X127213500Y-182340200D03*
X118711600Y-104029300D03*
%TO.N,/Audio*%
X165470100Y-185229900D03*
X124983500Y-89646500D03*
X118217700Y-96753900D03*
%TD*%
D19*
%TO.N,/D0*%
X162768500Y-134311300D02*
X162768500Y-133465400D01*
X149965600Y-152916500D02*
X152397700Y-155348600D01*
X137638500Y-156300600D02*
X140519500Y-156300600D01*
X161990500Y-133211100D02*
X158862100Y-136339500D01*
X137442400Y-81901500D02*
X136481000Y-82862900D01*
X168799600Y-139268600D02*
X168449600Y-138918600D01*
X164358200Y-82002100D02*
X162364500Y-82002100D01*
X167705900Y-96798000D02*
X167705900Y-97085600D01*
X168856000Y-96798000D02*
X167705900Y-96798000D01*
X168799600Y-143170900D02*
X168799600Y-139268600D01*
X162768500Y-133465400D02*
X162514200Y-133211100D01*
X167705900Y-97085600D02*
X166208600Y-98582900D01*
X166208600Y-98582900D02*
X161655900Y-98582900D01*
X136481000Y-85663000D02*
X136481000Y-82862900D01*
X161504900Y-81901500D02*
X137442400Y-81901500D01*
X167984500Y-143986000D02*
X168799600Y-143170900D01*
X161694700Y-81711700D02*
X161504900Y-81901500D01*
X140519500Y-156300600D02*
X143903600Y-152916500D01*
X162074100Y-81711700D02*
X161694700Y-81711700D01*
X162618400Y-134461400D02*
X162768500Y-134311300D01*
X161655900Y-98582900D02*
X160059300Y-100179500D01*
X162514200Y-133211100D02*
X161990500Y-133211100D01*
X143903600Y-152916500D02*
X149965600Y-152916500D01*
X162364500Y-82002100D02*
X162074100Y-81711700D01*
X158862100Y-136339500D02*
X148324000Y-136339500D01*
%TO.N,/D1*%
X167998800Y-118573500D02*
X170470400Y-116101900D01*
X162261800Y-81333600D02*
X162208900Y-81280700D01*
X165158700Y-81981800D02*
X164510500Y-81333600D01*
X170047700Y-100378400D02*
X170047700Y-102300600D01*
X167231800Y-118573500D02*
X167998800Y-118573500D01*
X148256800Y-132721700D02*
X148567600Y-132410900D01*
X170047700Y-102300600D02*
X168758200Y-103590100D01*
X170470400Y-116101900D02*
X170470400Y-113588200D01*
X136342500Y-81501400D02*
X134981000Y-82862900D01*
X134981000Y-85663000D02*
X134981000Y-82862900D01*
X144912900Y-131795900D02*
X145838700Y-132721700D01*
X170470400Y-113588200D02*
X169753500Y-112871300D01*
X161104200Y-81280700D02*
X160883500Y-81501400D01*
X169721700Y-100052400D02*
X170047700Y-100378400D01*
X163495900Y-132410900D02*
X164821400Y-131085400D01*
X164821400Y-131085400D02*
X164821400Y-131059700D01*
X145838700Y-132721700D02*
X148256800Y-132721700D01*
X168758200Y-103590100D02*
X164926200Y-103590100D01*
X160883500Y-81501400D02*
X136342500Y-81501400D01*
X148567600Y-132410900D02*
X163495900Y-132410900D01*
X164510500Y-81333600D02*
X162261800Y-81333600D01*
X167745700Y-100052400D02*
X169721700Y-100052400D01*
X169753500Y-112871300D02*
X167516200Y-112871300D01*
X141029000Y-131795900D02*
X144912900Y-131795900D01*
X162208900Y-81280700D02*
X161104200Y-81280700D01*
%TO.N,/D2*%
X142366100Y-151966200D02*
X142831900Y-151500400D01*
X161035700Y-80783400D02*
X160717800Y-81101300D01*
X172104800Y-129295000D02*
X166749800Y-134650000D01*
X133481000Y-84262900D02*
X133481000Y-85663000D01*
X133195300Y-160434800D02*
X140055800Y-160434800D01*
X142831900Y-151500400D02*
X143041200Y-151291100D01*
X162733300Y-130641500D02*
X142890100Y-130641500D01*
X132853400Y-160092900D02*
X133195300Y-160434800D01*
X135242600Y-81101300D02*
X133481000Y-82862900D01*
X148789700Y-151291100D02*
X148870000Y-151371400D01*
X163806800Y-99502300D02*
X169808100Y-99502300D01*
X160717800Y-81101300D02*
X135242600Y-81101300D01*
X163776000Y-99533100D02*
X163806800Y-99502300D01*
X169808100Y-99502300D02*
X172104800Y-101799000D01*
X163600200Y-80783400D02*
X161035700Y-80783400D01*
X140169500Y-151966200D02*
X142366100Y-151966200D01*
X163610300Y-131518500D02*
X162733300Y-130641500D01*
X172104800Y-101799000D02*
X172104800Y-129295000D01*
X133481000Y-84262900D02*
X133481000Y-82862900D01*
X143041200Y-151291100D02*
X148789700Y-151291100D01*
%TO.N,/D3*%
X141576900Y-150908800D02*
X140299000Y-150908800D01*
X143410800Y-163920700D02*
X130370200Y-163920700D01*
X173305100Y-98486700D02*
X170029600Y-95211200D01*
X131981000Y-85663000D02*
X131981000Y-82862900D01*
X152288300Y-153075700D02*
X152757900Y-153545300D01*
X134077000Y-154269100D02*
X129992000Y-158354100D01*
X162386100Y-96510500D02*
X162386100Y-96798000D01*
X152757900Y-153545300D02*
X162269800Y-153545300D01*
X162269800Y-153545300D02*
X168109900Y-147705200D01*
X170029600Y-95211200D02*
X163685400Y-95211200D01*
X167378800Y-135930600D02*
X173305100Y-130004300D01*
X140299000Y-150908800D02*
X136938700Y-154269100D01*
X131981000Y-82862900D02*
X134142700Y-80701200D01*
X134142700Y-80701200D02*
X159993900Y-80701200D01*
X168109900Y-146132500D02*
X166624000Y-144646600D01*
X159993900Y-80701200D02*
X160159400Y-80535700D01*
X150033900Y-150821300D02*
X141664400Y-150821300D01*
X141664400Y-150821300D02*
X141576900Y-150908800D01*
X173305100Y-130004300D02*
X173305100Y-98486700D01*
X161236000Y-96798000D02*
X162386100Y-96798000D01*
X163685400Y-95211200D02*
X162386100Y-96510500D01*
X166744500Y-142625000D02*
X166744500Y-139013700D01*
X130370200Y-163920700D02*
X130074600Y-164216300D01*
X166744500Y-139013700D02*
X167378800Y-138379400D01*
X144103900Y-164613800D02*
X143410800Y-163920700D01*
X166624000Y-142745500D02*
X166744500Y-142625000D01*
X168109900Y-147705200D02*
X168109900Y-146132500D01*
X167378800Y-138379400D02*
X167378800Y-135930600D01*
X166624000Y-144646600D02*
X166624000Y-142745500D01*
X136938700Y-154269100D02*
X134077000Y-154269100D01*
X152288300Y-153075700D02*
X150033900Y-150821300D01*
%TO.N,/D4*%
X145479200Y-98627300D02*
X156004100Y-98627300D01*
X136226600Y-88463100D02*
X136451300Y-88687800D01*
X145479200Y-99988400D02*
X144844900Y-100622700D01*
X136490400Y-153868900D02*
X133350300Y-153868900D01*
X157545900Y-97085500D02*
X157545900Y-96798000D01*
X133350300Y-153868900D02*
X128724000Y-158495200D01*
X130481000Y-85663000D02*
X130481000Y-88463100D01*
X145352400Y-98500500D02*
X142186000Y-98500500D01*
X145479200Y-98627300D02*
X145352400Y-98500500D01*
X140593700Y-150331300D02*
X148180300Y-150331300D01*
X140028000Y-150331300D02*
X136490400Y-153868900D01*
X130481000Y-88463100D02*
X136226600Y-88463100D01*
X140593700Y-150331300D02*
X140028000Y-150331300D01*
X156004100Y-98627300D02*
X157545900Y-97085500D01*
X158696000Y-96798000D02*
X157545900Y-96798000D01*
X148180300Y-150331300D02*
X148250100Y-150261500D01*
X145479200Y-98627300D02*
X145479200Y-99988400D01*
%TO.N,/D5*%
X129509400Y-161756500D02*
X143821800Y-161756500D01*
X143821800Y-161756500D02*
X145942400Y-159635900D01*
X131692800Y-80151100D02*
X128981000Y-82862900D01*
X145942400Y-156716200D02*
X148770200Y-153888400D01*
X149093900Y-80151100D02*
X131692800Y-80151100D01*
X139201400Y-140018500D02*
X145328300Y-140018500D01*
X145328300Y-140018500D02*
X147116800Y-141807000D01*
X127588100Y-163677800D02*
X129509400Y-161756500D01*
X128981000Y-85663000D02*
X128981000Y-82862900D01*
X145942400Y-159635900D02*
X145942400Y-156716200D01*
%TO.N,/D6*%
X147953900Y-169775300D02*
X147821200Y-169642600D01*
X162890800Y-131645300D02*
X146224800Y-131645300D01*
X146224800Y-131645300D02*
X146148500Y-131721600D01*
X132989600Y-171707400D02*
X131556400Y-170274200D01*
X148428700Y-79480900D02*
X130863000Y-79480900D01*
X136225900Y-169642600D02*
X134161100Y-171707400D01*
X174130200Y-130712600D02*
X174130200Y-98180100D01*
X147821200Y-169642600D02*
X136225900Y-169642600D01*
X131556400Y-170274200D02*
X128411900Y-170274200D01*
X170045200Y-94095100D02*
X160596200Y-94095100D01*
X148838600Y-162499100D02*
X148838600Y-155057500D01*
X134161100Y-171707400D02*
X132989600Y-171707400D01*
X130863000Y-79480900D02*
X127481000Y-82862900D01*
X128411900Y-170274200D02*
X128274800Y-170411300D01*
X141720600Y-131241300D02*
X145668200Y-131241300D01*
X147780600Y-163557100D02*
X148838600Y-162499100D01*
X157468700Y-93858700D02*
X159382600Y-93858700D01*
X154766100Y-96561300D02*
X157468700Y-93858700D01*
X160596200Y-94095100D02*
X160484200Y-94207100D01*
X127481000Y-85663000D02*
X127481000Y-82862900D01*
X174130200Y-98180100D02*
X170045200Y-94095100D01*
X153616000Y-96798000D02*
X154766100Y-96798000D01*
X145668200Y-131241300D02*
X146148500Y-131721600D01*
X168329100Y-136513700D02*
X174130200Y-130712600D01*
X154766100Y-96798000D02*
X154766100Y-96561300D01*
%TO.N,/D7*%
X125981000Y-88463100D02*
X126763600Y-89245700D01*
X165802100Y-95647800D02*
X169880300Y-95647800D01*
X125981000Y-85663000D02*
X125981000Y-88463100D01*
X172905000Y-129838600D02*
X166978700Y-135764900D01*
X169880300Y-95647800D02*
X172905000Y-98672500D01*
X126322900Y-159263300D02*
X132529000Y-153057200D01*
X151076000Y-96798000D02*
X152226100Y-96798000D01*
X167709800Y-147539500D02*
X162104100Y-153145200D01*
X154867200Y-99598700D02*
X160074200Y-99598700D01*
X148243300Y-156169900D02*
X148234700Y-156161300D01*
X160074200Y-99598700D02*
X161724700Y-97948200D01*
X162104100Y-153145200D02*
X153236700Y-153145200D01*
X145982200Y-149645300D02*
X137821300Y-149645300D01*
X152226100Y-97036300D02*
X153226300Y-98036500D01*
X166978700Y-138213700D02*
X166344400Y-138848000D01*
X137821300Y-149645300D02*
X136731100Y-150735500D01*
X164319100Y-97948200D02*
X165046000Y-97221300D01*
X152226100Y-96798000D02*
X152226100Y-97036300D01*
X166223900Y-142579800D02*
X166223900Y-144978000D01*
X161724700Y-97948200D02*
X164319100Y-97948200D01*
X165046000Y-97221300D02*
X165046000Y-96403900D01*
X154729000Y-99736900D02*
X154867200Y-99598700D01*
X132529000Y-153057200D02*
X134409500Y-153057200D01*
X153236700Y-153145200D02*
X149736800Y-149645300D01*
X166978700Y-135764900D02*
X166978700Y-138213700D01*
X138178100Y-89245700D02*
X138332500Y-89091300D01*
X149736800Y-149645300D02*
X145982200Y-149645300D01*
X126763600Y-89245700D02*
X138178100Y-89245700D01*
X148243300Y-159148800D02*
X148243300Y-156169900D01*
X134409500Y-153057200D02*
X134409500Y-153057100D01*
X134409500Y-153057100D02*
X136731100Y-150735500D01*
X172905000Y-98672500D02*
X172905000Y-129838600D01*
X167709800Y-146463900D02*
X167709800Y-147539500D01*
X166344400Y-138848000D02*
X166344400Y-142459300D01*
X166344400Y-142459300D02*
X166223900Y-142579800D01*
X166223900Y-144978000D02*
X167709800Y-146463900D01*
X165046000Y-96403900D02*
X165802100Y-95647800D01*
X153226300Y-98036500D02*
X154729000Y-98036500D01*
%TO.N,/Pin_9*%
X153317700Y-148496600D02*
X151167400Y-146346300D01*
X121758700Y-125858700D02*
X124830600Y-122786800D01*
X145706200Y-122786800D02*
X147390900Y-124471500D01*
X130056700Y-134098900D02*
X125583800Y-134098900D01*
X121758700Y-130273800D02*
X121758700Y-125858700D01*
X125583800Y-134098900D02*
X121758700Y-130273800D01*
X148541000Y-124759000D02*
X147390900Y-124759000D01*
X124830600Y-122786800D02*
X145706200Y-122786800D01*
X147390900Y-124471500D02*
X147390900Y-124759000D01*
X147562300Y-143307400D02*
X139265200Y-143307400D01*
X139265200Y-143307400D02*
X130056700Y-134098900D01*
X150601200Y-146346300D02*
X147562300Y-143307400D01*
X151167400Y-146346300D02*
X150601200Y-146346300D01*
D20*
%TO.N,/GND*%
X141477500Y-156722000D02*
X138806700Y-159392800D01*
X138806700Y-159392800D02*
X132563400Y-159392800D01*
X156156000Y-114754700D02*
X158696000Y-114754700D01*
X145996000Y-101324700D02*
X148536000Y-101324700D01*
X156161000Y-128863000D02*
X158701000Y-128863000D01*
X120596000Y-114754700D02*
X123136000Y-114754700D01*
X121835900Y-101384900D02*
X120596000Y-102624800D01*
X158696000Y-101324700D02*
X161236000Y-101324700D01*
X145996000Y-114754700D02*
X148536000Y-114754700D01*
X148536000Y-101324700D02*
X151076000Y-101324700D01*
X125676000Y-101324700D02*
X123136000Y-101324700D01*
X158696000Y-114754700D02*
X161236000Y-114754700D01*
X158701000Y-128863000D02*
X161241000Y-128863000D01*
X143456000Y-101324700D02*
X145996000Y-101324700D01*
X125681000Y-128863000D02*
X128221000Y-128863000D01*
X119291400Y-108898100D02*
X121212400Y-106977100D01*
X148541000Y-128863000D02*
X151081000Y-128863000D01*
X166316000Y-114754700D02*
X168856000Y-114754700D01*
X125676000Y-114754700D02*
X128216000Y-114754700D01*
X131643600Y-159725800D02*
X131356700Y-160012700D01*
X153616000Y-101324700D02*
X156156000Y-101324700D01*
X148536000Y-114754700D02*
X151076000Y-114754700D01*
X120596000Y-101324700D02*
X120596000Y-100024600D01*
X131643600Y-159725700D02*
X131643600Y-159725800D01*
X161241000Y-128863000D02*
X163781000Y-128863000D01*
X133296000Y-101324700D02*
X134535900Y-101324700D01*
X133301000Y-128863000D02*
X130761000Y-128863000D01*
X140916000Y-114754700D02*
X143456000Y-114754700D01*
X156156000Y-101324700D02*
X158696000Y-101324700D01*
X120596000Y-101974700D02*
X120596000Y-102624800D01*
X140921000Y-128863000D02*
X143461000Y-128863000D01*
X119291400Y-112150000D02*
X119291400Y-108898100D01*
X135841000Y-128863000D02*
X138381000Y-128863000D01*
X151076000Y-114754700D02*
X153616000Y-114754700D01*
X130756000Y-101324700D02*
X133296000Y-101324700D01*
X123136000Y-101324700D02*
X121835900Y-101324700D01*
X128216000Y-114754700D02*
X130756000Y-114754700D01*
X120596000Y-113454600D02*
X119291400Y-112150000D01*
X161236000Y-114754700D02*
X163776000Y-114754700D01*
X138376000Y-101324700D02*
X140916000Y-101324700D01*
X143456000Y-114754700D02*
X145996000Y-114754700D01*
X140916000Y-101324700D02*
X143456000Y-101324700D01*
X135836000Y-114754700D02*
X138376000Y-114754700D01*
X163776000Y-114754700D02*
X166316000Y-114754700D01*
X128216000Y-101324700D02*
X125676000Y-101324700D01*
X135836000Y-101324700D02*
X138376000Y-101324700D01*
X119006300Y-98434900D02*
X119006300Y-91087800D01*
X135836000Y-101324700D02*
X134535900Y-101324700D01*
X128216000Y-101324700D02*
X130756000Y-101324700D01*
X151081000Y-128863000D02*
X153621000Y-128863000D01*
X128221000Y-128863000D02*
X130761000Y-128863000D01*
X143461000Y-128863000D02*
X146001000Y-128863000D01*
X121212400Y-106977100D02*
X121212400Y-103241200D01*
X166316000Y-101324700D02*
X168856000Y-101324700D01*
X120596000Y-100024600D02*
X119006300Y-98434900D01*
X153616000Y-114754700D02*
X156156000Y-114754700D01*
X132563400Y-159392800D02*
X132230500Y-159725700D01*
X120596000Y-114754700D02*
X120596000Y-113454600D01*
X109478000Y-70635000D02*
X121481000Y-82638000D01*
X121835900Y-101324700D02*
X121835900Y-101384900D01*
X119006300Y-91087800D02*
X121481000Y-88613100D01*
X161236000Y-101324700D02*
X163776000Y-101324700D01*
X163776000Y-101324700D02*
X166316000Y-101324700D01*
X123136000Y-114754700D02*
X125676000Y-114754700D01*
X153621000Y-128863000D02*
X156161000Y-128863000D01*
X138381000Y-128863000D02*
X140921000Y-128863000D01*
X133301000Y-128863000D02*
X135841000Y-128863000D01*
X146001000Y-128863000D02*
X148541000Y-128863000D01*
X121212400Y-103241200D02*
X120596000Y-102624800D01*
X120596000Y-101324700D02*
X120596000Y-101974700D01*
X133296000Y-114754700D02*
X135836000Y-114754700D01*
X121481000Y-82638000D02*
X121481000Y-85663000D01*
X138376000Y-114754700D02*
X140916000Y-114754700D01*
X130756000Y-114754700D02*
X133296000Y-114754700D01*
X121481000Y-85663000D02*
X121481000Y-88613100D01*
X132230500Y-159725700D02*
X131643600Y-159725700D01*
D19*
%TO.N,/CE_SST*%
X155281600Y-149232100D02*
X155039400Y-148989900D01*
X163977100Y-133815600D02*
X163977100Y-135146300D01*
X163873300Y-135250100D02*
X163873300Y-138043500D01*
X155737300Y-149232100D02*
X155281600Y-149232100D01*
X163873300Y-138043500D02*
X163943800Y-138114000D01*
X153920900Y-148989900D02*
X153865900Y-149044900D01*
X127683800Y-165039600D02*
X130511200Y-162212200D01*
X164128200Y-125909100D02*
X166175100Y-127956000D01*
X155039400Y-148989900D02*
X153920900Y-148989900D01*
X163943800Y-138114000D02*
X163943800Y-141465100D01*
X163977100Y-135146300D02*
X163873300Y-135250100D01*
X144144300Y-162212200D02*
X147673900Y-158682600D01*
X163781000Y-124759000D02*
X163781000Y-125909100D01*
X126827900Y-165039600D02*
X127683800Y-165039600D01*
X166175100Y-127956000D02*
X166175100Y-131617600D01*
X163943800Y-141465100D02*
X160455100Y-144953800D01*
X130511200Y-162212200D02*
X144144300Y-162212200D01*
X160455100Y-144953800D02*
X160015600Y-144953800D01*
X166175100Y-131617600D02*
X163977100Y-133815600D01*
X160015600Y-144953800D02*
X155737300Y-149232100D01*
X163781000Y-125909100D02*
X164128200Y-125909100D01*
%TO.N,/CE_V62*%
X162391100Y-123968300D02*
X162391100Y-124759000D01*
X162797400Y-123562000D02*
X162391100Y-123968300D01*
X155903000Y-149632200D02*
X160099900Y-145435300D01*
X164273400Y-137877800D02*
X164273400Y-135415800D01*
X161241000Y-124759000D02*
X162391100Y-124759000D01*
X164343900Y-137948300D02*
X164273400Y-137877800D01*
X160099900Y-145435300D02*
X160539400Y-145435300D01*
X166575200Y-125417200D02*
X164720000Y-123562000D01*
X154453300Y-149632200D02*
X155903000Y-149632200D01*
X135096500Y-137724600D02*
X144472700Y-137724600D01*
X164377200Y-135312000D02*
X164377200Y-133981300D01*
X164377200Y-133981300D02*
X166575200Y-131783300D01*
X164720000Y-123562000D02*
X162797400Y-123562000D01*
X166575200Y-131783300D02*
X166575200Y-125417200D01*
X144472700Y-137724600D02*
X148899800Y-142151700D01*
X154361100Y-149540000D02*
X154453300Y-149632200D01*
X160539400Y-145435300D02*
X164343900Y-141630800D01*
X164343900Y-141630800D02*
X164343900Y-137948300D01*
X164273400Y-135415800D02*
X164377200Y-135312000D01*
%TO.N,/Rd_Game*%
X164167800Y-158718700D02*
X153844000Y-158718700D01*
X169945900Y-152940600D02*
X164167800Y-158718700D01*
X150565200Y-103526700D02*
X152451700Y-101640200D01*
X152451700Y-100823900D02*
X154088900Y-99186700D01*
X152451700Y-101640200D02*
X152451700Y-100823900D01*
X157940300Y-99186700D02*
X159934100Y-97192900D01*
X174561700Y-98045800D02*
X174561700Y-132140200D01*
X139997300Y-103526700D02*
X150565200Y-103526700D01*
X159934100Y-93973200D02*
X160525300Y-93382000D01*
X159934100Y-97192900D02*
X159934100Y-93973200D01*
X133296000Y-110228000D02*
X139997300Y-103526700D01*
X169945900Y-136756000D02*
X169945900Y-152940600D01*
X160525300Y-93382000D02*
X163481000Y-93382000D01*
X174561700Y-132140200D02*
X169945900Y-136756000D01*
X163481000Y-93382000D02*
X169897900Y-93382000D01*
X169897900Y-93382000D02*
X174561700Y-98045800D01*
X163481000Y-93382000D02*
X163481000Y-85663000D01*
X154088900Y-99186700D02*
X157940300Y-99186700D01*
%TO.N,/Wr_Game*%
X130756000Y-106486200D02*
X133663300Y-103578900D01*
X169735200Y-94645200D02*
X170029400Y-94645200D01*
X170029400Y-94645200D02*
X173707700Y-98323500D01*
X160956500Y-155424400D02*
X154699900Y-155424400D01*
X173707700Y-98323500D02*
X173707700Y-130167500D01*
X168510000Y-147870900D02*
X160956500Y-155424400D01*
X167144600Y-139179400D02*
X167144600Y-142790700D01*
X165723400Y-82790500D02*
X164981000Y-83532900D01*
X167778900Y-138545100D02*
X167144600Y-139179400D01*
X167024100Y-142911200D02*
X167024100Y-144397800D01*
X164981000Y-83532900D02*
X164981000Y-85663000D01*
X167778900Y-136096300D02*
X167778900Y-138545100D01*
X173707700Y-130167500D02*
X167778900Y-136096300D01*
X165723400Y-81730400D02*
X165723400Y-82790500D01*
X164528500Y-80535500D02*
X165723400Y-81730400D01*
X164341400Y-80535500D02*
X164528500Y-80535500D01*
X130756000Y-110228000D02*
X130756000Y-106486200D01*
X167024100Y-144397800D02*
X168510000Y-145883700D01*
X167144600Y-142790700D02*
X167024100Y-142911200D01*
X168510000Y-145883700D02*
X168510000Y-147870900D01*
%TO.N,/Pin_15*%
X122158800Y-130108100D02*
X122158800Y-126024400D01*
X138881000Y-142357200D02*
X130081100Y-133557300D01*
X143566400Y-123186900D02*
X144850900Y-124471400D01*
X144850900Y-124471400D02*
X144850900Y-124759000D01*
X130081100Y-133557300D02*
X125608000Y-133557300D01*
X150970500Y-145946200D02*
X147381500Y-142357200D01*
X122158800Y-126024400D02*
X124996300Y-123186900D01*
X152323400Y-145946200D02*
X150970500Y-145946200D01*
X154426800Y-148049600D02*
X152323400Y-145946200D01*
X125608000Y-133557300D02*
X122158800Y-130108100D01*
X147381500Y-142357200D02*
X138881000Y-142357200D01*
X124996300Y-123186900D02*
X143566400Y-123186900D01*
X146001000Y-124759000D02*
X144850900Y-124759000D01*
%TO.N,/Rd_Sys*%
X134628100Y-167308800D02*
X128195400Y-167308800D01*
X137547900Y-167708900D02*
X135028200Y-167708900D01*
X137819600Y-167437200D02*
X137547900Y-167708900D01*
X119693300Y-136356300D02*
X116592300Y-133255300D01*
X148761300Y-167666100D02*
X148532400Y-167437200D01*
X122629500Y-158001200D02*
X122629500Y-155939800D01*
X122629500Y-176969800D02*
X126567500Y-180907800D01*
X148532400Y-167437200D02*
X137819600Y-167437200D01*
X116592300Y-133255300D02*
X116592300Y-125039100D01*
X122629500Y-158001200D02*
X122629500Y-176969800D01*
X122629500Y-155939800D02*
X119693300Y-153003600D01*
X122629500Y-158001200D02*
X124199100Y-158001200D01*
X119693300Y-153003600D02*
X119693300Y-136356300D01*
X122556900Y-111924300D02*
X121366000Y-113115200D01*
X127315200Y-111924300D02*
X122556900Y-111924300D01*
X135028200Y-167708900D02*
X134628100Y-167308800D01*
X128195400Y-167308800D02*
X126556200Y-168948000D01*
%TO.N,/Reset*%
X163473200Y-138209200D02*
X163543700Y-138279700D01*
X163568700Y-134988900D02*
X163473200Y-135084400D01*
X163543700Y-138279700D02*
X163543700Y-141299400D01*
X128413100Y-78930800D02*
X156224400Y-78930800D01*
X156224400Y-78930800D02*
X157426000Y-80132400D01*
X159851100Y-124997300D02*
X161509600Y-126655800D01*
X163473200Y-135084400D02*
X163473200Y-138209200D01*
X124481000Y-82862900D02*
X128413100Y-78930800D01*
X163568700Y-133658200D02*
X163568700Y-134988900D01*
X164309100Y-126655800D02*
X165775000Y-128121700D01*
X159697600Y-144493800D02*
X155509400Y-148682000D01*
X158701000Y-124759000D02*
X159851100Y-124759000D01*
X163543700Y-141299400D02*
X160349300Y-144493800D01*
X161509600Y-126655800D02*
X164309100Y-126655800D01*
X160349300Y-144493800D02*
X159697600Y-144493800D01*
X165775000Y-128121700D02*
X165775000Y-131451900D01*
X159851100Y-124759000D02*
X159851100Y-124997300D01*
X165775000Y-131451900D02*
X163568700Y-133658200D01*
X124481000Y-85663000D02*
X124481000Y-82862900D01*
%TO.N,/Switch*%
X118893100Y-177881600D02*
X118893100Y-137327100D01*
X152380500Y-175283700D02*
X144063900Y-183600300D01*
X126069100Y-183600300D02*
X125650400Y-184019000D01*
X125030500Y-184019000D02*
X118893100Y-177881600D01*
X153182900Y-175283700D02*
X152380500Y-175283700D01*
X113235100Y-131669100D02*
X110882600Y-131669100D01*
X118893100Y-137327100D02*
X113235100Y-131669100D01*
X125650400Y-184019000D02*
X125030500Y-184019000D01*
X144063900Y-183600300D02*
X126069100Y-183600300D01*
%TO.N,/Wr_Sys*%
X152813100Y-174316100D02*
X152675600Y-174316100D01*
X125248000Y-183457700D02*
X119761600Y-177971300D01*
X152675600Y-174316100D02*
X143791500Y-183200200D01*
X143791500Y-183200200D02*
X125505500Y-183200200D01*
X125505500Y-183200200D02*
X125248000Y-183457700D01*
X119761600Y-177971300D02*
X119761600Y-157838000D01*
%TO.N,/Button*%
X124286100Y-110515500D02*
X125193500Y-111422900D01*
X127038700Y-111422900D02*
X127087400Y-111374200D01*
X127087400Y-111374200D02*
X127543100Y-111374200D01*
X170346000Y-136921700D02*
X170346000Y-153118900D01*
X127591800Y-111422900D02*
X133759400Y-111422900D01*
X158209400Y-165255500D02*
X153267000Y-165255500D01*
X138214200Y-106188100D02*
X170173100Y-106188100D01*
X127543100Y-111374200D02*
X127591800Y-111422900D01*
X134566000Y-110616300D02*
X134566000Y-109836300D01*
X123136000Y-110228000D02*
X124286100Y-110228000D01*
X170346000Y-153118900D02*
X158209400Y-165255500D01*
X125193500Y-111422900D02*
X127038700Y-111422900D01*
X124286100Y-110228000D02*
X124286100Y-110515500D01*
X175002000Y-135570600D02*
X171697100Y-135570600D01*
X171697100Y-135570600D02*
X170346000Y-136921700D01*
X133759400Y-111422900D02*
X134566000Y-110616300D01*
X134566000Y-109836300D02*
X138214200Y-106188100D01*
X170173100Y-106188100D02*
X171554600Y-107569600D01*
%TO.N,/Pin_21*%
X152654100Y-154261000D02*
X150509400Y-152116300D01*
X156284500Y-154261000D02*
X152654100Y-154261000D01*
X144886200Y-152116300D02*
X144611100Y-151841200D01*
X150509400Y-152116300D02*
X144886200Y-152116300D01*
%TO.N,/Pin_22*%
X164777300Y-134147000D02*
X164777300Y-135477700D01*
X157550900Y-125084500D02*
X157550900Y-124259600D01*
X164885700Y-123161900D02*
X166975300Y-125251500D01*
X160368900Y-145835400D02*
X156585000Y-149619300D01*
X158648600Y-123161900D02*
X164885700Y-123161900D01*
X152382500Y-125866400D02*
X152838200Y-125866400D01*
X166975300Y-125251500D02*
X166975300Y-131949000D01*
X140921000Y-124759000D02*
X142071100Y-124759000D01*
X142956000Y-125931400D02*
X152317500Y-125931400D01*
X152903200Y-125931400D02*
X156704000Y-125931400D01*
X142071100Y-125046500D02*
X142956000Y-125931400D01*
X142071100Y-124759000D02*
X142071100Y-125046500D01*
X152317500Y-125931400D02*
X152382500Y-125866400D01*
X166975300Y-131949000D02*
X164777300Y-134147000D01*
X164744000Y-137782600D02*
X164744000Y-141796500D01*
X160705100Y-145835400D02*
X160368900Y-145835400D01*
X156585000Y-149619300D02*
X156585000Y-149728200D01*
X164673500Y-137712100D02*
X164744000Y-137782600D01*
X164777300Y-135477700D02*
X164673500Y-135581500D01*
X156704000Y-125931400D02*
X157550900Y-125084500D01*
X164673500Y-135581500D02*
X164673500Y-137712100D01*
X164744000Y-141796500D02*
X160705100Y-145835400D01*
X152838200Y-125866400D02*
X152903200Y-125931400D01*
X157550900Y-124259600D02*
X158648600Y-123161900D01*
%TO.N,/A15_Game*%
X160870800Y-146235500D02*
X160746700Y-146235500D01*
X165778400Y-137716500D02*
X165144100Y-138350800D01*
X137981000Y-85663000D02*
X137981000Y-88463100D01*
X170870500Y-129185400D02*
X165778400Y-134277500D01*
X139646000Y-89600500D02*
X139646000Y-90629700D01*
X161639300Y-112259500D02*
X169707600Y-112259500D01*
X155559400Y-106790200D02*
X158997200Y-110228000D01*
X159846100Y-110466300D02*
X161639300Y-112259500D01*
X165144100Y-141962200D02*
X160870800Y-146235500D01*
X160746700Y-146235500D02*
X157289900Y-149692300D01*
X169707600Y-112259500D02*
X170870500Y-113422400D01*
X159271100Y-110228000D02*
X159846100Y-110228000D01*
X138508600Y-88463100D02*
X139646000Y-89600500D01*
X159846100Y-110228000D02*
X159846100Y-110466300D01*
X159271100Y-110228000D02*
X158997200Y-110228000D01*
X137981000Y-88463100D02*
X138508600Y-88463100D01*
X165144100Y-138350800D02*
X165144100Y-141962200D01*
X139646000Y-106790200D02*
X155559400Y-106790200D01*
X158696000Y-110228000D02*
X158997200Y-110228000D01*
X170870500Y-113422400D02*
X170870500Y-129185400D01*
X165778400Y-134277500D02*
X165778400Y-137716500D01*
%TO.N,/Pin_24*%
X155127000Y-147542600D02*
X144372400Y-136788000D01*
X137230900Y-124471500D02*
X137230900Y-124759000D01*
X125180500Y-123592100D02*
X136351500Y-123592100D01*
X130754100Y-133098700D02*
X125755500Y-133098700D01*
X155127000Y-148074100D02*
X155127000Y-147542600D01*
X134443400Y-136788000D02*
X130754100Y-133098700D01*
X138381000Y-124759000D02*
X137230900Y-124759000D01*
X122593900Y-129937100D02*
X122593900Y-126178700D01*
X122593900Y-126178700D02*
X125180500Y-123592100D01*
X125755500Y-133098700D02*
X122593900Y-129937100D01*
X144372400Y-136788000D02*
X134443400Y-136788000D01*
X136351500Y-123592100D02*
X137230900Y-124471500D01*
D20*
%TO.N,/VCC*%
X154699600Y-69168200D02*
X167981000Y-82449600D01*
X150727100Y-146896400D02*
X150161200Y-146896400D01*
X154259000Y-150428300D02*
X150727100Y-146896400D01*
X179579500Y-82449600D02*
X180680600Y-81348500D01*
X158601000Y-150242400D02*
X158415100Y-150428300D01*
X158415100Y-150428300D02*
X154259000Y-150428300D01*
X148103100Y-144838300D02*
X124896500Y-144838300D01*
X167981000Y-82449600D02*
X179579500Y-82449600D01*
X161789600Y-147053800D02*
X158601000Y-150242400D01*
X167981000Y-82899600D02*
X167981000Y-82449600D01*
X150161200Y-146896400D02*
X148103100Y-144838300D01*
X166571300Y-147053800D02*
X161789600Y-147053800D01*
X108831000Y-69168200D02*
X154699600Y-69168200D01*
X167981000Y-85663000D02*
X167981000Y-82899600D01*
X107230100Y-70769100D02*
X108831000Y-69168200D01*
D19*
%TO.N,/A0*%
X125982300Y-175004900D02*
X128713800Y-177736400D01*
X160481000Y-85663000D02*
X160481000Y-88463100D01*
X126985100Y-167310400D02*
X125843400Y-166168800D01*
X148536000Y-96798000D02*
X149520400Y-96798000D01*
X137334500Y-167112000D02*
X137528700Y-166917800D01*
X125843400Y-163970000D02*
X133519900Y-156293500D01*
X160481000Y-88463100D02*
X154428700Y-94515400D01*
X127386800Y-166908700D02*
X126985100Y-167310400D01*
X149520400Y-96149500D02*
X149520400Y-96798000D01*
X154428700Y-94515400D02*
X151154500Y-94515400D01*
X125843400Y-166168800D02*
X125843400Y-163970000D01*
X133519900Y-156293500D02*
X136357500Y-156293500D01*
X137528700Y-166917800D02*
X160267000Y-166917800D01*
X125982300Y-168313200D02*
X125982300Y-175004900D01*
X126985100Y-167310400D02*
X125982300Y-168313200D01*
X151154500Y-94515400D02*
X149520400Y-96149500D01*
X137131200Y-166908700D02*
X127386800Y-166908700D01*
X137334500Y-167112000D02*
X137131200Y-166908700D01*
%TO.N,/A1*%
X153792800Y-93651300D02*
X153654600Y-93651300D01*
X153654600Y-93651300D02*
X153254500Y-94051400D01*
X165812700Y-145305000D02*
X165812700Y-142425200D01*
X148890500Y-95647900D02*
X148039600Y-95647900D01*
X167309700Y-147373800D02*
X167309700Y-146802000D01*
X150643600Y-94447600D02*
X150639200Y-94447600D01*
X150975900Y-94115300D02*
X150643600Y-94447600D01*
X165812700Y-142425200D02*
X165944300Y-142293600D01*
X158981000Y-88463100D02*
X158493800Y-88950300D01*
X161267000Y-152578800D02*
X161267000Y-152595100D01*
X169854600Y-98983000D02*
X162036800Y-98983000D01*
X150472300Y-94515400D02*
X150249300Y-94738400D01*
X172504900Y-129672900D02*
X172504900Y-101633300D01*
X150571400Y-94515400D02*
X150472300Y-94515400D01*
X151717600Y-94115300D02*
X150975900Y-94115300D01*
X151781500Y-94051400D02*
X151717600Y-94115300D01*
X130511100Y-165087100D02*
X133155200Y-165087100D01*
X148039600Y-95647900D02*
X147146100Y-96541400D01*
X149836400Y-149046900D02*
X153368300Y-152578800D01*
X149800000Y-94738400D02*
X148890500Y-95647900D01*
X166578600Y-138048000D02*
X166578600Y-135599200D01*
X162104700Y-152578800D02*
X167309700Y-147373800D01*
X135050500Y-150158600D02*
X136162200Y-149046900D01*
X150639200Y-94447600D02*
X150571400Y-94515400D01*
X153368300Y-152578800D02*
X161267000Y-152578800D01*
X158493800Y-88950300D02*
X158741700Y-89198300D01*
X166578600Y-135599200D02*
X172504900Y-129672900D01*
X130169400Y-165428800D02*
X130511100Y-165087100D01*
X167309700Y-146802000D02*
X165812700Y-145305000D01*
X161267000Y-152578800D02*
X162104700Y-152578800D01*
X165944300Y-138682300D02*
X166578600Y-138048000D01*
X158981000Y-85663000D02*
X158981000Y-88463100D01*
X158493800Y-88950300D02*
X153792800Y-93651300D01*
X153254500Y-94051400D02*
X151781500Y-94051400D01*
X150249300Y-94738400D02*
X149800000Y-94738400D01*
X147146100Y-96541400D02*
X147146100Y-96798000D01*
X172504900Y-101633300D02*
X169854600Y-98983000D01*
X145996000Y-96798000D02*
X147146100Y-96798000D01*
X136162200Y-149046900D02*
X149836400Y-149046900D01*
X162036800Y-98983000D02*
X161513000Y-99506800D01*
X165944300Y-142293600D02*
X165944300Y-138682300D01*
%TO.N,/A2*%
X120093400Y-136190600D02*
X120093400Y-152003300D01*
X138322400Y-168262300D02*
X161098600Y-168262300D01*
X117692500Y-105655700D02*
X117088600Y-106259600D01*
X126869400Y-178291000D02*
X124349700Y-175771300D01*
X124649500Y-160380800D02*
X125418500Y-159611800D01*
X156522500Y-89421600D02*
X154550900Y-89421600D01*
X130476400Y-179481700D02*
X131185800Y-179481700D01*
X137897500Y-168137200D02*
X134790500Y-168137200D01*
X134362200Y-167708900D02*
X129582400Y-167708900D01*
X161098600Y-168262300D02*
X161895500Y-167465400D01*
X134790500Y-168137200D02*
X134362200Y-167708900D01*
X117088600Y-118090900D02*
X117142500Y-118144800D01*
X133038100Y-151727300D02*
X133822500Y-151727300D01*
X120093400Y-152003300D02*
X124796100Y-156706000D01*
X143456000Y-96798000D02*
X144606100Y-96798000D01*
X125418500Y-159346900D02*
X133038100Y-151727300D01*
X129285700Y-178291000D02*
X126869400Y-178291000D01*
X126397800Y-170893500D02*
X126397800Y-173662800D01*
X125418500Y-159611800D02*
X125418500Y-159346900D01*
X128699500Y-92589700D02*
X126984100Y-94305100D01*
X157481000Y-88463100D02*
X156522500Y-89421600D01*
X138047400Y-167987300D02*
X137897500Y-168137200D01*
X117088600Y-106259600D02*
X117088600Y-118090900D01*
X129285700Y-178291000D02*
X130476400Y-179481700D01*
X129285700Y-176550700D02*
X129285700Y-178291000D01*
X124649500Y-174954500D02*
X124649500Y-160380800D01*
X124349700Y-175771300D02*
X124349700Y-175254300D01*
X129582400Y-167708900D02*
X126397800Y-170893500D01*
X124349700Y-175254300D02*
X124649500Y-174954500D01*
X144606100Y-96531800D02*
X144606100Y-96798000D01*
X142153300Y-92589700D02*
X128699500Y-92589700D01*
X117142500Y-133239700D02*
X120093400Y-136190600D01*
X138047400Y-167987300D02*
X138322400Y-168262300D01*
X126397800Y-173662800D02*
X129285700Y-176550700D01*
X148724700Y-95247800D02*
X145890100Y-95247800D01*
X145890100Y-95247800D02*
X144606100Y-96531800D01*
X117142500Y-118144800D02*
X117142500Y-133239700D01*
X154550900Y-89421600D02*
X148724700Y-95247800D01*
X142327200Y-92415800D02*
X142153300Y-92589700D01*
X157481000Y-85663000D02*
X157481000Y-88463100D01*
%TO.N,/A3*%
X148959200Y-94447600D02*
X154385400Y-89021400D01*
X140916000Y-96798000D02*
X142066100Y-96798000D01*
X118742900Y-117482000D02*
X118742900Y-131520600D01*
X121979700Y-100363500D02*
X123838900Y-98504300D01*
X126797900Y-171059200D02*
X126797900Y-172990800D01*
X118742900Y-131520600D02*
X121693800Y-134471500D01*
X126797900Y-172990800D02*
X133241800Y-179434700D01*
X120501900Y-106680100D02*
X118689000Y-108493000D01*
X121693800Y-134471500D02*
X121693800Y-144203800D01*
X142066100Y-96798000D02*
X142066100Y-96510400D01*
X118689000Y-117428100D02*
X118742900Y-117482000D01*
X134112200Y-168265800D02*
X134508800Y-168662400D01*
X129591300Y-168265800D02*
X126797900Y-171059200D01*
X123838900Y-98504300D02*
X135905700Y-98504300D01*
X134112200Y-168265800D02*
X129591300Y-168265800D01*
X161510700Y-168662400D02*
X162788700Y-167384400D01*
X155422700Y-89021400D02*
X155981000Y-88463100D01*
X142066100Y-96510400D02*
X142928600Y-95647900D01*
X126228200Y-148738200D02*
X134253100Y-148738200D01*
X134508800Y-168662400D02*
X161510700Y-168662400D01*
X121693800Y-144203800D02*
X126228200Y-148738200D01*
X154385400Y-89021400D02*
X155422700Y-89021400D01*
X142928600Y-95647900D02*
X144375100Y-95647900D01*
X144375100Y-95647900D02*
X145575400Y-94447600D01*
X145575400Y-94447600D02*
X148959200Y-94447600D01*
X155981000Y-85663000D02*
X155981000Y-88463100D01*
X118689000Y-108493000D02*
X118689000Y-117428100D01*
%TO.N,/A4*%
X140948100Y-95115600D02*
X139526100Y-96537600D01*
X154481000Y-88463100D02*
X153812000Y-88463100D01*
X162284800Y-169625200D02*
X164226000Y-167684000D01*
X154481000Y-85663000D02*
X154481000Y-88463100D01*
X137301400Y-170248000D02*
X137378800Y-170325400D01*
X148227600Y-94047500D02*
X145375600Y-94047500D01*
X148242900Y-170325400D02*
X148943100Y-169625200D01*
X137378800Y-170325400D02*
X148242900Y-170325400D01*
X148943100Y-169625200D02*
X162284800Y-169625200D01*
X145375600Y-94047500D02*
X144307500Y-95115600D01*
X139526100Y-96537600D02*
X139526100Y-96798000D01*
X138376000Y-96798000D02*
X139526100Y-96798000D01*
X144307500Y-95115600D02*
X140948100Y-95115600D01*
X153812000Y-88463100D02*
X148227600Y-94047500D01*
%TO.N,/A5*%
X125822100Y-99284500D02*
X135282200Y-99284500D01*
X120893600Y-135368700D02*
X120893600Y-148257300D01*
X135865400Y-169225100D02*
X133933200Y-171157300D01*
X152981000Y-88463100D02*
X147796700Y-93647400D01*
X147796700Y-93647400D02*
X145044100Y-93647400D01*
X143976000Y-94715500D02*
X138810200Y-94715500D01*
X124682900Y-152046600D02*
X129386200Y-152046600D01*
X161730800Y-169225100D02*
X135865400Y-169225100D01*
X136986100Y-96539600D02*
X136986100Y-96798000D01*
X120893600Y-148257300D02*
X124682900Y-152046600D01*
X163824900Y-167131000D02*
X161730800Y-169225100D01*
X131671300Y-168895400D02*
X129739600Y-168895400D01*
X117888800Y-117759500D02*
X117942700Y-117813400D01*
X152981000Y-85663000D02*
X152981000Y-88463100D01*
X117888800Y-107350600D02*
X117888800Y-117759500D01*
X164926200Y-167484900D02*
X164572300Y-167131000D01*
X145044100Y-93647400D02*
X143976000Y-94715500D01*
X120512300Y-104328700D02*
X120512300Y-104727100D01*
X120512300Y-104727100D02*
X117888800Y-107350600D01*
X138810200Y-94715500D02*
X136986100Y-96539600D01*
X117942700Y-117813400D02*
X117942700Y-132417800D01*
X133933200Y-171157300D02*
X131671300Y-168895400D01*
X164572300Y-167131000D02*
X163824900Y-167131000D01*
X117942700Y-132417800D02*
X120893600Y-135368700D01*
X135836000Y-96798000D02*
X136986100Y-96798000D01*
%TO.N,/A6*%
X131347400Y-173146000D02*
X129040100Y-170838700D01*
X134446100Y-96560900D02*
X134446100Y-96798000D01*
X148034500Y-172789000D02*
X149998000Y-170825500D01*
X144878400Y-93247300D02*
X143810300Y-94315400D01*
X136955900Y-173146000D02*
X131347400Y-173146000D01*
X151481000Y-88463100D02*
X146696800Y-93247300D01*
X163708900Y-170825500D02*
X166272400Y-168262000D01*
X146696800Y-93247300D02*
X144878400Y-93247300D01*
X137312900Y-172789000D02*
X148034500Y-172789000D01*
X137312900Y-172789000D02*
X136955900Y-173146000D01*
X136691600Y-94315400D02*
X134446100Y-96560900D01*
X151481000Y-85663000D02*
X151481000Y-88463100D01*
X143810300Y-94315400D02*
X136691600Y-94315400D01*
X133296000Y-96798000D02*
X134446100Y-96798000D01*
X149998000Y-170825500D02*
X163708900Y-170825500D01*
%TO.N,/A7*%
X166340200Y-167492500D02*
X166264100Y-167492500D01*
X123052100Y-175706700D02*
X129926900Y-182581500D01*
X125941500Y-156401200D02*
X126308800Y-156401200D01*
X119837100Y-104836500D02*
X117488700Y-107184900D01*
X134488100Y-93915300D02*
X131906100Y-96497300D01*
X120242600Y-103578900D02*
X119837100Y-103984400D01*
X124749300Y-158280500D02*
X123052100Y-159977700D01*
X143644600Y-93915300D02*
X134488100Y-93915300D01*
X131906100Y-96497300D02*
X131906100Y-96798000D01*
X125941500Y-156401200D02*
X124749300Y-157593400D01*
X129926900Y-182581500D02*
X138701500Y-182581500D01*
X117542600Y-117979100D02*
X117542600Y-133074000D01*
X166264100Y-167492500D02*
X163331200Y-170425400D01*
X149981000Y-88463100D02*
X149096800Y-88463100D01*
X130756000Y-96798000D02*
X131906100Y-96798000D01*
X120493500Y-136024900D02*
X120493500Y-150953200D01*
X163331200Y-170425400D02*
X149832300Y-170425400D01*
X123052100Y-159977700D02*
X123052100Y-175706700D01*
X148161100Y-172096600D02*
X138247500Y-172096600D01*
X117488700Y-117925200D02*
X117542600Y-117979100D01*
X124749300Y-157593400D02*
X124749300Y-158280500D01*
X149832300Y-170425400D02*
X148161100Y-172096600D01*
X120493500Y-150953200D02*
X125941500Y-156401200D01*
X149981000Y-85663000D02*
X149981000Y-88463100D01*
X117488700Y-107184900D02*
X117488700Y-117925200D01*
X117542600Y-133074000D02*
X120493500Y-136024900D01*
X149096800Y-88463100D02*
X143644600Y-93915300D01*
X119837100Y-103984400D02*
X119837100Y-104836500D01*
%TO.N,/A8*%
X141056200Y-182497400D02*
X140590200Y-182031400D01*
X126099500Y-157098900D02*
X125149400Y-158049000D01*
X148481000Y-88463100D02*
X143428900Y-93515200D01*
X167711100Y-168733100D02*
X164418300Y-172025900D01*
X129366100Y-96536000D02*
X129366100Y-96798000D01*
X123452200Y-175497100D02*
X127987400Y-180032300D01*
X133803000Y-180032300D02*
X133803000Y-178692600D01*
X164418300Y-172025900D02*
X154293600Y-172025900D01*
X132386900Y-93515200D02*
X129366100Y-96536000D01*
X127376600Y-150221200D02*
X127488800Y-150109000D01*
X135802100Y-182031400D02*
X133803000Y-180032300D01*
X127987400Y-180032300D02*
X133803000Y-180032300D01*
X127488800Y-150109000D02*
X132319800Y-150109000D01*
X125149400Y-158049000D02*
X125149400Y-158446200D01*
X140590200Y-182031400D02*
X135802100Y-182031400D01*
X141152500Y-182593700D02*
X141056200Y-182497400D01*
X143428900Y-93515200D02*
X132386900Y-93515200D01*
X123452200Y-160143400D02*
X123452200Y-175497100D01*
X143725800Y-182593700D02*
X141152500Y-182593700D01*
X125149400Y-158446200D02*
X123452200Y-160143400D01*
X128216000Y-96798000D02*
X129366100Y-96798000D01*
X132319800Y-150109000D02*
X132601200Y-150390400D01*
X133803000Y-178692600D02*
X127348000Y-172237600D01*
X126389400Y-157098900D02*
X126099500Y-157098900D01*
X166434500Y-164959300D02*
X167711100Y-166235900D01*
X154293600Y-172025900D02*
X143725800Y-182593700D01*
X132601200Y-150887100D02*
X126389400Y-157098900D01*
X167711100Y-166235900D02*
X167711100Y-168733100D01*
X132601200Y-150390400D02*
X132601200Y-150887100D01*
X148481000Y-85663000D02*
X148481000Y-88463100D01*
%TO.N,/A9*%
X167311000Y-168567400D02*
X164252600Y-171625800D01*
X125676000Y-96798000D02*
X126826100Y-96798000D01*
X130265300Y-93115100D02*
X126826100Y-96554300D01*
X146981000Y-85663000D02*
X146981000Y-88463100D01*
X146981000Y-88540200D02*
X142406100Y-93115100D01*
X143802800Y-181950900D02*
X142166200Y-181950900D01*
X142166200Y-181950900D02*
X141492600Y-181277300D01*
X154127900Y-171625800D02*
X143802800Y-181950900D01*
X141492600Y-181277300D02*
X137377900Y-181277300D01*
X142406100Y-93115100D02*
X130265300Y-93115100D01*
X165871300Y-165189200D02*
X167311000Y-166628900D01*
X167311000Y-166628900D02*
X167311000Y-168567400D01*
X165871300Y-164507100D02*
X165871300Y-165189200D01*
X146981000Y-88463100D02*
X146981000Y-88540200D01*
X137377900Y-181277300D02*
X127735200Y-171634600D01*
X164252600Y-171625800D02*
X154127900Y-171625800D01*
X126826100Y-96554300D02*
X126826100Y-96798000D01*
%TO.N,/A10*%
X118288900Y-107750700D02*
X118288900Y-117593800D01*
X121293700Y-135203000D02*
X121293700Y-148091600D01*
X138840100Y-166250800D02*
X138840100Y-166342400D01*
X126773400Y-166250800D02*
X126396400Y-165873800D01*
X123136000Y-96798000D02*
X123562600Y-96798000D01*
X121293700Y-148091600D02*
X124500500Y-151298400D01*
X118342800Y-117647700D02*
X118342800Y-132252100D01*
X128321800Y-92189500D02*
X124228100Y-96283200D01*
X119716900Y-106322700D02*
X118288900Y-107750700D01*
X118342800Y-132252100D02*
X121293700Y-135203000D01*
X138840100Y-166250800D02*
X126773400Y-166250800D01*
X126277700Y-164101500D02*
X126277700Y-165755100D01*
X145481000Y-85663000D02*
X145481000Y-88463100D01*
X131847000Y-158744600D02*
X131634600Y-158744600D01*
X131411900Y-151298400D02*
X132051100Y-150659200D01*
X124500500Y-151298400D02*
X131411900Y-151298400D01*
X123969600Y-96798000D02*
X124228100Y-96798000D01*
X141754600Y-92189500D02*
X128321800Y-92189500D01*
X124228100Y-96283200D02*
X124228100Y-96798000D01*
X123969600Y-96798000D02*
X123562600Y-96798000D01*
X145481000Y-88463100D02*
X141754600Y-92189500D01*
X126277700Y-165755100D02*
X126396400Y-165873800D01*
X161550100Y-166250800D02*
X138840100Y-166250800D01*
X166440400Y-161360500D02*
X161550100Y-166250800D01*
X118288900Y-117593800D02*
X118342800Y-117647700D01*
X131634600Y-158744600D02*
X126277700Y-164101500D01*
%TO.N,/A11*%
X144661300Y-179749300D02*
X136840200Y-179749300D01*
X131285500Y-132852300D02*
X130731700Y-132298500D01*
X121722900Y-96798000D02*
X121722900Y-96582900D01*
X153962100Y-171225700D02*
X145438500Y-179749300D01*
X143981000Y-88787200D02*
X143981000Y-88463100D01*
X165097900Y-165229200D02*
X166910900Y-167042200D01*
X120596000Y-96798000D02*
X121722900Y-96798000D01*
X123144100Y-129741500D02*
X123144100Y-129692800D01*
X124002300Y-160159100D02*
X124002300Y-160380100D01*
X145438500Y-179749300D02*
X144661300Y-179749300D01*
X164086900Y-171225700D02*
X153962100Y-171225700D01*
X115142100Y-128741400D02*
X115142100Y-106783100D01*
X126916500Y-91389300D02*
X141378900Y-91389300D01*
X126037400Y-157949900D02*
X126037400Y-158124000D01*
X115142100Y-106783100D02*
X118693900Y-103231300D01*
X143981000Y-85663000D02*
X143981000Y-88463100D01*
X166910900Y-167042200D02*
X166910900Y-168401700D01*
X125701100Y-132298500D02*
X123144100Y-129741500D01*
X166910900Y-168401700D02*
X164086900Y-171225700D01*
X126037400Y-158124000D02*
X124002300Y-160159100D01*
X121722900Y-96582900D02*
X126916500Y-91389300D01*
X130731700Y-132298500D02*
X125701100Y-132298500D01*
X136840200Y-179749300D02*
X128281300Y-171190400D01*
X141378900Y-91389300D02*
X143981000Y-88787200D01*
%TO.N,/A12*%
X142867800Y-89122400D02*
X142481000Y-88735600D01*
X142481000Y-88735600D02*
X142481000Y-85663000D01*
X168856000Y-105284200D02*
X150903300Y-105284200D01*
X137579500Y-184150400D02*
X144385600Y-184150400D01*
X150903300Y-105284200D02*
X149702700Y-104083600D01*
X148441600Y-181819100D02*
X146716900Y-181819100D01*
X155799500Y-174461200D02*
X148441600Y-181819100D01*
X144385600Y-184150400D02*
X146716900Y-181819100D01*
X162331500Y-174461200D02*
X155799500Y-174461200D01*
%TO.N,/A13*%
X140981000Y-82862900D02*
X164872900Y-82862900D01*
X148967300Y-185229900D02*
X154604000Y-185229900D01*
X140981000Y-85663000D02*
X140981000Y-82862900D01*
X154604000Y-185229900D02*
X170003500Y-169830400D01*
X164872900Y-82862900D02*
X165037500Y-82698300D01*
X170003500Y-169830400D02*
X170003500Y-159398600D01*
%TO.N,/A14*%
X140038600Y-82305300D02*
X161889700Y-82305300D01*
X139481000Y-85663000D02*
X139481000Y-82862900D01*
X168161100Y-159827100D02*
X168161100Y-169409600D01*
X166427900Y-158093900D02*
X168161100Y-159827100D01*
X139481000Y-82862900D02*
X140038600Y-82305300D01*
X168161100Y-169409600D02*
X157218900Y-180351800D01*
X157218900Y-180351800D02*
X152061600Y-180351800D01*
%TO.N,/A15_Sys*%
X162386100Y-110228000D02*
X162386100Y-110515600D01*
X168961400Y-157375300D02*
X169601200Y-156735500D01*
X156100600Y-182601700D02*
X168961400Y-169740900D01*
X168961400Y-169740900D02*
X168961400Y-157375300D01*
X161236000Y-110228000D02*
X162386100Y-110228000D01*
X170761600Y-137142700D02*
X170761600Y-155575100D01*
X151145600Y-182601700D02*
X156100600Y-182601700D01*
X162386100Y-110515600D02*
X163248600Y-111378100D01*
X171595300Y-136521300D02*
X171383000Y-136521300D01*
X163248600Y-111378100D02*
X169618400Y-111378100D01*
X171383000Y-136521300D02*
X170761600Y-137142700D01*
X169618400Y-111378100D02*
X170582900Y-112342600D01*
X170761600Y-155575100D02*
X169601200Y-156735500D01*
%TO.N,/Pin_44*%
X120558400Y-125361600D02*
X124503800Y-121416200D01*
X120558400Y-130770900D02*
X120558400Y-125361600D01*
X124503800Y-121416200D02*
X135841000Y-121416200D01*
X152504300Y-156374600D02*
X149446300Y-153316600D01*
X145699600Y-153316600D02*
X145544400Y-153471800D01*
X165168000Y-156374600D02*
X152504300Y-156374600D01*
X145220800Y-143989800D02*
X133777300Y-143989800D01*
X149446300Y-153316600D02*
X145699600Y-153316600D01*
X133777300Y-143989800D02*
X120558400Y-130770900D01*
X166007800Y-155534800D02*
X165168000Y-156374600D01*
%TO.N,/A13_SST*%
X157306100Y-110228000D02*
X157306100Y-110532700D01*
X170042300Y-113791500D02*
X170042300Y-115704800D01*
X159946400Y-113173000D02*
X164030600Y-113173000D01*
X164030600Y-113173000D02*
X164279000Y-113421400D01*
X166432800Y-154089900D02*
X169395800Y-151126900D01*
X157306100Y-110532700D02*
X159946400Y-113173000D01*
X129992400Y-163520600D02*
X128328300Y-165184700D01*
X147535400Y-164107200D02*
X146948800Y-163520600D01*
X153283800Y-158501000D02*
X153283800Y-158851500D01*
X153283800Y-158851500D02*
X148028100Y-164107200D01*
X166432800Y-154089900D02*
X166560100Y-154217200D01*
X170042300Y-115704800D02*
X169464900Y-116282200D01*
X166560100Y-155760700D02*
X164260000Y-158060800D01*
X169672200Y-113421400D02*
X170042300Y-113791500D01*
X164260000Y-158060800D02*
X153724000Y-158060800D01*
X156156000Y-110228000D02*
X157306100Y-110228000D01*
X148028100Y-164107200D02*
X147535400Y-164107200D01*
X164279000Y-113421400D02*
X169672200Y-113421400D01*
X146948800Y-163520600D02*
X129992400Y-163520600D01*
X169395800Y-151126900D02*
X169395800Y-140518400D01*
X166560100Y-154217200D02*
X166560100Y-155760700D01*
X153724000Y-158060800D02*
X153283800Y-158501000D01*
%TO.N,/A14_SST*%
X153801600Y-155974500D02*
X163537100Y-155974500D01*
X168197400Y-140251500D02*
X168197400Y-142303700D01*
X124899800Y-175482100D02*
X125277600Y-175104300D01*
X167434400Y-143066700D02*
X167434400Y-144213800D01*
X133912700Y-155334800D02*
X140542200Y-155334800D01*
X168910100Y-150601500D02*
X166423300Y-153088300D01*
X125277600Y-175104300D02*
X125277600Y-163969900D01*
X150343500Y-152516400D02*
X153801600Y-155974500D01*
X125277600Y-163969900D02*
X133912700Y-155334800D01*
X140542200Y-155334800D02*
X143360600Y-152516400D01*
X168910100Y-145689500D02*
X168910100Y-150601500D01*
X143360600Y-152516400D02*
X150343500Y-152516400D01*
X168197400Y-142303700D02*
X167434400Y-143066700D01*
X167434400Y-144213800D02*
X168910100Y-145689500D01*
X163537100Y-155974500D02*
X166423300Y-153088300D01*
%TO.N,/A15_SST*%
X165544200Y-138516600D02*
X165544200Y-142127900D01*
X165487700Y-167701500D02*
X165487700Y-167214500D01*
X135609800Y-170824500D02*
X148309700Y-170824500D01*
X165487700Y-167214500D02*
X164487300Y-166214100D01*
X148309700Y-170824500D02*
X149108900Y-170025300D01*
X171287000Y-110501200D02*
X171287000Y-129334700D01*
X171287000Y-129334700D02*
X166178500Y-134443200D01*
X169131600Y-108345800D02*
X171287000Y-110501200D01*
X132532000Y-172580400D02*
X133853900Y-172580400D01*
X166178500Y-134443200D02*
X166178500Y-137882300D01*
X157909900Y-108345800D02*
X169131600Y-108345800D01*
X166178500Y-137882300D02*
X165544200Y-138516600D01*
X163163900Y-170025300D02*
X165487700Y-167701500D01*
X160061600Y-147610500D02*
X160061600Y-147762800D01*
X149108900Y-170025300D02*
X163163900Y-170025300D01*
X164487300Y-166214100D02*
X164317000Y-166214100D01*
X165544200Y-142127900D02*
X160061600Y-147610500D01*
X133853900Y-172580400D02*
X135609800Y-170824500D01*
%TO.N,/A16_SST*%
X163250700Y-119801300D02*
X156299800Y-119801300D01*
X132734800Y-184369000D02*
X133066300Y-184700500D01*
X168561300Y-156022800D02*
X169791800Y-154792300D01*
X149924700Y-180901900D02*
X157234600Y-180901900D01*
X169080100Y-125630800D02*
X163250700Y-119801400D01*
X156299800Y-119801300D02*
X152245900Y-115747400D01*
X168561300Y-169575200D02*
X168561300Y-156022800D01*
X157234600Y-180901900D02*
X168561300Y-169575200D01*
X146126100Y-184700500D02*
X149924700Y-180901900D01*
X133066300Y-184700500D02*
X146126100Y-184700500D01*
X163250700Y-119801400D02*
X163250700Y-119801300D01*
%TO.N,/A12_V62*%
X162515100Y-120225500D02*
X147287400Y-120225500D01*
X122801600Y-144533700D02*
X126190300Y-147922400D01*
X119748300Y-125005200D02*
X119748300Y-131092400D01*
X147287400Y-120225500D02*
X143526200Y-116464300D01*
X167375400Y-125085800D02*
X162515100Y-120225500D01*
X122801600Y-134145700D02*
X122801600Y-144533700D01*
X143526200Y-116464300D02*
X143427800Y-116365900D01*
X119748300Y-131092400D02*
X122801600Y-134145700D01*
X167375400Y-132114700D02*
X167375400Y-125085800D01*
X165228300Y-137488700D02*
X165228300Y-134261800D01*
X165228300Y-134261800D02*
X167375400Y-132114700D01*
X128387600Y-116365900D02*
X119748300Y-125005200D01*
X143427800Y-116365900D02*
X128387600Y-116365900D01*
%TO.N,/A13_V62*%
X144606100Y-110515500D02*
X146029400Y-111938800D01*
X150167800Y-148246700D02*
X149602000Y-148246700D01*
X160305200Y-151778600D02*
X153699700Y-151778600D01*
X162988600Y-149733400D02*
X162988600Y-149936500D01*
X127483600Y-147434300D02*
X126110000Y-146060700D01*
X164768900Y-147953100D02*
X162988600Y-149733400D01*
X149602000Y-148246700D02*
X148789600Y-147434300D01*
X143456000Y-110228000D02*
X144606100Y-110228000D01*
X153699700Y-151778600D02*
X150167800Y-148246700D01*
X144606100Y-110228000D02*
X144606100Y-110515500D01*
X161280200Y-151644900D02*
X160438900Y-151644900D01*
X146029400Y-111938800D02*
X152427400Y-111938800D01*
X152427400Y-111938800D02*
X153933200Y-113444600D01*
X148789600Y-147434300D02*
X127483600Y-147434300D01*
X165267000Y-147953100D02*
X164768900Y-147953100D01*
X162988600Y-149936500D02*
X161280200Y-151644900D01*
X160438900Y-151644900D02*
X160305200Y-151778600D01*
%TO.N,/A14_V62*%
X160604600Y-152045000D02*
X160470900Y-152178700D01*
X161455000Y-152045000D02*
X160604600Y-152045000D01*
X142971700Y-109034900D02*
X151583600Y-109034900D01*
X150002100Y-148646800D02*
X135784500Y-148646800D01*
X162068300Y-133911200D02*
X162068300Y-139839600D01*
X151583600Y-109034900D02*
X152226200Y-109677500D01*
X142066100Y-109940500D02*
X142971700Y-109034900D01*
X135784500Y-148646800D02*
X134722400Y-149708900D01*
X164028100Y-149471900D02*
X161455000Y-152045000D01*
X134722400Y-149708900D02*
X127686900Y-149708900D01*
X125935100Y-149652000D02*
X124855500Y-150731600D01*
X153534000Y-152178700D02*
X150002100Y-148646800D01*
X152226200Y-110496100D02*
X155303300Y-113573200D01*
X142066100Y-110228000D02*
X142066100Y-109940500D01*
X140916000Y-110228000D02*
X142066100Y-110228000D01*
X127686900Y-149708900D02*
X127630000Y-149652000D01*
X127630000Y-149652000D02*
X125935100Y-149652000D01*
X160470900Y-152178700D02*
X153534000Y-152178700D01*
X161940200Y-113573200D02*
X162391100Y-114024100D01*
X162218300Y-133761200D02*
X162068300Y-133911200D01*
X152226200Y-109677500D02*
X152226200Y-110496100D01*
X162068300Y-139839600D02*
X162593400Y-140364700D01*
X155303300Y-113573200D02*
X161940200Y-113573200D01*
%TO.N,/A15_V62*%
X163143600Y-140855600D02*
X162782800Y-141216400D01*
X163063500Y-138365300D02*
X163143600Y-138445400D01*
X164343300Y-127255800D02*
X165374900Y-128287400D01*
X139526100Y-110515500D02*
X142386400Y-113375800D01*
X138887400Y-130432200D02*
X140801200Y-132346000D01*
X165374900Y-131286200D02*
X163449800Y-133211300D01*
X126433100Y-130432200D02*
X138887400Y-130432200D01*
X163168600Y-134823200D02*
X163063500Y-134928300D01*
X143426200Y-132346000D02*
X144352000Y-133271800D01*
X144352000Y-133271800D02*
X161364000Y-133271800D01*
X161824800Y-132811000D02*
X162768300Y-132811000D01*
X165374900Y-128287400D02*
X165374900Y-131286200D01*
X163449800Y-133211300D02*
X163168600Y-133211300D01*
X163168600Y-133211300D02*
X163168600Y-134823200D01*
X161364000Y-133271800D02*
X161824800Y-132811000D01*
X152610300Y-126416500D02*
X153449600Y-127255800D01*
X163143600Y-138445400D02*
X163143600Y-140855600D01*
X153449600Y-127255800D02*
X164343300Y-127255800D01*
X163063500Y-134928300D02*
X163063500Y-138365300D01*
X138376000Y-110228000D02*
X139526100Y-110228000D01*
X139526100Y-110228000D02*
X139526100Y-110515500D01*
X162768300Y-132811000D02*
X163168600Y-133211300D01*
X140801200Y-132346000D02*
X143426200Y-132346000D01*
X142386400Y-113375800D02*
X149790900Y-113375800D01*
%TO.N,/A16_V62*%
X120158300Y-125195900D02*
X128437000Y-116917200D01*
X127054600Y-147834400D02*
X134137700Y-147834400D01*
X129318500Y-147034200D02*
X127794900Y-145510600D01*
X134544600Y-149308800D02*
X127852600Y-149308800D01*
X160139500Y-151378500D02*
X153865400Y-151378500D01*
X120158300Y-130936600D02*
X120158300Y-125195900D01*
X135836000Y-110228000D02*
X135836000Y-112060300D01*
X124599100Y-145591100D02*
X124192400Y-145184400D01*
X134829200Y-148525900D02*
X134829200Y-149024200D01*
X153865400Y-151378500D02*
X150333500Y-147846600D01*
X160273200Y-151244800D02*
X160139500Y-151378500D01*
X127795700Y-149251900D02*
X124701900Y-149251900D01*
X134829200Y-149024200D02*
X134544600Y-149308800D01*
X125526000Y-145591100D02*
X124599100Y-145591100D01*
X125526000Y-146305800D02*
X127054600Y-147834400D01*
X128437000Y-116917200D02*
X134463700Y-116917200D01*
X124192400Y-145184400D02*
X124192400Y-134970700D01*
X150333500Y-147846600D02*
X149767700Y-147846600D01*
X134137700Y-147834400D02*
X134829200Y-148525900D01*
X148955300Y-147034200D02*
X129318500Y-147034200D01*
X124701900Y-149251900D02*
X123967000Y-149986800D01*
X127794900Y-145510600D02*
X125606500Y-145510600D01*
X162267000Y-149879900D02*
X160902100Y-151244800D01*
X125606500Y-145510600D02*
X125526000Y-145591100D01*
X135836000Y-112060300D02*
X134463700Y-113432600D01*
X160902100Y-151244800D02*
X160273200Y-151244800D01*
X127852600Y-149308800D02*
X127795700Y-149251900D01*
X124192400Y-134970700D02*
X120158300Y-130936600D01*
X149767700Y-147846600D02*
X148955300Y-147034200D01*
X125526000Y-145591100D02*
X125526000Y-146305800D01*
%TO.N,/WE*%
X152470900Y-124471500D02*
X149986000Y-121986600D01*
X152470900Y-124759000D02*
X152470900Y-124471500D01*
X120958500Y-125527300D02*
X120958500Y-130605200D01*
X153621000Y-124759000D02*
X152470900Y-124759000D01*
X149986000Y-121986600D02*
X124499200Y-121986600D01*
X120958500Y-130605200D02*
X125602600Y-135249300D01*
X125602600Y-135249300D02*
X126207500Y-135249300D01*
X124499200Y-121986600D02*
X120958500Y-125527300D01*
%TO.N,/OE_V62*%
X147828200Y-122386700D02*
X124664900Y-122386700D01*
X149930900Y-124489400D02*
X147828200Y-122386700D01*
X125418100Y-134499000D02*
X129112800Y-134499000D01*
X149930900Y-124759000D02*
X149930900Y-124489400D01*
X121358600Y-125693000D02*
X121358600Y-130439500D01*
X154031100Y-150978400D02*
X150499200Y-147446500D01*
X161074500Y-150201000D02*
X160751200Y-150201000D01*
X149933400Y-147446500D02*
X148398300Y-145911400D01*
X160751200Y-150201000D02*
X159973800Y-150978400D01*
X148398300Y-145911400D02*
X132798100Y-145911400D01*
X124664900Y-122386700D02*
X121358600Y-125693000D01*
X159973800Y-150978400D02*
X154031100Y-150978400D01*
X129112800Y-134499000D02*
X132657700Y-138043900D01*
X150499200Y-147446500D02*
X149933400Y-147446500D01*
X121358600Y-130439500D02*
X125418100Y-134499000D01*
X151081000Y-124759000D02*
X149930900Y-124759000D01*
%TO.N,/Pin_61*%
X137089000Y-127684400D02*
X147875800Y-127684400D01*
X133301000Y-124759000D02*
X134451100Y-124759000D01*
X134451100Y-125046500D02*
X137089000Y-127684400D01*
X134451100Y-124759000D02*
X134451100Y-125046500D01*
%TO.N,/Pin_62*%
X129610900Y-124759000D02*
X129610900Y-125046500D01*
X124527200Y-129336300D02*
X126289000Y-131098100D01*
X127590400Y-127067000D02*
X125813400Y-127067000D01*
X130761000Y-124759000D02*
X129610900Y-124759000D01*
X138987500Y-131098100D02*
X140635500Y-132746100D01*
X125813400Y-127067000D02*
X124527200Y-128353200D01*
X143260500Y-132746100D02*
X144382200Y-133867800D01*
X144948000Y-133867800D02*
X155267000Y-144186800D01*
X144382200Y-133867800D02*
X144948000Y-133867800D01*
X126289000Y-131098100D02*
X138987500Y-131098100D01*
X124527200Y-128353200D02*
X124527200Y-129336300D01*
X140635500Y-132746100D02*
X143260500Y-132746100D01*
X129610900Y-125046500D02*
X127590400Y-127067000D01*
%TO.N,/Pin_63*%
X138821900Y-131498300D02*
X140469800Y-133146200D01*
X128221000Y-124759000D02*
X127070900Y-124759000D01*
X154131700Y-144183100D02*
X154267000Y-144183100D01*
X140469800Y-133146200D02*
X143094800Y-133146200D01*
X126069600Y-131498300D02*
X138821900Y-131498300D01*
X124094300Y-129523000D02*
X126069600Y-131498300D01*
X143094800Y-133146200D02*
X154131700Y-144183100D01*
X127070900Y-125108200D02*
X124094300Y-128084800D01*
X127070900Y-124759000D02*
X127070900Y-125108200D01*
X124094300Y-128084800D02*
X124094300Y-129523000D01*
%TO.N,/Pin_64*%
X125681000Y-125909100D02*
X123694200Y-127895900D01*
X123694200Y-127895900D02*
X123694200Y-129715000D01*
X125681000Y-124759000D02*
X125681000Y-125909100D01*
X123694200Y-129715000D02*
X125877600Y-131898400D01*
X138656200Y-131898400D02*
X140304100Y-133546300D01*
X142703200Y-133546300D02*
X153267000Y-144110100D01*
X140304100Y-133546300D02*
X142703200Y-133546300D01*
X125877600Y-131898400D02*
X138656200Y-131898400D01*
%TO.N,/Clk*%
X175565300Y-135794500D02*
X175565300Y-97547400D01*
X166481000Y-85663000D02*
X166481000Y-88463100D01*
X171161800Y-137312000D02*
X171402400Y-137071400D01*
X171402400Y-137071400D02*
X174288400Y-137071400D01*
X147450200Y-185100600D02*
X147969700Y-184581100D01*
X126687900Y-185100600D02*
X147450200Y-185100600D01*
X175565300Y-97547400D02*
X166481000Y-88463100D01*
X174288400Y-137071400D02*
X175565300Y-135794500D01*
X154687000Y-184581100D02*
X169439300Y-169828800D01*
X147969700Y-184581100D02*
X154687000Y-184581100D01*
X169439300Y-158183600D02*
X171161800Y-156461100D01*
X126017300Y-184430000D02*
X126687900Y-185100600D01*
X171161800Y-156461100D02*
X171161800Y-137312000D01*
X169439300Y-169828800D02*
X169439300Y-158183600D01*
%TO.N,/CS*%
X119293200Y-153358300D02*
X121359400Y-155424500D01*
X116042200Y-106528100D02*
X116042200Y-133910400D01*
X149084100Y-97949200D02*
X119868600Y-97949200D01*
X121359400Y-155424500D02*
X121359400Y-176486100D01*
X118711600Y-104029300D02*
X118541000Y-104029300D01*
X121359400Y-176486100D02*
X127213500Y-182340200D01*
X161981000Y-88463100D02*
X155392700Y-95051400D01*
X119293200Y-137161400D02*
X119293200Y-153358300D01*
X119868600Y-97949200D02*
X119706400Y-98111400D01*
X149920500Y-96315300D02*
X149920500Y-97112800D01*
X118541000Y-104029300D02*
X116042200Y-106528100D01*
X151184400Y-95051400D02*
X149920500Y-96315300D01*
X155392700Y-95051400D02*
X151184400Y-95051400D01*
X116042200Y-133910400D02*
X119293200Y-137161400D01*
X161981000Y-85663000D02*
X161981000Y-88463100D01*
X149920500Y-97112800D02*
X149084100Y-97949200D01*
%TO.N,/Audio*%
X123800100Y-88463100D02*
X122981000Y-88463100D01*
X110332400Y-131906500D02*
X115218800Y-136792900D01*
X118493000Y-137492800D02*
X118493000Y-178091100D01*
X126209200Y-185807300D02*
X164892700Y-185807300D01*
X164892700Y-185807300D02*
X165470100Y-185229900D01*
X117793100Y-136792900D02*
X118493000Y-137492800D01*
X118217700Y-96753900D02*
X110332400Y-104639200D01*
X124983500Y-89646500D02*
X123800100Y-88463100D01*
X122981000Y-85663000D02*
X122981000Y-88463100D01*
X110332400Y-104639200D02*
X110332400Y-131906500D01*
X115218800Y-136792900D02*
X117793100Y-136792900D01*
X118493000Y-178091100D02*
X126209200Y-185807300D01*
%TD*%
M02*
