%TF.GenerationSoftware,KiCad,Pcbnew,(6.0.2)*%
%TF.CreationDate,2022-11-18T22:18:21-06:00*%
%TF.ProjectId,REF1395A Optimized,52454631-3339-4354-9120-4f7074696d69,rev?*%
%TF.SameCoordinates,Original*%
%TF.FileFunction,Legend,Bot*%
%TF.FilePolarity,Positive*%
%FSLAX46Y46*%
G04 Gerber Fmt 4.6, Leading zero omitted, Abs format (unit mm)*
G04 Created by KiCad (PCBNEW (6.0.2)) date 2022-11-18 22:18:21*
%MOMM*%
%LPD*%
G01*
G04 APERTURE LIST*
%ADD10C,0.150000*%
%ADD11C,0.101600*%
%ADD12C,0.120000*%
G04 APERTURE END LIST*
D10*
X140684916Y-108490475D02*
X140684916Y-108014285D01*
X140399202Y-108585713D02*
X141399202Y-108252380D01*
X140399202Y-107919047D01*
X140399202Y-107061904D02*
X140399202Y-107633332D01*
X140399202Y-107347618D02*
X141399202Y-107347618D01*
X141256344Y-107442856D01*
X141161106Y-107538094D01*
X141113487Y-107633332D01*
X141065868Y-106204761D02*
X140399202Y-106204761D01*
X141446821Y-106442856D02*
X140732535Y-106680951D01*
X140732535Y-106061904D01*
X140494440Y-105680951D02*
X140446821Y-105633332D01*
X140399202Y-105680951D01*
X140446821Y-105728571D01*
X140494440Y-105680951D01*
X140399202Y-105680951D01*
X141065868Y-105299999D02*
X140399202Y-105061904D01*
X141065868Y-104823809D01*
X141399202Y-104014285D02*
X141399202Y-104204761D01*
X141351583Y-104299999D01*
X141303963Y-104347618D01*
X141161106Y-104442856D01*
X140970630Y-104490475D01*
X140589678Y-104490475D01*
X140494440Y-104442856D01*
X140446821Y-104395237D01*
X140399202Y-104299999D01*
X140399202Y-104109523D01*
X140446821Y-104014285D01*
X140494440Y-103966666D01*
X140589678Y-103919047D01*
X140827773Y-103919047D01*
X140923011Y-103966666D01*
X140970630Y-104014285D01*
X141018249Y-104109523D01*
X141018249Y-104299999D01*
X140970630Y-104395237D01*
X140923011Y-104442856D01*
X140827773Y-104490475D01*
X141303963Y-103538094D02*
X141351583Y-103490475D01*
X141399202Y-103395237D01*
X141399202Y-103157142D01*
X141351583Y-103061904D01*
X141303963Y-103014285D01*
X141208725Y-102966666D01*
X141113487Y-102966666D01*
X140970630Y-103014285D01*
X140399202Y-103585713D01*
X140399202Y-102966666D01*
X150592520Y-94804095D02*
X151592520Y-94804095D01*
X151592520Y-94566000D01*
X151544901Y-94423142D01*
X151449662Y-94327904D01*
X151354424Y-94280285D01*
X151163948Y-94232666D01*
X151021091Y-94232666D01*
X150830615Y-94280285D01*
X150735377Y-94327904D01*
X150640139Y-94423142D01*
X150592520Y-94566000D01*
X150592520Y-94804095D01*
X151592520Y-93899333D02*
X151592520Y-93232666D01*
X150592520Y-93661238D01*
X150840704Y-108490476D02*
X150840704Y-108014286D01*
X150554990Y-108585714D02*
X151554990Y-108252381D01*
X150554990Y-107919047D01*
X150554990Y-107061905D02*
X150554990Y-107633333D01*
X150554990Y-107347619D02*
X151554990Y-107347619D01*
X151412132Y-107442857D01*
X151316894Y-107538095D01*
X151269275Y-107633333D01*
X151554990Y-106157143D02*
X151554990Y-106633333D01*
X151078799Y-106680952D01*
X151126418Y-106633333D01*
X151174037Y-106538095D01*
X151174037Y-106300000D01*
X151126418Y-106204762D01*
X151078799Y-106157143D01*
X150983561Y-106109524D01*
X150745466Y-106109524D01*
X150650228Y-106157143D01*
X150602609Y-106204762D01*
X150554990Y-106300000D01*
X150554990Y-106538095D01*
X150602609Y-106633333D01*
X150650228Y-106680952D01*
X150650228Y-105680952D02*
X150602609Y-105633333D01*
X150554990Y-105680952D01*
X150602609Y-105728571D01*
X150650228Y-105680952D01*
X150554990Y-105680952D01*
X150602609Y-105252381D02*
X150554990Y-105157143D01*
X150554990Y-104966667D01*
X150602609Y-104871428D01*
X150697847Y-104823809D01*
X150745466Y-104823809D01*
X150840704Y-104871428D01*
X150888323Y-104966667D01*
X150888323Y-105109524D01*
X150935942Y-105204762D01*
X151031180Y-105252381D01*
X151078799Y-105252381D01*
X151174037Y-105204762D01*
X151221656Y-105109524D01*
X151221656Y-104966667D01*
X151174037Y-104871428D01*
X150602609Y-104442857D02*
X150554990Y-104347619D01*
X150554990Y-104157143D01*
X150602609Y-104061905D01*
X150697847Y-104014286D01*
X150745466Y-104014286D01*
X150840704Y-104061905D01*
X150888323Y-104157143D01*
X150888323Y-104300000D01*
X150935942Y-104395238D01*
X151031180Y-104442857D01*
X151078799Y-104442857D01*
X151174037Y-104395238D01*
X151221656Y-104300000D01*
X151221656Y-104157143D01*
X151174037Y-104061905D01*
X151221656Y-103728571D02*
X151221656Y-103347619D01*
X151554990Y-103585714D02*
X150697847Y-103585714D01*
X150602609Y-103538095D01*
X150554990Y-103442857D01*
X150554990Y-103347619D01*
X145553888Y-122712619D02*
X146553888Y-122712619D01*
X146553888Y-122331666D01*
X146506269Y-122236428D01*
X146458649Y-122188809D01*
X146363411Y-122141190D01*
X146220554Y-122141190D01*
X146125316Y-122188809D01*
X146077697Y-122236428D01*
X146030078Y-122331666D01*
X146030078Y-122712619D01*
X145553888Y-121712619D02*
X146220554Y-121712619D01*
X146553888Y-121712619D02*
X146506269Y-121760238D01*
X146458649Y-121712619D01*
X146506269Y-121665000D01*
X146553888Y-121712619D01*
X146458649Y-121712619D01*
X146220554Y-121236428D02*
X145553888Y-121236428D01*
X146125316Y-121236428D02*
X146172935Y-121188809D01*
X146220554Y-121093571D01*
X146220554Y-120950714D01*
X146172935Y-120855476D01*
X146077697Y-120807857D01*
X145553888Y-120807857D01*
X145553888Y-119045952D02*
X145553888Y-119617381D01*
X145553888Y-119331666D02*
X146553888Y-119331666D01*
X146411030Y-119426905D01*
X146315792Y-119522143D01*
X146268173Y-119617381D01*
X146553888Y-118141190D02*
X146553888Y-118617381D01*
X146077697Y-118665000D01*
X146125316Y-118617381D01*
X146172935Y-118522143D01*
X146172935Y-118284047D01*
X146125316Y-118188809D01*
X146077697Y-118141190D01*
X145982459Y-118093571D01*
X145744364Y-118093571D01*
X145649126Y-118141190D01*
X145601507Y-118188809D01*
X145553888Y-118284047D01*
X145553888Y-118522143D01*
X145601507Y-118617381D01*
X145649126Y-118665000D01*
X160721148Y-94804095D02*
X161721148Y-94804095D01*
X161721148Y-94566000D01*
X161673529Y-94423142D01*
X161578290Y-94327904D01*
X161483052Y-94280285D01*
X161292576Y-94232666D01*
X161149719Y-94232666D01*
X160959243Y-94280285D01*
X160864005Y-94327904D01*
X160768767Y-94423142D01*
X160721148Y-94566000D01*
X160721148Y-94804095D01*
X161721148Y-93899333D02*
X161721148Y-93280285D01*
X161340195Y-93613619D01*
X161340195Y-93470761D01*
X161292576Y-93375523D01*
X161244957Y-93327904D01*
X161149719Y-93280285D01*
X160911624Y-93280285D01*
X160816386Y-93327904D01*
X160768767Y-93375523D01*
X160721148Y-93470761D01*
X160721148Y-93756476D01*
X160768767Y-93851714D01*
X160816386Y-93899333D01*
X145813920Y-94851713D02*
X145813920Y-94375523D01*
X145528206Y-94946951D02*
X146528206Y-94613618D01*
X145528206Y-94280285D01*
X145528206Y-93423142D02*
X145528206Y-93994570D01*
X145528206Y-93708856D02*
X146528206Y-93708856D01*
X146385348Y-93804094D01*
X146290110Y-93899332D01*
X146242491Y-93994570D01*
X148301757Y-108490476D02*
X148301757Y-108014286D01*
X148016043Y-108585714D02*
X149016043Y-108252381D01*
X148016043Y-107919047D01*
X148016043Y-107061905D02*
X148016043Y-107633333D01*
X148016043Y-107347619D02*
X149016043Y-107347619D01*
X148873185Y-107442857D01*
X148777947Y-107538095D01*
X148730328Y-107633333D01*
X149016043Y-106204762D02*
X149016043Y-106395238D01*
X148968424Y-106490476D01*
X148920804Y-106538095D01*
X148777947Y-106633333D01*
X148587471Y-106680952D01*
X148206519Y-106680952D01*
X148111281Y-106633333D01*
X148063662Y-106585714D01*
X148016043Y-106490476D01*
X148016043Y-106300000D01*
X148063662Y-106204762D01*
X148111281Y-106157143D01*
X148206519Y-106109524D01*
X148444614Y-106109524D01*
X148539852Y-106157143D01*
X148587471Y-106204762D01*
X148635090Y-106300000D01*
X148635090Y-106490476D01*
X148587471Y-106585714D01*
X148539852Y-106633333D01*
X148444614Y-106680952D01*
X148111281Y-105680952D02*
X148063662Y-105633333D01*
X148016043Y-105680952D01*
X148063662Y-105728571D01*
X148111281Y-105680952D01*
X148016043Y-105680952D01*
X148063662Y-105252381D02*
X148016043Y-105157143D01*
X148016043Y-104966667D01*
X148063662Y-104871428D01*
X148158900Y-104823809D01*
X148206519Y-104823809D01*
X148301757Y-104871428D01*
X148349376Y-104966667D01*
X148349376Y-105109524D01*
X148396995Y-105204762D01*
X148492233Y-105252381D01*
X148539852Y-105252381D01*
X148635090Y-105204762D01*
X148682709Y-105109524D01*
X148682709Y-104966667D01*
X148635090Y-104871428D01*
X148063662Y-104442857D02*
X148016043Y-104347619D01*
X148016043Y-104157143D01*
X148063662Y-104061905D01*
X148158900Y-104014286D01*
X148206519Y-104014286D01*
X148301757Y-104061905D01*
X148349376Y-104157143D01*
X148349376Y-104300000D01*
X148396995Y-104395238D01*
X148492233Y-104442857D01*
X148539852Y-104442857D01*
X148635090Y-104395238D01*
X148682709Y-104300000D01*
X148682709Y-104157143D01*
X148635090Y-104061905D01*
X148682709Y-103728571D02*
X148682709Y-103347619D01*
X149016043Y-103585714D02*
X148158900Y-103585714D01*
X148063662Y-103538095D01*
X148016043Y-103442857D01*
X148016043Y-103347619D01*
X135607022Y-108490475D02*
X135607022Y-108014285D01*
X135321308Y-108585713D02*
X136321308Y-108252380D01*
X135321308Y-107919047D01*
X135321308Y-107061904D02*
X135321308Y-107633332D01*
X135321308Y-107347618D02*
X136321308Y-107347618D01*
X136178450Y-107442856D01*
X136083212Y-107538094D01*
X136035593Y-107633332D01*
X136321308Y-106204761D02*
X136321308Y-106395237D01*
X136273689Y-106490475D01*
X136226069Y-106538094D01*
X136083212Y-106633332D01*
X135892736Y-106680951D01*
X135511784Y-106680951D01*
X135416546Y-106633332D01*
X135368927Y-106585713D01*
X135321308Y-106490475D01*
X135321308Y-106299999D01*
X135368927Y-106204761D01*
X135416546Y-106157142D01*
X135511784Y-106109523D01*
X135749879Y-106109523D01*
X135845117Y-106157142D01*
X135892736Y-106204761D01*
X135940355Y-106299999D01*
X135940355Y-106490475D01*
X135892736Y-106585713D01*
X135845117Y-106633332D01*
X135749879Y-106680951D01*
X135416546Y-105680951D02*
X135368927Y-105633332D01*
X135321308Y-105680951D01*
X135368927Y-105728571D01*
X135416546Y-105680951D01*
X135321308Y-105680951D01*
X135987974Y-105299999D02*
X135321308Y-105061904D01*
X135987974Y-104823809D01*
X136321308Y-104014285D02*
X136321308Y-104204761D01*
X136273689Y-104299999D01*
X136226069Y-104347618D01*
X136083212Y-104442856D01*
X135892736Y-104490475D01*
X135511784Y-104490475D01*
X135416546Y-104442856D01*
X135368927Y-104395237D01*
X135321308Y-104299999D01*
X135321308Y-104109523D01*
X135368927Y-104014285D01*
X135416546Y-103966666D01*
X135511784Y-103919047D01*
X135749879Y-103919047D01*
X135845117Y-103966666D01*
X135892736Y-104014285D01*
X135940355Y-104109523D01*
X135940355Y-104299999D01*
X135892736Y-104395237D01*
X135845117Y-104442856D01*
X135749879Y-104490475D01*
X136226069Y-103538094D02*
X136273689Y-103490475D01*
X136321308Y-103395237D01*
X136321308Y-103157142D01*
X136273689Y-103061904D01*
X136226069Y-103014285D01*
X136130831Y-102966666D01*
X136035593Y-102966666D01*
X135892736Y-103014285D01*
X135321308Y-103585713D01*
X135321308Y-102966666D01*
X127770157Y-122712619D02*
X128770157Y-122712619D01*
X128770157Y-122331666D01*
X128722538Y-122236428D01*
X128674918Y-122188809D01*
X128579680Y-122141190D01*
X128436823Y-122141190D01*
X128341585Y-122188809D01*
X128293966Y-122236428D01*
X128246347Y-122331666D01*
X128246347Y-122712619D01*
X127770157Y-121712619D02*
X128436823Y-121712619D01*
X128770157Y-121712619D02*
X128722538Y-121760238D01*
X128674918Y-121712619D01*
X128722538Y-121665000D01*
X128770157Y-121712619D01*
X128674918Y-121712619D01*
X128436823Y-121236428D02*
X127770157Y-121236428D01*
X128341585Y-121236428D02*
X128389204Y-121188809D01*
X128436823Y-121093571D01*
X128436823Y-120950714D01*
X128389204Y-120855476D01*
X128293966Y-120807857D01*
X127770157Y-120807857D01*
X128770157Y-119141190D02*
X128770157Y-119331666D01*
X128722538Y-119426905D01*
X128674918Y-119474524D01*
X128532061Y-119569762D01*
X128341585Y-119617381D01*
X127960633Y-119617381D01*
X127865395Y-119569762D01*
X127817776Y-119522143D01*
X127770157Y-119426905D01*
X127770157Y-119236428D01*
X127817776Y-119141190D01*
X127865395Y-119093571D01*
X127960633Y-119045952D01*
X128198728Y-119045952D01*
X128293966Y-119093571D01*
X128341585Y-119141190D01*
X128389204Y-119236428D01*
X128389204Y-119426905D01*
X128341585Y-119522143D01*
X128293966Y-119569762D01*
X128198728Y-119617381D01*
X128770157Y-118712619D02*
X128770157Y-118093571D01*
X128389204Y-118426905D01*
X128389204Y-118284047D01*
X128341585Y-118188809D01*
X128293966Y-118141190D01*
X128198728Y-118093571D01*
X127960633Y-118093571D01*
X127865395Y-118141190D01*
X127817776Y-118188809D01*
X127770157Y-118284047D01*
X127770157Y-118569762D01*
X127817776Y-118665000D01*
X127865395Y-118712619D01*
X135685292Y-94851713D02*
X135685292Y-94375523D01*
X135399578Y-94946951D02*
X136399578Y-94613618D01*
X135399578Y-94280285D01*
X136399578Y-93470761D02*
X136399578Y-93946951D01*
X135923387Y-93994570D01*
X135971006Y-93946951D01*
X136018625Y-93851713D01*
X136018625Y-93613618D01*
X135971006Y-93518380D01*
X135923387Y-93470761D01*
X135828149Y-93423142D01*
X135590054Y-93423142D01*
X135494816Y-93470761D01*
X135447197Y-93518380D01*
X135399578Y-93613618D01*
X135399578Y-93851713D01*
X135447197Y-93946951D01*
X135494816Y-93994570D01*
X168317619Y-94804095D02*
X169317619Y-94804095D01*
X169317619Y-94566000D01*
X169270000Y-94423142D01*
X169174761Y-94327904D01*
X169079523Y-94280285D01*
X168889047Y-94232666D01*
X168746190Y-94232666D01*
X168555714Y-94280285D01*
X168460476Y-94327904D01*
X168365238Y-94423142D01*
X168317619Y-94566000D01*
X168317619Y-94804095D01*
X169317619Y-93613619D02*
X169317619Y-93518380D01*
X169270000Y-93423142D01*
X169222380Y-93375523D01*
X169127142Y-93327904D01*
X168936666Y-93280285D01*
X168698571Y-93280285D01*
X168508095Y-93327904D01*
X168412857Y-93375523D01*
X168365238Y-93423142D01*
X168317619Y-93518380D01*
X168317619Y-93613619D01*
X168365238Y-93708857D01*
X168412857Y-93756476D01*
X168508095Y-93804095D01*
X168698571Y-93851714D01*
X168936666Y-93851714D01*
X169127142Y-93804095D01*
X169222380Y-93756476D01*
X169270000Y-93708857D01*
X169317619Y-93613619D01*
X138217449Y-94851713D02*
X138217449Y-94375523D01*
X137931735Y-94946951D02*
X138931735Y-94613618D01*
X137931735Y-94280285D01*
X138598401Y-93518380D02*
X137931735Y-93518380D01*
X138979354Y-93756475D02*
X138265068Y-93994570D01*
X138265068Y-93375523D01*
X130310690Y-122712619D02*
X131310690Y-122712619D01*
X131310690Y-122331666D01*
X131263071Y-122236428D01*
X131215451Y-122188809D01*
X131120213Y-122141190D01*
X130977356Y-122141190D01*
X130882118Y-122188809D01*
X130834499Y-122236428D01*
X130786880Y-122331666D01*
X130786880Y-122712619D01*
X130310690Y-121712619D02*
X130977356Y-121712619D01*
X131310690Y-121712619D02*
X131263071Y-121760238D01*
X131215451Y-121712619D01*
X131263071Y-121665000D01*
X131310690Y-121712619D01*
X131215451Y-121712619D01*
X130977356Y-121236428D02*
X130310690Y-121236428D01*
X130882118Y-121236428D02*
X130929737Y-121188809D01*
X130977356Y-121093571D01*
X130977356Y-120950714D01*
X130929737Y-120855476D01*
X130834499Y-120807857D01*
X130310690Y-120807857D01*
X131310690Y-119141190D02*
X131310690Y-119331666D01*
X131263071Y-119426905D01*
X131215451Y-119474524D01*
X131072594Y-119569762D01*
X130882118Y-119617381D01*
X130501166Y-119617381D01*
X130405928Y-119569762D01*
X130358309Y-119522143D01*
X130310690Y-119426905D01*
X130310690Y-119236428D01*
X130358309Y-119141190D01*
X130405928Y-119093571D01*
X130501166Y-119045952D01*
X130739261Y-119045952D01*
X130834499Y-119093571D01*
X130882118Y-119141190D01*
X130929737Y-119236428D01*
X130929737Y-119426905D01*
X130882118Y-119522143D01*
X130834499Y-119569762D01*
X130739261Y-119617381D01*
X131215451Y-118665000D02*
X131263071Y-118617381D01*
X131310690Y-118522143D01*
X131310690Y-118284047D01*
X131263071Y-118188809D01*
X131215451Y-118141190D01*
X131120213Y-118093571D01*
X131024975Y-118093571D01*
X130882118Y-118141190D01*
X130310690Y-118712619D01*
X130310690Y-118093571D01*
X160892324Y-122141190D02*
X160844705Y-122188809D01*
X160797086Y-122331666D01*
X160797086Y-122426905D01*
X160844705Y-122569762D01*
X160939943Y-122665000D01*
X161035181Y-122712619D01*
X161225657Y-122760238D01*
X161368514Y-122760238D01*
X161558990Y-122712619D01*
X161654228Y-122665000D01*
X161749467Y-122569762D01*
X161797086Y-122426905D01*
X161797086Y-122331666D01*
X161749467Y-122188809D01*
X161701847Y-122141190D01*
X161320895Y-121712619D02*
X161320895Y-121379285D01*
X160797086Y-121236428D02*
X160797086Y-121712619D01*
X161797086Y-121712619D01*
X161797086Y-121236428D01*
X160892324Y-120807857D02*
X160844705Y-120760238D01*
X160797086Y-120807857D01*
X160844705Y-120855476D01*
X160892324Y-120807857D01*
X160797086Y-120807857D01*
X161463752Y-120426905D02*
X160797086Y-120188809D01*
X161463752Y-119950714D01*
X161797086Y-119141190D02*
X161797086Y-119331666D01*
X161749467Y-119426905D01*
X161701847Y-119474524D01*
X161558990Y-119569762D01*
X161368514Y-119617381D01*
X160987562Y-119617381D01*
X160892324Y-119569762D01*
X160844705Y-119522143D01*
X160797086Y-119426905D01*
X160797086Y-119236428D01*
X160844705Y-119141190D01*
X160892324Y-119093571D01*
X160987562Y-119045952D01*
X161225657Y-119045952D01*
X161320895Y-119093571D01*
X161368514Y-119141190D01*
X161416133Y-119236428D01*
X161416133Y-119426905D01*
X161368514Y-119522143D01*
X161320895Y-119569762D01*
X161225657Y-119617381D01*
X161701847Y-118665000D02*
X161749467Y-118617381D01*
X161797086Y-118522143D01*
X161797086Y-118284047D01*
X161749467Y-118188809D01*
X161701847Y-118141190D01*
X161606609Y-118093571D01*
X161511371Y-118093571D01*
X161368514Y-118141190D01*
X160797086Y-118712619D01*
X160797086Y-118093571D01*
X148094421Y-122712618D02*
X149094421Y-122712618D01*
X149094421Y-122331666D01*
X149046802Y-122236428D01*
X148999182Y-122188809D01*
X148903944Y-122141190D01*
X148761087Y-122141190D01*
X148665849Y-122188809D01*
X148618230Y-122236428D01*
X148570611Y-122331666D01*
X148570611Y-122712618D01*
X148094421Y-121712618D02*
X148761087Y-121712618D01*
X149094421Y-121712618D02*
X149046802Y-121760237D01*
X148999182Y-121712618D01*
X149046802Y-121664999D01*
X149094421Y-121712618D01*
X148999182Y-121712618D01*
X148761087Y-121236428D02*
X148094421Y-121236428D01*
X148665849Y-121236428D02*
X148713468Y-121188809D01*
X148761087Y-121093571D01*
X148761087Y-120950714D01*
X148713468Y-120855475D01*
X148618230Y-120807856D01*
X148094421Y-120807856D01*
X148094421Y-119522142D02*
X148094421Y-119331666D01*
X148142040Y-119236428D01*
X148189659Y-119188809D01*
X148332516Y-119093571D01*
X148522992Y-119045952D01*
X148903944Y-119045952D01*
X148999182Y-119093571D01*
X149046802Y-119141190D01*
X149094421Y-119236428D01*
X149094421Y-119426904D01*
X149046802Y-119522142D01*
X148999182Y-119569761D01*
X148903944Y-119617380D01*
X148665849Y-119617380D01*
X148570611Y-119569761D01*
X148522992Y-119522142D01*
X148475373Y-119426904D01*
X148475373Y-119236428D01*
X148522992Y-119141190D01*
X148570611Y-119093571D01*
X148665849Y-119045952D01*
X154175487Y-122807857D02*
X153175487Y-122569762D01*
X153889772Y-122379285D01*
X153175487Y-122188809D01*
X154175487Y-121950714D01*
X153699296Y-121569762D02*
X153699296Y-121236428D01*
X153175487Y-121093571D02*
X153175487Y-121569762D01*
X154175487Y-121569762D01*
X154175487Y-121093571D01*
X132782361Y-107871428D02*
X133258551Y-108204761D01*
X132782361Y-108442856D02*
X133782361Y-108442856D01*
X133782361Y-108061904D01*
X133734742Y-107966666D01*
X133687122Y-107919047D01*
X133591884Y-107871428D01*
X133449027Y-107871428D01*
X133353789Y-107919047D01*
X133306170Y-107966666D01*
X133258551Y-108061904D01*
X133258551Y-108442856D01*
X132782361Y-107014285D02*
X133782361Y-107014285D01*
X132829980Y-107014285D02*
X132782361Y-107109523D01*
X132782361Y-107299999D01*
X132829980Y-107395237D01*
X132877599Y-107442856D01*
X132972837Y-107490475D01*
X133258551Y-107490475D01*
X133353789Y-107442856D01*
X133401408Y-107395237D01*
X133449027Y-107299999D01*
X133449027Y-107109523D01*
X133401408Y-107014285D01*
X132877599Y-106538094D02*
X132829980Y-106490475D01*
X132782361Y-106538094D01*
X132829980Y-106585713D01*
X132877599Y-106538094D01*
X132782361Y-106538094D01*
X133449027Y-105633332D02*
X132639503Y-105633332D01*
X132544265Y-105680951D01*
X132496646Y-105728570D01*
X132449027Y-105823808D01*
X132449027Y-105966666D01*
X132496646Y-106061904D01*
X132829980Y-105633332D02*
X132782361Y-105728570D01*
X132782361Y-105919047D01*
X132829980Y-106014285D01*
X132877599Y-106061904D01*
X132972837Y-106109523D01*
X133258551Y-106109523D01*
X133353789Y-106061904D01*
X133401408Y-106014285D01*
X133449027Y-105919047D01*
X133449027Y-105728570D01*
X133401408Y-105633332D01*
X132782361Y-105157142D02*
X133449027Y-105157142D01*
X133353789Y-105157142D02*
X133401408Y-105109523D01*
X133449027Y-105014285D01*
X133449027Y-104871428D01*
X133401408Y-104776189D01*
X133306170Y-104728570D01*
X132782361Y-104728570D01*
X133306170Y-104728570D02*
X133401408Y-104680951D01*
X133449027Y-104585713D01*
X133449027Y-104442856D01*
X133401408Y-104347618D01*
X133306170Y-104299999D01*
X132782361Y-104299999D01*
X143281763Y-94851713D02*
X143281763Y-94375523D01*
X142996049Y-94946951D02*
X143996049Y-94613618D01*
X142996049Y-94280285D01*
X143900810Y-93994570D02*
X143948430Y-93946951D01*
X143996049Y-93851713D01*
X143996049Y-93613618D01*
X143948430Y-93518380D01*
X143900810Y-93470761D01*
X143805572Y-93423142D01*
X143710334Y-93423142D01*
X143567477Y-93470761D01*
X142996049Y-94042189D01*
X142996049Y-93423142D01*
X140472822Y-122712619D02*
X141472822Y-122712619D01*
X141472822Y-122331666D01*
X141425203Y-122236428D01*
X141377583Y-122188809D01*
X141282345Y-122141190D01*
X141139488Y-122141190D01*
X141044250Y-122188809D01*
X140996631Y-122236428D01*
X140949012Y-122331666D01*
X140949012Y-122712619D01*
X140472822Y-121712619D02*
X141139488Y-121712619D01*
X141472822Y-121712619D02*
X141425203Y-121760238D01*
X141377583Y-121712619D01*
X141425203Y-121665000D01*
X141472822Y-121712619D01*
X141377583Y-121712619D01*
X141139488Y-121236428D02*
X140472822Y-121236428D01*
X141044250Y-121236428D02*
X141091869Y-121188809D01*
X141139488Y-121093571D01*
X141139488Y-120950714D01*
X141091869Y-120855476D01*
X140996631Y-120807857D01*
X140472822Y-120807857D01*
X141377583Y-119617381D02*
X141425203Y-119569762D01*
X141472822Y-119474524D01*
X141472822Y-119236428D01*
X141425203Y-119141190D01*
X141377583Y-119093571D01*
X141282345Y-119045952D01*
X141187107Y-119045952D01*
X141044250Y-119093571D01*
X140472822Y-119665000D01*
X140472822Y-119045952D01*
X141377583Y-118665000D02*
X141425203Y-118617381D01*
X141472822Y-118522143D01*
X141472822Y-118284047D01*
X141425203Y-118188809D01*
X141377583Y-118141190D01*
X141282345Y-118093571D01*
X141187107Y-118093571D01*
X141044250Y-118141190D01*
X140472822Y-118712619D01*
X140472822Y-118093571D01*
X158256553Y-122141190D02*
X158732743Y-122474523D01*
X158256553Y-122712618D02*
X159256553Y-122712618D01*
X159256553Y-122331666D01*
X159208934Y-122236428D01*
X159161314Y-122188809D01*
X159066076Y-122141190D01*
X158923219Y-122141190D01*
X158827981Y-122188809D01*
X158780362Y-122236428D01*
X158732743Y-122331666D01*
X158732743Y-122712618D01*
X158304172Y-121331666D02*
X158256553Y-121426904D01*
X158256553Y-121617380D01*
X158304172Y-121712618D01*
X158399410Y-121760237D01*
X158780362Y-121760237D01*
X158875600Y-121712618D01*
X158923219Y-121617380D01*
X158923219Y-121426904D01*
X158875600Y-121331666D01*
X158780362Y-121284047D01*
X158685124Y-121284047D01*
X158589886Y-121760237D01*
X158304172Y-120903095D02*
X158256553Y-120807856D01*
X158256553Y-120617380D01*
X158304172Y-120522142D01*
X158399410Y-120474523D01*
X158447029Y-120474523D01*
X158542267Y-120522142D01*
X158589886Y-120617380D01*
X158589886Y-120760237D01*
X158637505Y-120855475D01*
X158732743Y-120903095D01*
X158780362Y-120903095D01*
X158875600Y-120855475D01*
X158923219Y-120760237D01*
X158923219Y-120617380D01*
X158875600Y-120522142D01*
X158304172Y-119664999D02*
X158256553Y-119760237D01*
X158256553Y-119950714D01*
X158304172Y-120045952D01*
X158399410Y-120093571D01*
X158780362Y-120093571D01*
X158875600Y-120045952D01*
X158923219Y-119950714D01*
X158923219Y-119760237D01*
X158875600Y-119664999D01*
X158780362Y-119617380D01*
X158685124Y-119617380D01*
X158589886Y-120093571D01*
X158923219Y-119331666D02*
X158923219Y-118950714D01*
X159256553Y-119188809D02*
X158399410Y-119188809D01*
X158304172Y-119141190D01*
X158256553Y-119045952D01*
X158256553Y-118950714D01*
X158457545Y-108490476D02*
X158457545Y-108014285D01*
X158171831Y-108585714D02*
X159171831Y-108252380D01*
X158171831Y-107919047D01*
X158171831Y-107061904D02*
X158171831Y-107633333D01*
X158171831Y-107347618D02*
X159171831Y-107347618D01*
X159028973Y-107442857D01*
X158933735Y-107538095D01*
X158886116Y-107633333D01*
X159171831Y-106157142D02*
X159171831Y-106633333D01*
X158695640Y-106680952D01*
X158743259Y-106633333D01*
X158790878Y-106538095D01*
X158790878Y-106299999D01*
X158743259Y-106204761D01*
X158695640Y-106157142D01*
X158600402Y-106109523D01*
X158362307Y-106109523D01*
X158267069Y-106157142D01*
X158219450Y-106204761D01*
X158171831Y-106299999D01*
X158171831Y-106538095D01*
X158219450Y-106633333D01*
X158267069Y-106680952D01*
X158267069Y-105680952D02*
X158219450Y-105633333D01*
X158171831Y-105680952D01*
X158219450Y-105728571D01*
X158267069Y-105680952D01*
X158171831Y-105680952D01*
X158838497Y-104776190D02*
X158028973Y-104776190D01*
X157933735Y-104823809D01*
X157886116Y-104871428D01*
X157838497Y-104966666D01*
X157838497Y-105109523D01*
X157886116Y-105204761D01*
X158219450Y-104776190D02*
X158171831Y-104871428D01*
X158171831Y-105061904D01*
X158219450Y-105157142D01*
X158267069Y-105204761D01*
X158362307Y-105252380D01*
X158648021Y-105252380D01*
X158743259Y-105204761D01*
X158790878Y-105157142D01*
X158838497Y-105061904D01*
X158838497Y-104871428D01*
X158790878Y-104776190D01*
X158171831Y-104299999D02*
X158838497Y-104299999D01*
X158743259Y-104299999D02*
X158790878Y-104252380D01*
X158838497Y-104157142D01*
X158838497Y-104014285D01*
X158790878Y-103919047D01*
X158695640Y-103871428D01*
X158171831Y-103871428D01*
X158695640Y-103871428D02*
X158790878Y-103823809D01*
X158838497Y-103728571D01*
X158838497Y-103585714D01*
X158790878Y-103490476D01*
X158695640Y-103442857D01*
X158171831Y-103442857D01*
X130620978Y-94851713D02*
X130620978Y-94375523D01*
X130335264Y-94946951D02*
X131335264Y-94613618D01*
X130335264Y-94280285D01*
X131335264Y-94042189D02*
X131335264Y-93375523D01*
X130335264Y-93804094D01*
X120492333Y-94851714D02*
X120492333Y-94375523D01*
X120206619Y-94946952D02*
X121206619Y-94613618D01*
X120206619Y-94280285D01*
X120206619Y-93423142D02*
X120206619Y-93994571D01*
X120206619Y-93708857D02*
X121206619Y-93708857D01*
X121063761Y-93804095D01*
X120968523Y-93899333D01*
X120920904Y-93994571D01*
X120206619Y-92470761D02*
X120206619Y-93042190D01*
X120206619Y-92756476D02*
X121206619Y-92756476D01*
X121063761Y-92851714D01*
X120968523Y-92946952D01*
X120920904Y-93042190D01*
X120135238Y-108490475D02*
X120087619Y-108347618D01*
X120087619Y-108109523D01*
X120135238Y-108014285D01*
X120182857Y-107966666D01*
X120278095Y-107919047D01*
X120373333Y-107919047D01*
X120468571Y-107966666D01*
X120516190Y-108014285D01*
X120563809Y-108109523D01*
X120611428Y-108299999D01*
X120659047Y-108395237D01*
X120706666Y-108442856D01*
X120801904Y-108490475D01*
X120897142Y-108490475D01*
X120992380Y-108442856D01*
X121040000Y-108395237D01*
X121087619Y-108299999D01*
X121087619Y-108061904D01*
X121040000Y-107919047D01*
X120754285Y-107585713D02*
X120087619Y-107395237D01*
X120563809Y-107204761D01*
X120087619Y-107014285D01*
X120754285Y-106823809D01*
X120087619Y-106442856D02*
X120754285Y-106442856D01*
X121087619Y-106442856D02*
X121040000Y-106490475D01*
X120992380Y-106442856D01*
X121040000Y-106395237D01*
X121087619Y-106442856D01*
X120992380Y-106442856D01*
X120754285Y-106109523D02*
X120754285Y-105728570D01*
X121087619Y-105966666D02*
X120230476Y-105966666D01*
X120135238Y-105919047D01*
X120087619Y-105823809D01*
X120087619Y-105728570D01*
X120135238Y-104966666D02*
X120087619Y-105061904D01*
X120087619Y-105252380D01*
X120135238Y-105347618D01*
X120182857Y-105395237D01*
X120278095Y-105442856D01*
X120563809Y-105442856D01*
X120659047Y-105395237D01*
X120706666Y-105347618D01*
X120754285Y-105252380D01*
X120754285Y-105061904D01*
X120706666Y-104966666D01*
X120087619Y-104538094D02*
X121087619Y-104538094D01*
X120087619Y-104109523D02*
X120611428Y-104109523D01*
X120706666Y-104157142D01*
X120754285Y-104252380D01*
X120754285Y-104395237D01*
X120706666Y-104490475D01*
X120659047Y-104538094D01*
X135391756Y-122712619D02*
X136391756Y-122712619D01*
X136391756Y-122331666D01*
X136344137Y-122236428D01*
X136296517Y-122188809D01*
X136201279Y-122141190D01*
X136058422Y-122141190D01*
X135963184Y-122188809D01*
X135915565Y-122236428D01*
X135867946Y-122331666D01*
X135867946Y-122712619D01*
X135391756Y-121712619D02*
X136058422Y-121712619D01*
X136391756Y-121712619D02*
X136344137Y-121760238D01*
X136296517Y-121712619D01*
X136344137Y-121665000D01*
X136391756Y-121712619D01*
X136296517Y-121712619D01*
X136058422Y-121236428D02*
X135391756Y-121236428D01*
X135963184Y-121236428D02*
X136010803Y-121188809D01*
X136058422Y-121093571D01*
X136058422Y-120950714D01*
X136010803Y-120855476D01*
X135915565Y-120807857D01*
X135391756Y-120807857D01*
X136058422Y-119141190D02*
X135391756Y-119141190D01*
X136439375Y-119379285D02*
X135725089Y-119617381D01*
X135725089Y-118998333D01*
X136058422Y-118188809D02*
X135391756Y-118188809D01*
X136439375Y-118426905D02*
X135725089Y-118665000D01*
X135725089Y-118045952D01*
X132851223Y-122712619D02*
X133851223Y-122712619D01*
X133851223Y-122331666D01*
X133803604Y-122236428D01*
X133755984Y-122188809D01*
X133660746Y-122141190D01*
X133517889Y-122141190D01*
X133422651Y-122188809D01*
X133375032Y-122236428D01*
X133327413Y-122331666D01*
X133327413Y-122712619D01*
X132851223Y-121712619D02*
X133517889Y-121712619D01*
X133851223Y-121712619D02*
X133803604Y-121760238D01*
X133755984Y-121712619D01*
X133803604Y-121665000D01*
X133851223Y-121712619D01*
X133755984Y-121712619D01*
X133517889Y-121236428D02*
X132851223Y-121236428D01*
X133422651Y-121236428D02*
X133470270Y-121188809D01*
X133517889Y-121093571D01*
X133517889Y-120950714D01*
X133470270Y-120855476D01*
X133375032Y-120807857D01*
X132851223Y-120807857D01*
X133851223Y-119141190D02*
X133851223Y-119331666D01*
X133803604Y-119426905D01*
X133755984Y-119474524D01*
X133613127Y-119569762D01*
X133422651Y-119617381D01*
X133041699Y-119617381D01*
X132946461Y-119569762D01*
X132898842Y-119522143D01*
X132851223Y-119426905D01*
X132851223Y-119236428D01*
X132898842Y-119141190D01*
X132946461Y-119093571D01*
X133041699Y-119045952D01*
X133279794Y-119045952D01*
X133375032Y-119093571D01*
X133422651Y-119141190D01*
X133470270Y-119236428D01*
X133470270Y-119426905D01*
X133422651Y-119522143D01*
X133375032Y-119569762D01*
X133279794Y-119617381D01*
X132851223Y-118093571D02*
X132851223Y-118665000D01*
X132851223Y-118379285D02*
X133851223Y-118379285D01*
X133708365Y-118474524D01*
X133613127Y-118569762D01*
X133565508Y-118665000D01*
X123024507Y-94851714D02*
X123024507Y-94375523D01*
X122738793Y-94946952D02*
X123738793Y-94613618D01*
X122738793Y-94280285D01*
X122738793Y-93423142D02*
X122738793Y-93994571D01*
X122738793Y-93708857D02*
X123738793Y-93708857D01*
X123595935Y-93804095D01*
X123500697Y-93899333D01*
X123453078Y-93994571D01*
X123738793Y-92804095D02*
X123738793Y-92708857D01*
X123691174Y-92613618D01*
X123643554Y-92565999D01*
X123548316Y-92518380D01*
X123357840Y-92470761D01*
X123119745Y-92470761D01*
X122929269Y-92518380D01*
X122834031Y-92565999D01*
X122786412Y-92613618D01*
X122738793Y-92708857D01*
X122738793Y-92804095D01*
X122786412Y-92899333D01*
X122834031Y-92946952D01*
X122929269Y-92994571D01*
X123119745Y-93042190D01*
X123357840Y-93042190D01*
X123548316Y-92994571D01*
X123643554Y-92946952D01*
X123691174Y-92899333D01*
X123738793Y-92804095D01*
X137932289Y-122712619D02*
X138932289Y-122712619D01*
X138932289Y-122331666D01*
X138884670Y-122236428D01*
X138837050Y-122188809D01*
X138741812Y-122141190D01*
X138598955Y-122141190D01*
X138503717Y-122188809D01*
X138456098Y-122236428D01*
X138408479Y-122331666D01*
X138408479Y-122712619D01*
X137932289Y-121712619D02*
X138598955Y-121712619D01*
X138932289Y-121712619D02*
X138884670Y-121760238D01*
X138837050Y-121712619D01*
X138884670Y-121665000D01*
X138932289Y-121712619D01*
X138837050Y-121712619D01*
X138598955Y-121236428D02*
X137932289Y-121236428D01*
X138503717Y-121236428D02*
X138551336Y-121188809D01*
X138598955Y-121093571D01*
X138598955Y-120950714D01*
X138551336Y-120855476D01*
X138456098Y-120807857D01*
X137932289Y-120807857D01*
X138837050Y-119617381D02*
X138884670Y-119569762D01*
X138932289Y-119474524D01*
X138932289Y-119236428D01*
X138884670Y-119141190D01*
X138837050Y-119093571D01*
X138741812Y-119045952D01*
X138646574Y-119045952D01*
X138503717Y-119093571D01*
X137932289Y-119665000D01*
X137932289Y-119045952D01*
X138598955Y-118188809D02*
X137932289Y-118188809D01*
X138979908Y-118426905D02*
X138265622Y-118665000D01*
X138265622Y-118045952D01*
X125556664Y-94851713D02*
X125556664Y-94375523D01*
X125270950Y-94946951D02*
X126270950Y-94613618D01*
X125270950Y-94280285D01*
X125270950Y-93899332D02*
X125270950Y-93708856D01*
X125318569Y-93613618D01*
X125366188Y-93565999D01*
X125509045Y-93470761D01*
X125699521Y-93423142D01*
X126080473Y-93423142D01*
X126175711Y-93470761D01*
X126223331Y-93518380D01*
X126270950Y-93613618D01*
X126270950Y-93804094D01*
X126223331Y-93899332D01*
X126175711Y-93946951D01*
X126080473Y-93994570D01*
X125842378Y-93994570D01*
X125747140Y-93946951D01*
X125699521Y-93899332D01*
X125651902Y-93804094D01*
X125651902Y-93613618D01*
X125699521Y-93518380D01*
X125747140Y-93470761D01*
X125842378Y-93423142D01*
X155656834Y-94804095D02*
X156656834Y-94804095D01*
X156656834Y-94566000D01*
X156609215Y-94423142D01*
X156513976Y-94327904D01*
X156418738Y-94280285D01*
X156228262Y-94232666D01*
X156085405Y-94232666D01*
X155894929Y-94280285D01*
X155799691Y-94327904D01*
X155704453Y-94423142D01*
X155656834Y-94566000D01*
X155656834Y-94804095D01*
X156656834Y-93327904D02*
X156656834Y-93804095D01*
X156180643Y-93851714D01*
X156228262Y-93804095D01*
X156275881Y-93708857D01*
X156275881Y-93470761D01*
X156228262Y-93375523D01*
X156180643Y-93327904D01*
X156085405Y-93280285D01*
X155847310Y-93280285D01*
X155752072Y-93327904D01*
X155704453Y-93375523D01*
X155656834Y-93470761D01*
X155656834Y-93708857D01*
X155704453Y-93804095D01*
X155752072Y-93851714D01*
X166074386Y-108490476D02*
X166074386Y-108014285D01*
X165788672Y-108585714D02*
X166788672Y-108252380D01*
X165788672Y-107919047D01*
X165788672Y-107061904D02*
X165788672Y-107633333D01*
X165788672Y-107347619D02*
X166788672Y-107347619D01*
X166645814Y-107442857D01*
X166550576Y-107538095D01*
X166502957Y-107633333D01*
X166788672Y-106728571D02*
X166788672Y-106109523D01*
X166407719Y-106442857D01*
X166407719Y-106300000D01*
X166360100Y-106204761D01*
X166312481Y-106157142D01*
X166217243Y-106109523D01*
X165979148Y-106109523D01*
X165883910Y-106157142D01*
X165836291Y-106204761D01*
X165788672Y-106300000D01*
X165788672Y-106585714D01*
X165836291Y-106680952D01*
X165883910Y-106728571D01*
X158188991Y-94804095D02*
X159188991Y-94804095D01*
X159188991Y-94566000D01*
X159141372Y-94423142D01*
X159046133Y-94327904D01*
X158950895Y-94280285D01*
X158760419Y-94232666D01*
X158617562Y-94232666D01*
X158427086Y-94280285D01*
X158331848Y-94327904D01*
X158236610Y-94423142D01*
X158188991Y-94566000D01*
X158188991Y-94804095D01*
X158855657Y-93375523D02*
X158188991Y-93375523D01*
X159236610Y-93613619D02*
X158522324Y-93851714D01*
X158522324Y-93232666D01*
X131243414Y-108538095D02*
X130243414Y-108299999D01*
X130957699Y-108109523D01*
X130243414Y-107919047D01*
X131243414Y-107680952D01*
X130243414Y-107299999D02*
X130910080Y-107299999D01*
X130719604Y-107299999D02*
X130814842Y-107252380D01*
X130862461Y-107204761D01*
X130910080Y-107109523D01*
X130910080Y-107014285D01*
X130338652Y-106680952D02*
X130291033Y-106633333D01*
X130243414Y-106680952D01*
X130291033Y-106728571D01*
X130338652Y-106680952D01*
X130243414Y-106680952D01*
X130910080Y-105776190D02*
X130100556Y-105776190D01*
X130005318Y-105823809D01*
X129957699Y-105871428D01*
X129910080Y-105966666D01*
X129910080Y-106109523D01*
X129957699Y-106204761D01*
X130291033Y-105776190D02*
X130243414Y-105871428D01*
X130243414Y-106061904D01*
X130291033Y-106157142D01*
X130338652Y-106204761D01*
X130433890Y-106252380D01*
X130719604Y-106252380D01*
X130814842Y-106204761D01*
X130862461Y-106157142D01*
X130910080Y-106061904D01*
X130910080Y-105871428D01*
X130862461Y-105776190D01*
X130243414Y-105299999D02*
X130910080Y-105299999D01*
X130814842Y-105299999D02*
X130862461Y-105252380D01*
X130910080Y-105157142D01*
X130910080Y-105014285D01*
X130862461Y-104919047D01*
X130767223Y-104871428D01*
X130243414Y-104871428D01*
X130767223Y-104871428D02*
X130862461Y-104823809D01*
X130910080Y-104728571D01*
X130910080Y-104585714D01*
X130862461Y-104490476D01*
X130767223Y-104442857D01*
X130243414Y-104442857D01*
X163432857Y-122141190D02*
X163385238Y-122188809D01*
X163337619Y-122331666D01*
X163337619Y-122426904D01*
X163385238Y-122569761D01*
X163480476Y-122665000D01*
X163575714Y-122712619D01*
X163766190Y-122760238D01*
X163909047Y-122760238D01*
X164099523Y-122712619D01*
X164194761Y-122665000D01*
X164290000Y-122569761D01*
X164337619Y-122426904D01*
X164337619Y-122331666D01*
X164290000Y-122188809D01*
X164242380Y-122141190D01*
X163861428Y-121712619D02*
X163861428Y-121379285D01*
X163337619Y-121236428D02*
X163337619Y-121712619D01*
X164337619Y-121712619D01*
X164337619Y-121236428D01*
X163432857Y-120807857D02*
X163385238Y-120760238D01*
X163337619Y-120807857D01*
X163385238Y-120855476D01*
X163432857Y-120807857D01*
X163337619Y-120807857D01*
X163385238Y-120379285D02*
X163337619Y-120284047D01*
X163337619Y-120093571D01*
X163385238Y-119998333D01*
X163480476Y-119950714D01*
X163528095Y-119950714D01*
X163623333Y-119998333D01*
X163670952Y-120093571D01*
X163670952Y-120236428D01*
X163718571Y-120331666D01*
X163813809Y-120379285D01*
X163861428Y-120379285D01*
X163956666Y-120331666D01*
X164004285Y-120236428D01*
X164004285Y-120093571D01*
X163956666Y-119998333D01*
X163385238Y-119569761D02*
X163337619Y-119474523D01*
X163337619Y-119284047D01*
X163385238Y-119188809D01*
X163480476Y-119141190D01*
X163528095Y-119141190D01*
X163623333Y-119188809D01*
X163670952Y-119284047D01*
X163670952Y-119426904D01*
X163718571Y-119522142D01*
X163813809Y-119569761D01*
X163861428Y-119569761D01*
X163956666Y-119522142D01*
X164004285Y-119426904D01*
X164004285Y-119284047D01*
X163956666Y-119188809D01*
X164004285Y-118855476D02*
X164004285Y-118474523D01*
X164337619Y-118712619D02*
X163480476Y-118712619D01*
X163385238Y-118665000D01*
X163337619Y-118569761D01*
X163337619Y-118474523D01*
X123150382Y-108109523D02*
X123102763Y-107966666D01*
X123055144Y-107919047D01*
X122959906Y-107871428D01*
X122817049Y-107871428D01*
X122721811Y-107919047D01*
X122674192Y-107966666D01*
X122626573Y-108061904D01*
X122626573Y-108442857D01*
X123626573Y-108442857D01*
X123626573Y-108109523D01*
X123578954Y-108014285D01*
X123531334Y-107966666D01*
X123436096Y-107919047D01*
X123340858Y-107919047D01*
X123245620Y-107966666D01*
X123198001Y-108014285D01*
X123150382Y-108109523D01*
X123150382Y-108442857D01*
X123293239Y-107014285D02*
X122626573Y-107014285D01*
X123293239Y-107442857D02*
X122769430Y-107442857D01*
X122674192Y-107395238D01*
X122626573Y-107300000D01*
X122626573Y-107157142D01*
X122674192Y-107061904D01*
X122721811Y-107014285D01*
X123293239Y-106680952D02*
X123293239Y-106300000D01*
X123626573Y-106538095D02*
X122769430Y-106538095D01*
X122674192Y-106490476D01*
X122626573Y-106395238D01*
X122626573Y-106300000D01*
X123293239Y-106109523D02*
X123293239Y-105728571D01*
X123626573Y-105966666D02*
X122769430Y-105966666D01*
X122674192Y-105919047D01*
X122626573Y-105823809D01*
X122626573Y-105728571D01*
X122626573Y-105252381D02*
X122674192Y-105347619D01*
X122721811Y-105395238D01*
X122817049Y-105442857D01*
X123102763Y-105442857D01*
X123198001Y-105395238D01*
X123245620Y-105347619D01*
X123293239Y-105252381D01*
X123293239Y-105109523D01*
X123245620Y-105014285D01*
X123198001Y-104966666D01*
X123102763Y-104919047D01*
X122817049Y-104919047D01*
X122721811Y-104966666D01*
X122674192Y-105014285D01*
X122626573Y-105109523D01*
X122626573Y-105252381D01*
X123293239Y-104490476D02*
X122626573Y-104490476D01*
X123198001Y-104490476D02*
X123245620Y-104442857D01*
X123293239Y-104347619D01*
X123293239Y-104204761D01*
X123245620Y-104109523D01*
X123150382Y-104061904D01*
X122626573Y-104061904D01*
X151634954Y-122522142D02*
X151634954Y-122331666D01*
X151587335Y-122236428D01*
X151492096Y-122141190D01*
X151301620Y-122093571D01*
X150968287Y-122093571D01*
X150777811Y-122141190D01*
X150682573Y-122236428D01*
X150634954Y-122331666D01*
X150634954Y-122522142D01*
X150682573Y-122617380D01*
X150777811Y-122712618D01*
X150968287Y-122760237D01*
X151301620Y-122760237D01*
X151492096Y-122712618D01*
X151587335Y-122617380D01*
X151634954Y-122522142D01*
X151158763Y-121664999D02*
X151158763Y-121331666D01*
X150634954Y-121188809D02*
X150634954Y-121664999D01*
X151634954Y-121664999D01*
X151634954Y-121188809D01*
X150730192Y-120760237D02*
X150682573Y-120712618D01*
X150634954Y-120760237D01*
X150682573Y-120807856D01*
X150730192Y-120760237D01*
X150634954Y-120760237D01*
X151301620Y-120379285D02*
X150634954Y-120141190D01*
X151301620Y-119903095D01*
X151634954Y-119093571D02*
X151634954Y-119284047D01*
X151587335Y-119379285D01*
X151539715Y-119426904D01*
X151396858Y-119522142D01*
X151206382Y-119569761D01*
X150825430Y-119569761D01*
X150730192Y-119522142D01*
X150682573Y-119474523D01*
X150634954Y-119379285D01*
X150634954Y-119188809D01*
X150682573Y-119093571D01*
X150730192Y-119045952D01*
X150825430Y-118998333D01*
X151063525Y-118998333D01*
X151158763Y-119045952D01*
X151206382Y-119093571D01*
X151254001Y-119188809D01*
X151254001Y-119379285D01*
X151206382Y-119474523D01*
X151158763Y-119522142D01*
X151063525Y-119569761D01*
X151539715Y-118617380D02*
X151587335Y-118569761D01*
X151634954Y-118474523D01*
X151634954Y-118236428D01*
X151587335Y-118141190D01*
X151539715Y-118093571D01*
X151444477Y-118045952D01*
X151349239Y-118045952D01*
X151206382Y-118093571D01*
X150634954Y-118664999D01*
X150634954Y-118045952D01*
X155918598Y-108490476D02*
X155918598Y-108014286D01*
X155632884Y-108585714D02*
X156632884Y-108252381D01*
X155632884Y-107919047D01*
X155632884Y-107061905D02*
X155632884Y-107633333D01*
X155632884Y-107347619D02*
X156632884Y-107347619D01*
X156490026Y-107442857D01*
X156394788Y-107538095D01*
X156347169Y-107633333D01*
X156632884Y-106728571D02*
X156632884Y-106109524D01*
X156251931Y-106442857D01*
X156251931Y-106300000D01*
X156204312Y-106204762D01*
X156156693Y-106157143D01*
X156061455Y-106109524D01*
X155823360Y-106109524D01*
X155728122Y-106157143D01*
X155680503Y-106204762D01*
X155632884Y-106300000D01*
X155632884Y-106585714D01*
X155680503Y-106680952D01*
X155728122Y-106728571D01*
X155728122Y-105680952D02*
X155680503Y-105633333D01*
X155632884Y-105680952D01*
X155680503Y-105728571D01*
X155728122Y-105680952D01*
X155632884Y-105680952D01*
X155680503Y-105252381D02*
X155632884Y-105157143D01*
X155632884Y-104966667D01*
X155680503Y-104871428D01*
X155775741Y-104823809D01*
X155823360Y-104823809D01*
X155918598Y-104871428D01*
X155966217Y-104966667D01*
X155966217Y-105109524D01*
X156013836Y-105204762D01*
X156109074Y-105252381D01*
X156156693Y-105252381D01*
X156251931Y-105204762D01*
X156299550Y-105109524D01*
X156299550Y-104966667D01*
X156251931Y-104871428D01*
X155680503Y-104442857D02*
X155632884Y-104347619D01*
X155632884Y-104157143D01*
X155680503Y-104061905D01*
X155775741Y-104014286D01*
X155823360Y-104014286D01*
X155918598Y-104061905D01*
X155966217Y-104157143D01*
X155966217Y-104300000D01*
X156013836Y-104395238D01*
X156109074Y-104442857D01*
X156156693Y-104442857D01*
X156251931Y-104395238D01*
X156299550Y-104300000D01*
X156299550Y-104157143D01*
X156251931Y-104061905D01*
X156299550Y-103728571D02*
X156299550Y-103347619D01*
X156632884Y-103585714D02*
X155775741Y-103585714D01*
X155680503Y-103538095D01*
X155632884Y-103442857D01*
X155632884Y-103347619D01*
X143223863Y-108490475D02*
X143223863Y-108014285D01*
X142938149Y-108585713D02*
X143938149Y-108252380D01*
X142938149Y-107919047D01*
X142938149Y-107061904D02*
X142938149Y-107633332D01*
X142938149Y-107347618D02*
X143938149Y-107347618D01*
X143795291Y-107442856D01*
X143700053Y-107538094D01*
X143652434Y-107633332D01*
X143938149Y-106728571D02*
X143938149Y-106109523D01*
X143557196Y-106442856D01*
X143557196Y-106299999D01*
X143509577Y-106204761D01*
X143461958Y-106157142D01*
X143366720Y-106109523D01*
X143128625Y-106109523D01*
X143033387Y-106157142D01*
X142985768Y-106204761D01*
X142938149Y-106299999D01*
X142938149Y-106585713D01*
X142985768Y-106680951D01*
X143033387Y-106728571D01*
X143033387Y-105680951D02*
X142985768Y-105633332D01*
X142938149Y-105680951D01*
X142985768Y-105728571D01*
X143033387Y-105680951D01*
X142938149Y-105680951D01*
X143604815Y-105299999D02*
X142938149Y-105061904D01*
X143604815Y-104823809D01*
X143938149Y-104014285D02*
X143938149Y-104204761D01*
X143890530Y-104299999D01*
X143842910Y-104347618D01*
X143700053Y-104442856D01*
X143509577Y-104490475D01*
X143128625Y-104490475D01*
X143033387Y-104442856D01*
X142985768Y-104395237D01*
X142938149Y-104299999D01*
X142938149Y-104109523D01*
X142985768Y-104014285D01*
X143033387Y-103966666D01*
X143128625Y-103919047D01*
X143366720Y-103919047D01*
X143461958Y-103966666D01*
X143509577Y-104014285D01*
X143557196Y-104109523D01*
X143557196Y-104299999D01*
X143509577Y-104395237D01*
X143461958Y-104442856D01*
X143366720Y-104490475D01*
X143842910Y-103538094D02*
X143890530Y-103490475D01*
X143938149Y-103395237D01*
X143938149Y-103157142D01*
X143890530Y-103061904D01*
X143842910Y-103014285D01*
X143747672Y-102966666D01*
X143652434Y-102966666D01*
X143509577Y-103014285D01*
X142938149Y-103585713D01*
X142938149Y-102966666D01*
X145762810Y-108490475D02*
X145762810Y-108014285D01*
X145477096Y-108585713D02*
X146477096Y-108252380D01*
X145477096Y-107919047D01*
X145477096Y-107061904D02*
X145477096Y-107633332D01*
X145477096Y-107347618D02*
X146477096Y-107347618D01*
X146334238Y-107442856D01*
X146239000Y-107538094D01*
X146191381Y-107633332D01*
X146381857Y-106680951D02*
X146429477Y-106633332D01*
X146477096Y-106538094D01*
X146477096Y-106299999D01*
X146429477Y-106204761D01*
X146381857Y-106157142D01*
X146286619Y-106109523D01*
X146191381Y-106109523D01*
X146048524Y-106157142D01*
X145477096Y-106728571D01*
X145477096Y-106109523D01*
X145572334Y-105680951D02*
X145524715Y-105633332D01*
X145477096Y-105680951D01*
X145524715Y-105728571D01*
X145572334Y-105680951D01*
X145477096Y-105680951D01*
X146143762Y-105299999D02*
X145477096Y-105061904D01*
X146143762Y-104823809D01*
X146477096Y-104014285D02*
X146477096Y-104204761D01*
X146429477Y-104299999D01*
X146381857Y-104347618D01*
X146239000Y-104442856D01*
X146048524Y-104490475D01*
X145667572Y-104490475D01*
X145572334Y-104442856D01*
X145524715Y-104395237D01*
X145477096Y-104299999D01*
X145477096Y-104109523D01*
X145524715Y-104014285D01*
X145572334Y-103966666D01*
X145667572Y-103919047D01*
X145905667Y-103919047D01*
X146000905Y-103966666D01*
X146048524Y-104014285D01*
X146096143Y-104109523D01*
X146096143Y-104299999D01*
X146048524Y-104395237D01*
X146000905Y-104442856D01*
X145905667Y-104490475D01*
X146381857Y-103538094D02*
X146429477Y-103490475D01*
X146477096Y-103395237D01*
X146477096Y-103157142D01*
X146429477Y-103061904D01*
X146381857Y-103014285D01*
X146286619Y-102966666D01*
X146191381Y-102966666D01*
X146048524Y-103014285D01*
X145477096Y-103585713D01*
X145477096Y-102966666D01*
X163253305Y-94804095D02*
X164253305Y-94804095D01*
X164253305Y-94566000D01*
X164205686Y-94423142D01*
X164110447Y-94327904D01*
X164015209Y-94280285D01*
X163824733Y-94232666D01*
X163681876Y-94232666D01*
X163491400Y-94280285D01*
X163396162Y-94327904D01*
X163300924Y-94423142D01*
X163253305Y-94566000D01*
X163253305Y-94804095D01*
X164158066Y-93851714D02*
X164205686Y-93804095D01*
X164253305Y-93708857D01*
X164253305Y-93470761D01*
X164205686Y-93375523D01*
X164158066Y-93327904D01*
X164062828Y-93280285D01*
X163967590Y-93280285D01*
X163824733Y-93327904D01*
X163253305Y-93899333D01*
X163253305Y-93280285D01*
X126165520Y-108538094D02*
X125165520Y-108299999D01*
X125879805Y-108109523D01*
X125165520Y-107919047D01*
X126165520Y-107680951D01*
X125165520Y-107299999D02*
X125832186Y-107299999D01*
X125641710Y-107299999D02*
X125736948Y-107252380D01*
X125784567Y-107204761D01*
X125832186Y-107109523D01*
X125832186Y-107014285D01*
X125260758Y-106680951D02*
X125213139Y-106633332D01*
X125165520Y-106680951D01*
X125213139Y-106728570D01*
X125260758Y-106680951D01*
X125165520Y-106680951D01*
X125213139Y-106252380D02*
X125165520Y-106157142D01*
X125165520Y-105966666D01*
X125213139Y-105871428D01*
X125308377Y-105823808D01*
X125355996Y-105823808D01*
X125451234Y-105871428D01*
X125498853Y-105966666D01*
X125498853Y-106109523D01*
X125546472Y-106204761D01*
X125641710Y-106252380D01*
X125689329Y-106252380D01*
X125784567Y-106204761D01*
X125832186Y-106109523D01*
X125832186Y-105966666D01*
X125784567Y-105871428D01*
X125832186Y-105490475D02*
X125165520Y-105252380D01*
X125832186Y-105014285D02*
X125165520Y-105252380D01*
X124927424Y-105347618D01*
X124879805Y-105395237D01*
X124832186Y-105490475D01*
X125213139Y-104680951D02*
X125165520Y-104585713D01*
X125165520Y-104395237D01*
X125213139Y-104299999D01*
X125308377Y-104252380D01*
X125355996Y-104252380D01*
X125451234Y-104299999D01*
X125498853Y-104395237D01*
X125498853Y-104538094D01*
X125546472Y-104633332D01*
X125641710Y-104680951D01*
X125689329Y-104680951D01*
X125784567Y-104633332D01*
X125832186Y-104538094D01*
X125832186Y-104395237D01*
X125784567Y-104299999D01*
X143013355Y-122712619D02*
X144013355Y-122712619D01*
X144013355Y-122331666D01*
X143965736Y-122236428D01*
X143918116Y-122188809D01*
X143822878Y-122141190D01*
X143680021Y-122141190D01*
X143584783Y-122188809D01*
X143537164Y-122236428D01*
X143489545Y-122331666D01*
X143489545Y-122712619D01*
X143013355Y-121712619D02*
X143680021Y-121712619D01*
X144013355Y-121712619D02*
X143965736Y-121760238D01*
X143918116Y-121712619D01*
X143965736Y-121665000D01*
X144013355Y-121712619D01*
X143918116Y-121712619D01*
X143680021Y-121236428D02*
X143013355Y-121236428D01*
X143584783Y-121236428D02*
X143632402Y-121188809D01*
X143680021Y-121093571D01*
X143680021Y-120950714D01*
X143632402Y-120855476D01*
X143537164Y-120807857D01*
X143013355Y-120807857D01*
X143918116Y-119617381D02*
X143965736Y-119569762D01*
X144013355Y-119474524D01*
X144013355Y-119236428D01*
X143965736Y-119141190D01*
X143918116Y-119093571D01*
X143822878Y-119045952D01*
X143727640Y-119045952D01*
X143584783Y-119093571D01*
X143013355Y-119665000D01*
X143013355Y-119045952D01*
X143013355Y-118093571D02*
X143013355Y-118665000D01*
X143013355Y-118379285D02*
X144013355Y-118379285D01*
X143870497Y-118474524D01*
X143775259Y-118569762D01*
X143727640Y-118665000D01*
X125229619Y-122712619D02*
X126229619Y-122712619D01*
X126229619Y-122331666D01*
X126182000Y-122236428D01*
X126134380Y-122188809D01*
X126039142Y-122141190D01*
X125896285Y-122141190D01*
X125801047Y-122188809D01*
X125753428Y-122236428D01*
X125705809Y-122331666D01*
X125705809Y-122712619D01*
X125229619Y-121712619D02*
X125896285Y-121712619D01*
X126229619Y-121712619D02*
X126182000Y-121760238D01*
X126134380Y-121712619D01*
X126182000Y-121665000D01*
X126229619Y-121712619D01*
X126134380Y-121712619D01*
X125896285Y-121236428D02*
X125229619Y-121236428D01*
X125801047Y-121236428D02*
X125848666Y-121188809D01*
X125896285Y-121093571D01*
X125896285Y-120950714D01*
X125848666Y-120855476D01*
X125753428Y-120807857D01*
X125229619Y-120807857D01*
X126229619Y-119141190D02*
X126229619Y-119331666D01*
X126182000Y-119426905D01*
X126134380Y-119474524D01*
X125991523Y-119569762D01*
X125801047Y-119617381D01*
X125420095Y-119617381D01*
X125324857Y-119569762D01*
X125277238Y-119522143D01*
X125229619Y-119426905D01*
X125229619Y-119236428D01*
X125277238Y-119141190D01*
X125324857Y-119093571D01*
X125420095Y-119045952D01*
X125658190Y-119045952D01*
X125753428Y-119093571D01*
X125801047Y-119141190D01*
X125848666Y-119236428D01*
X125848666Y-119426905D01*
X125801047Y-119522143D01*
X125753428Y-119569762D01*
X125658190Y-119617381D01*
X125896285Y-118188809D02*
X125229619Y-118188809D01*
X126277238Y-118426905D02*
X125562952Y-118665000D01*
X125562952Y-118045952D01*
X156239829Y-122379285D02*
X156192210Y-122236428D01*
X156144591Y-122188809D01*
X156049353Y-122141190D01*
X155906496Y-122141190D01*
X155811258Y-122188809D01*
X155763639Y-122236428D01*
X155716020Y-122331666D01*
X155716020Y-122712619D01*
X156716020Y-122712619D01*
X156716020Y-122379285D01*
X156668401Y-122284047D01*
X156620781Y-122236428D01*
X156525543Y-122188809D01*
X156430305Y-122188809D01*
X156335067Y-122236428D01*
X156287448Y-122284047D01*
X156239829Y-122379285D01*
X156239829Y-122712619D01*
X155811258Y-121141190D02*
X155763639Y-121188809D01*
X155716020Y-121331666D01*
X155716020Y-121426904D01*
X155763639Y-121569762D01*
X155858877Y-121665000D01*
X155954115Y-121712619D01*
X156144591Y-121760238D01*
X156287448Y-121760238D01*
X156477924Y-121712619D01*
X156573162Y-121665000D01*
X156668401Y-121569762D01*
X156716020Y-121426904D01*
X156716020Y-121331666D01*
X156668401Y-121188809D01*
X156620781Y-121141190D01*
X156287448Y-120569762D02*
X156335067Y-120665000D01*
X156382686Y-120712619D01*
X156477924Y-120760238D01*
X156525543Y-120760238D01*
X156620781Y-120712619D01*
X156668401Y-120665000D01*
X156716020Y-120569762D01*
X156716020Y-120379285D01*
X156668401Y-120284047D01*
X156620781Y-120236428D01*
X156525543Y-120188809D01*
X156477924Y-120188809D01*
X156382686Y-120236428D01*
X156335067Y-120284047D01*
X156287448Y-120379285D01*
X156287448Y-120569762D01*
X156239829Y-120665000D01*
X156192210Y-120712619D01*
X156096972Y-120760238D01*
X155906496Y-120760238D01*
X155811258Y-120712619D01*
X155763639Y-120665000D01*
X155716020Y-120569762D01*
X155716020Y-120379285D01*
X155763639Y-120284047D01*
X155811258Y-120236428D01*
X155906496Y-120188809D01*
X156096972Y-120188809D01*
X156192210Y-120236428D01*
X156239829Y-120284047D01*
X156287448Y-120379285D01*
X156382686Y-119331666D02*
X155716020Y-119331666D01*
X156763639Y-119569762D02*
X156049353Y-119807857D01*
X156049353Y-119188809D01*
X156716020Y-118903095D02*
X156716020Y-118236428D01*
X155716020Y-118665000D01*
X155811258Y-117284047D02*
X155763639Y-117331666D01*
X155716020Y-117474523D01*
X155716020Y-117569762D01*
X155763639Y-117712619D01*
X155858877Y-117807857D01*
X155954115Y-117855476D01*
X156144591Y-117903095D01*
X156287448Y-117903095D01*
X156477924Y-117855476D01*
X156573162Y-117807857D01*
X156668401Y-117712619D01*
X156716020Y-117569762D01*
X156716020Y-117474523D01*
X156668401Y-117331666D01*
X156620781Y-117284047D01*
X168613333Y-108490476D02*
X168613333Y-108014285D01*
X168327619Y-108585714D02*
X169327619Y-108252380D01*
X168327619Y-107919047D01*
X168327619Y-107061904D02*
X168327619Y-107633333D01*
X168327619Y-107347619D02*
X169327619Y-107347619D01*
X169184761Y-107442857D01*
X169089523Y-107538095D01*
X169041904Y-107633333D01*
X169232380Y-106680952D02*
X169280000Y-106633333D01*
X169327619Y-106538095D01*
X169327619Y-106300000D01*
X169280000Y-106204761D01*
X169232380Y-106157142D01*
X169137142Y-106109523D01*
X169041904Y-106109523D01*
X168899047Y-106157142D01*
X168327619Y-106728571D01*
X168327619Y-106109523D01*
X160996492Y-108490475D02*
X160996492Y-108014285D01*
X160710778Y-108585713D02*
X161710778Y-108252380D01*
X160710778Y-107919047D01*
X160710778Y-107061904D02*
X160710778Y-107633332D01*
X160710778Y-107347618D02*
X161710778Y-107347618D01*
X161567920Y-107442856D01*
X161472682Y-107538094D01*
X161425063Y-107633332D01*
X161710778Y-106157142D02*
X161710778Y-106633332D01*
X161234587Y-106680951D01*
X161282206Y-106633332D01*
X161329825Y-106538094D01*
X161329825Y-106299999D01*
X161282206Y-106204761D01*
X161234587Y-106157142D01*
X161139349Y-106109523D01*
X160901254Y-106109523D01*
X160806016Y-106157142D01*
X160758397Y-106204761D01*
X160710778Y-106299999D01*
X160710778Y-106538094D01*
X160758397Y-106633332D01*
X160806016Y-106680951D01*
X160806016Y-105680951D02*
X160758397Y-105633332D01*
X160710778Y-105680951D01*
X160758397Y-105728570D01*
X160806016Y-105680951D01*
X160710778Y-105680951D01*
X160758397Y-105252380D02*
X160710778Y-105157142D01*
X160710778Y-104966666D01*
X160758397Y-104871428D01*
X160853635Y-104823808D01*
X160901254Y-104823808D01*
X160996492Y-104871428D01*
X161044111Y-104966666D01*
X161044111Y-105109523D01*
X161091730Y-105204761D01*
X161186968Y-105252380D01*
X161234587Y-105252380D01*
X161329825Y-105204761D01*
X161377444Y-105109523D01*
X161377444Y-104966666D01*
X161329825Y-104871428D01*
X161377444Y-104490475D02*
X160710778Y-104252380D01*
X161377444Y-104014285D02*
X160710778Y-104252380D01*
X160472682Y-104347618D01*
X160425063Y-104395237D01*
X160377444Y-104490475D01*
X160758397Y-103680951D02*
X160710778Y-103585713D01*
X160710778Y-103395237D01*
X160758397Y-103299999D01*
X160853635Y-103252380D01*
X160901254Y-103252380D01*
X160996492Y-103299999D01*
X161044111Y-103395237D01*
X161044111Y-103538094D01*
X161091730Y-103633332D01*
X161186968Y-103680951D01*
X161234587Y-103680951D01*
X161329825Y-103633332D01*
X161377444Y-103538094D01*
X161377444Y-103395237D01*
X161329825Y-103299999D01*
X133153135Y-94851713D02*
X133153135Y-94375523D01*
X132867421Y-94946951D02*
X133867421Y-94613618D01*
X132867421Y-94280285D01*
X133867421Y-93518380D02*
X133867421Y-93708856D01*
X133819802Y-93804094D01*
X133772182Y-93851713D01*
X133629325Y-93946951D01*
X133438849Y-93994570D01*
X133057897Y-93994570D01*
X132962659Y-93946951D01*
X132915040Y-93899332D01*
X132867421Y-93804094D01*
X132867421Y-93613618D01*
X132915040Y-93518380D01*
X132962659Y-93470761D01*
X133057897Y-93423142D01*
X133295992Y-93423142D01*
X133391230Y-93470761D01*
X133438849Y-93518380D01*
X133486468Y-93613618D01*
X133486468Y-93804094D01*
X133438849Y-93899332D01*
X133391230Y-93946951D01*
X133295992Y-93994570D01*
X138145969Y-108490475D02*
X138145969Y-108014285D01*
X137860255Y-108585713D02*
X138860255Y-108252380D01*
X137860255Y-107919047D01*
X137860255Y-107061904D02*
X137860255Y-107633332D01*
X137860255Y-107347618D02*
X138860255Y-107347618D01*
X138717397Y-107442856D01*
X138622159Y-107538094D01*
X138574540Y-107633332D01*
X138860255Y-106157142D02*
X138860255Y-106633332D01*
X138384064Y-106680951D01*
X138431683Y-106633332D01*
X138479302Y-106538094D01*
X138479302Y-106299999D01*
X138431683Y-106204761D01*
X138384064Y-106157142D01*
X138288826Y-106109523D01*
X138050731Y-106109523D01*
X137955493Y-106157142D01*
X137907874Y-106204761D01*
X137860255Y-106299999D01*
X137860255Y-106538094D01*
X137907874Y-106633332D01*
X137955493Y-106680951D01*
X137955493Y-105680951D02*
X137907874Y-105633332D01*
X137860255Y-105680951D01*
X137907874Y-105728571D01*
X137955493Y-105680951D01*
X137860255Y-105680951D01*
X138526921Y-105299999D02*
X137860255Y-105061904D01*
X138526921Y-104823809D01*
X138860255Y-104014285D02*
X138860255Y-104204761D01*
X138812636Y-104299999D01*
X138765016Y-104347618D01*
X138622159Y-104442856D01*
X138431683Y-104490475D01*
X138050731Y-104490475D01*
X137955493Y-104442856D01*
X137907874Y-104395237D01*
X137860255Y-104299999D01*
X137860255Y-104109523D01*
X137907874Y-104014285D01*
X137955493Y-103966666D01*
X138050731Y-103919047D01*
X138288826Y-103919047D01*
X138384064Y-103966666D01*
X138431683Y-104014285D01*
X138479302Y-104109523D01*
X138479302Y-104299999D01*
X138431683Y-104395237D01*
X138384064Y-104442856D01*
X138288826Y-104490475D01*
X138765016Y-103538094D02*
X138812636Y-103490475D01*
X138860255Y-103395237D01*
X138860255Y-103157142D01*
X138812636Y-103061904D01*
X138765016Y-103014285D01*
X138669778Y-102966666D01*
X138574540Y-102966666D01*
X138431683Y-103014285D01*
X137860255Y-103585713D01*
X137860255Y-102966666D01*
X163535439Y-108490476D02*
X163535439Y-108014285D01*
X163249725Y-108585714D02*
X164249725Y-108252380D01*
X163249725Y-107919047D01*
X163249725Y-107061904D02*
X163249725Y-107633333D01*
X163249725Y-107347619D02*
X164249725Y-107347619D01*
X164106867Y-107442857D01*
X164011629Y-107538095D01*
X163964010Y-107633333D01*
X163916391Y-106204761D02*
X163249725Y-106204761D01*
X164297344Y-106442857D02*
X163583058Y-106680952D01*
X163583058Y-106061904D01*
X148346077Y-94851713D02*
X148346077Y-94375523D01*
X148060363Y-94946951D02*
X149060363Y-94613618D01*
X148060363Y-94280285D01*
X149060363Y-93756475D02*
X149060363Y-93661237D01*
X149012744Y-93565999D01*
X148965124Y-93518380D01*
X148869886Y-93470761D01*
X148679410Y-93423142D01*
X148441315Y-93423142D01*
X148250839Y-93470761D01*
X148155601Y-93518380D01*
X148107982Y-93565999D01*
X148060363Y-93661237D01*
X148060363Y-93756475D01*
X148107982Y-93851713D01*
X148155601Y-93899332D01*
X148250839Y-93946951D01*
X148441315Y-93994570D01*
X148679410Y-93994570D01*
X148869886Y-93946951D01*
X148965124Y-93899332D01*
X149012744Y-93851713D01*
X149060363Y-93756475D01*
X127704467Y-107871428D02*
X128180657Y-108204761D01*
X127704467Y-108442857D02*
X128704467Y-108442857D01*
X128704467Y-108061904D01*
X128656848Y-107966666D01*
X128609228Y-107919047D01*
X128513990Y-107871428D01*
X128371133Y-107871428D01*
X128275895Y-107919047D01*
X128228276Y-107966666D01*
X128180657Y-108061904D01*
X128180657Y-108442857D01*
X127704467Y-107014285D02*
X128704467Y-107014285D01*
X127752086Y-107014285D02*
X127704467Y-107109523D01*
X127704467Y-107300000D01*
X127752086Y-107395238D01*
X127799705Y-107442857D01*
X127894943Y-107490476D01*
X128180657Y-107490476D01*
X128275895Y-107442857D01*
X128323514Y-107395238D01*
X128371133Y-107300000D01*
X128371133Y-107109523D01*
X128323514Y-107014285D01*
X127799705Y-106538095D02*
X127752086Y-106490476D01*
X127704467Y-106538095D01*
X127752086Y-106585714D01*
X127799705Y-106538095D01*
X127704467Y-106538095D01*
X127752086Y-106109523D02*
X127704467Y-106014285D01*
X127704467Y-105823809D01*
X127752086Y-105728571D01*
X127847324Y-105680952D01*
X127894943Y-105680952D01*
X127990181Y-105728571D01*
X128037800Y-105823809D01*
X128037800Y-105966666D01*
X128085419Y-106061904D01*
X128180657Y-106109523D01*
X128228276Y-106109523D01*
X128323514Y-106061904D01*
X128371133Y-105966666D01*
X128371133Y-105823809D01*
X128323514Y-105728571D01*
X128371133Y-105347619D02*
X127704467Y-105109523D01*
X128371133Y-104871428D02*
X127704467Y-105109523D01*
X127466371Y-105204761D01*
X127418752Y-105252380D01*
X127371133Y-105347619D01*
X127752086Y-104538095D02*
X127704467Y-104442857D01*
X127704467Y-104252380D01*
X127752086Y-104157142D01*
X127847324Y-104109523D01*
X127894943Y-104109523D01*
X127990181Y-104157142D01*
X128037800Y-104252380D01*
X128037800Y-104395238D01*
X128085419Y-104490476D01*
X128180657Y-104538095D01*
X128228276Y-104538095D01*
X128323514Y-104490476D01*
X128371133Y-104395238D01*
X128371133Y-104252380D01*
X128323514Y-104157142D01*
X153124677Y-94804095D02*
X154124677Y-94804095D01*
X154124677Y-94566000D01*
X154077058Y-94423142D01*
X153981819Y-94327904D01*
X153886581Y-94280285D01*
X153696105Y-94232666D01*
X153553248Y-94232666D01*
X153362772Y-94280285D01*
X153267534Y-94327904D01*
X153172296Y-94423142D01*
X153124677Y-94566000D01*
X153124677Y-94804095D01*
X154124677Y-93375523D02*
X154124677Y-93566000D01*
X154077058Y-93661238D01*
X154029438Y-93708857D01*
X153886581Y-93804095D01*
X153696105Y-93851714D01*
X153315153Y-93851714D01*
X153219915Y-93804095D01*
X153172296Y-93756476D01*
X153124677Y-93661238D01*
X153124677Y-93470761D01*
X153172296Y-93375523D01*
X153219915Y-93327904D01*
X153315153Y-93280285D01*
X153553248Y-93280285D01*
X153648486Y-93327904D01*
X153696105Y-93375523D01*
X153743724Y-93470761D01*
X153743724Y-93661238D01*
X153696105Y-93756476D01*
X153648486Y-93804095D01*
X153553248Y-93851714D01*
X165785462Y-94804095D02*
X166785462Y-94804095D01*
X166785462Y-94566000D01*
X166737843Y-94423142D01*
X166642604Y-94327904D01*
X166547366Y-94280285D01*
X166356890Y-94232666D01*
X166214033Y-94232666D01*
X166023557Y-94280285D01*
X165928319Y-94327904D01*
X165833081Y-94423142D01*
X165785462Y-94566000D01*
X165785462Y-94804095D01*
X165785462Y-93280285D02*
X165785462Y-93851714D01*
X165785462Y-93566000D02*
X166785462Y-93566000D01*
X166642604Y-93661238D01*
X166547366Y-93756476D01*
X166499747Y-93851714D01*
X128088821Y-94851713D02*
X128088821Y-94375523D01*
X127803107Y-94946951D02*
X128803107Y-94613618D01*
X127803107Y-94280285D01*
X128374535Y-93804094D02*
X128422154Y-93899332D01*
X128469773Y-93946951D01*
X128565011Y-93994570D01*
X128612630Y-93994570D01*
X128707868Y-93946951D01*
X128755488Y-93899332D01*
X128803107Y-93804094D01*
X128803107Y-93613618D01*
X128755488Y-93518380D01*
X128707868Y-93470761D01*
X128612630Y-93423142D01*
X128565011Y-93423142D01*
X128469773Y-93470761D01*
X128422154Y-93518380D01*
X128374535Y-93613618D01*
X128374535Y-93804094D01*
X128326916Y-93899332D01*
X128279297Y-93946951D01*
X128184059Y-93994570D01*
X127993583Y-93994570D01*
X127898345Y-93946951D01*
X127850726Y-93899332D01*
X127803107Y-93804094D01*
X127803107Y-93613618D01*
X127850726Y-93518380D01*
X127898345Y-93470761D01*
X127993583Y-93423142D01*
X128184059Y-93423142D01*
X128279297Y-93470761D01*
X128326916Y-93518380D01*
X128374535Y-93613618D01*
X140749606Y-94851713D02*
X140749606Y-94375523D01*
X140463892Y-94946951D02*
X141463892Y-94613618D01*
X140463892Y-94280285D01*
X141463892Y-94042189D02*
X141463892Y-93423142D01*
X141082939Y-93756475D01*
X141082939Y-93613618D01*
X141035320Y-93518380D01*
X140987701Y-93470761D01*
X140892463Y-93423142D01*
X140654368Y-93423142D01*
X140559130Y-93470761D01*
X140511511Y-93518380D01*
X140463892Y-93613618D01*
X140463892Y-93899332D01*
X140511511Y-93994570D01*
X140559130Y-94042189D01*
X153379651Y-108490476D02*
X153379651Y-108014286D01*
X153093937Y-108585714D02*
X154093937Y-108252381D01*
X153093937Y-107919047D01*
X153093937Y-107061905D02*
X153093937Y-107633333D01*
X153093937Y-107347619D02*
X154093937Y-107347619D01*
X153951079Y-107442857D01*
X153855841Y-107538095D01*
X153808222Y-107633333D01*
X153760603Y-106204762D02*
X153093937Y-106204762D01*
X154141556Y-106442857D02*
X153427270Y-106680952D01*
X153427270Y-106061905D01*
X153189175Y-105680952D02*
X153141556Y-105633333D01*
X153093937Y-105680952D01*
X153141556Y-105728571D01*
X153189175Y-105680952D01*
X153093937Y-105680952D01*
X153141556Y-105252381D02*
X153093937Y-105157143D01*
X153093937Y-104966667D01*
X153141556Y-104871428D01*
X153236794Y-104823809D01*
X153284413Y-104823809D01*
X153379651Y-104871428D01*
X153427270Y-104966667D01*
X153427270Y-105109524D01*
X153474889Y-105204762D01*
X153570127Y-105252381D01*
X153617746Y-105252381D01*
X153712984Y-105204762D01*
X153760603Y-105109524D01*
X153760603Y-104966667D01*
X153712984Y-104871428D01*
X153141556Y-104442857D02*
X153093937Y-104347619D01*
X153093937Y-104157143D01*
X153141556Y-104061905D01*
X153236794Y-104014286D01*
X153284413Y-104014286D01*
X153379651Y-104061905D01*
X153427270Y-104157143D01*
X153427270Y-104300000D01*
X153474889Y-104395238D01*
X153570127Y-104442857D01*
X153617746Y-104442857D01*
X153712984Y-104395238D01*
X153760603Y-104300000D01*
X153760603Y-104157143D01*
X153712984Y-104061905D01*
X153760603Y-103728571D02*
X153760603Y-103347619D01*
X154093937Y-103585714D02*
X153236794Y-103585714D01*
X153141556Y-103538095D01*
X153093937Y-103442857D01*
X153093937Y-103347619D01*
D11*
%TO.C,J2*%
X167425721Y-82395547D02*
X168115150Y-82395547D01*
X167770436Y-82395547D02*
X167770436Y-81189047D01*
X167885340Y-81361404D01*
X168000245Y-81476309D01*
X168115150Y-81533761D01*
D12*
%TO.C,J5*%
X162511000Y-123429000D02*
X124351000Y-123429000D01*
X124351000Y-126089000D02*
X124351000Y-123429000D01*
X162511000Y-126089000D02*
X124351000Y-126089000D01*
X162511000Y-126089000D02*
X162511000Y-123429000D01*
X163781000Y-126089000D02*
X165111000Y-126089000D01*
X165111000Y-126089000D02*
X165111000Y-124759000D01*
%TO.C,J4*%
X162511000Y-130193000D02*
X124351000Y-130193000D01*
X162511000Y-130193000D02*
X162511000Y-127533000D01*
X165111000Y-130193000D02*
X165111000Y-128863000D01*
X124351000Y-130193000D02*
X124351000Y-127533000D01*
X163781000Y-130193000D02*
X165111000Y-130193000D01*
X162511000Y-127533000D02*
X124351000Y-127533000D01*
%TO.C,J8*%
X167586000Y-102654700D02*
X167586000Y-99994700D01*
X167586000Y-102654700D02*
X119266000Y-102654700D01*
X119266000Y-102654700D02*
X119266000Y-99994700D01*
X170186000Y-102654700D02*
X170186000Y-101324700D01*
X168856000Y-102654700D02*
X170186000Y-102654700D01*
X167586000Y-99994700D02*
X119266000Y-99994700D01*
%TO.C,J7*%
X119266000Y-111558000D02*
X119266000Y-108898000D01*
X167586000Y-108898000D02*
X119266000Y-108898000D01*
X167586000Y-111558000D02*
X119266000Y-111558000D01*
X170186000Y-111558000D02*
X170186000Y-110228000D01*
X168856000Y-111558000D02*
X170186000Y-111558000D01*
X167586000Y-111558000D02*
X167586000Y-108898000D01*
%TO.C,J6*%
X168856000Y-116084700D02*
X170186000Y-116084700D01*
X167586000Y-116084700D02*
X167586000Y-113424700D01*
X170186000Y-116084700D02*
X170186000Y-114754700D01*
X119266000Y-116084700D02*
X119266000Y-113424700D01*
X167586000Y-116084700D02*
X119266000Y-116084700D01*
X167586000Y-113424700D02*
X119266000Y-113424700D01*
%TO.C,J9*%
X167586000Y-98128000D02*
X167586000Y-95468000D01*
X170186000Y-98128000D02*
X170186000Y-96798000D01*
X167586000Y-95468000D02*
X119266000Y-95468000D01*
X167586000Y-98128000D02*
X119266000Y-98128000D01*
X168856000Y-98128000D02*
X170186000Y-98128000D01*
X119266000Y-98128000D02*
X119266000Y-95468000D01*
%TD*%
M02*
