M48
; DRILL file {KiCad (6.0.2)} date Fri Nov 18 22:33:20 2022
; FORMAT={-:-/ absolute / metric / decimal}
; #@! TF.CreationDate,2022-11-18T22:33:20-06:00
; #@! TF.GenerationSoftware,Kicad,Pcbnew,(6.0.2)
; #@! TF.FileFunction,Plated,1,2,PTH
FMAT,2
METRIC
; #@! TA.AperFunction,Plated,PTH,ViaDrill
T1C0.300
; #@! TA.AperFunction,Plated,PTH,ViaDrill
T2C0.400
; #@! TA.AperFunction,Plated,PTH,ComponentDrill
T3C1.000
; #@! TA.AperFunction,Plated,PTH,ComponentDrill
T4C1.070
; #@! TA.AperFunction,Plated,PTH,ComponentDrill
T5C1.270
; #@! TA.AperFunction,Plated,PTH,ComponentDrill
T6C4.680
%
G90
G05
T1
X110.883Y-131.669
X115.142Y-128.741
X116.592Y-125.039
X117.692Y-105.656
X118.218Y-96.754
X118.694Y-103.231
X118.712Y-104.029
X119.706Y-98.111
X119.717Y-106.323
X119.762Y-157.838
X120.243Y-103.579
X120.502Y-106.68
X120.512Y-104.329
X121.366Y-113.115
X121.98Y-100.364
X123.144Y-129.693
X123.967Y-149.987
X124.002Y-160.38
X124.199Y-158.001
X124.796Y-156.706
X124.855Y-150.732
X124.9Y-175.482
X124.983Y-89.646
X125.248Y-183.458
X125.418Y-159.612
X125.822Y-99.284
X126.017Y-184.43
X126.037Y-157.95
X126.11Y-146.061
X126.19Y-147.922
X126.207Y-135.249
X126.309Y-156.401
X126.323Y-159.263
X126.396Y-165.874
X126.433Y-130.432
X126.556Y-168.948
X126.567Y-180.908
X126.828Y-165.04
X126.984Y-94.305
X127.213Y-182.34
X127.315Y-111.924
X127.348Y-172.238
X127.377Y-150.221
X127.588Y-163.678
X127.735Y-171.635
X128.275Y-170.411
X128.281Y-171.19
X128.328Y-165.185
X128.714Y-177.736
X128.724Y-158.495
X129.04Y-170.839
X129.386Y-152.047
X129.74Y-168.895
X129.992Y-158.354
X130.075Y-164.216
X130.169Y-165.429
X131.186Y-179.482
X131.285Y-132.852
X131.847Y-158.745
X132.051Y-150.659
X132.532Y-172.58
X132.658Y-138.044
X132.735Y-184.369
X132.798Y-145.911
X132.853Y-160.093
X133.155Y-165.087
X133.242Y-179.435
X133.663Y-103.579
X133.822Y-151.727
X133.933Y-171.157
X134.112Y-168.266
X134.253Y-148.738
X134.464Y-113.433
X134.464Y-116.917
X135.05Y-150.159
X135.096Y-137.725
X135.282Y-99.284
X135.841Y-121.416
X135.906Y-98.504
X136.357Y-156.293
X136.451Y-88.688
X136.731Y-150.736
X137.301Y-170.248
X137.313Y-172.789
X137.334Y-167.112
X137.579Y-184.15
X137.638Y-156.301
X138.047Y-167.987
X138.248Y-172.097
X138.332Y-89.091
X138.701Y-182.582
X138.84Y-166.342
X139.201Y-140.018
X139.646Y-90.63
X139.646Y-106.79
X140.056Y-160.435
X140.169Y-151.966
X140.594Y-150.331
X141.029Y-131.796
X141.056Y-182.497
X141.577Y-150.909
X141.721Y-131.241
X142.166Y-181.951
X142.186Y-98.501
X142.327Y-92.416
X142.832Y-151.5
X142.868Y-89.122
X142.89Y-130.642
X143.526Y-116.464
X144.104Y-164.614
X144.611Y-151.841
X144.661Y-179.749
X144.845Y-100.623
X145.221Y-143.99
X145.544Y-153.472
X145.942Y-159.636
X145.982Y-149.645
X146.148Y-131.722
X146.717Y-181.819
X147.117Y-141.807
X147.674Y-158.683
X147.781Y-163.557
X147.876Y-127.684
X147.954Y-169.775
X148.235Y-156.161
X148.243Y-159.149
X148.25Y-150.261
X148.257Y-132.722
X148.324Y-136.339
X148.429Y-79.481
X148.761Y-167.666
X148.77Y-153.888
X148.839Y-155.058
X148.87Y-151.371
X148.9Y-142.152
X148.967Y-185.23
X149.094Y-80.151
X149.703Y-104.084
X149.791Y-113.376
X151.146Y-182.602
X152.062Y-180.352
X152.246Y-115.747
X152.288Y-153.076
X152.398Y-155.349
X152.61Y-126.416
X152.813Y-174.316
X153.183Y-175.284
X153.267Y-144.11
X153.267Y-165.255
X153.318Y-148.497
X153.844Y-158.719
X153.866Y-149.045
X153.933Y-113.445
X154.267Y-144.183
X154.361Y-149.54
X154.427Y-148.05
X154.7Y-155.424
X154.729Y-98.036
X154.729Y-99.737
X155.127Y-148.074
X155.267Y-144.187
X155.509Y-148.682
X156.284Y-154.261
X156.585Y-149.728
X157.29Y-149.692
X157.426Y-80.132
X157.91Y-108.346
X158.742Y-89.198
X159.383Y-93.859
X160.059Y-100.179
X160.062Y-147.763
X160.159Y-80.536
X160.267Y-166.918
X160.484Y-94.207
X161.075Y-150.201
X161.267Y-152.595
X161.513Y-99.507
X161.89Y-82.305
X161.895Y-167.465
X162.218Y-133.761
X162.267Y-149.88
X162.332Y-174.461
X162.391Y-114.024
X162.593Y-140.365
X162.618Y-134.461
X162.783Y-141.216
X162.789Y-167.384
X162.891Y-131.645
X163.6Y-80.783
X163.61Y-131.518
X163.776Y-99.533
X164.028Y-149.472
X164.226Y-167.684
X164.317Y-166.214
X164.341Y-80.535
X164.358Y-82.002
X164.821Y-131.06
X164.926Y-103.59
X164.926Y-167.485
X165.037Y-82.698
X165.098Y-165.229
X165.159Y-81.982
X165.228Y-137.489
X165.267Y-147.953
X165.47Y-185.23
X165.871Y-164.507
X166.008Y-155.535
X166.272Y-168.262
X166.34Y-167.492
X166.423Y-153.088
X166.428Y-158.094
X166.433Y-154.09
X166.434Y-164.959
X166.44Y-161.361
X166.75Y-134.65
X167.232Y-118.573
X167.516Y-112.871
X167.746Y-100.052
X167.984Y-143.986
X168.197Y-140.251
X168.329Y-136.514
X168.45Y-138.919
X168.856Y-105.284
X169.08Y-125.631
X169.396Y-140.518
X169.465Y-116.282
X169.601Y-156.736
X169.735Y-94.645
X169.792Y-154.792
X170.004Y-159.399
X170.583Y-112.343
X171.555Y-107.57
X171.595Y-136.521
X175.002Y-135.571
T2
X107.23Y-70.769
X124.896Y-144.838
X131.357Y-160.013
X141.477Y-156.722
X158.601Y-150.242
X166.571Y-147.054
X180.681Y-81.349
T3
X120.596Y-96.798
X120.596Y-101.325
X120.596Y-110.228
X120.596Y-114.755
X123.136Y-96.798
X123.136Y-101.325
X123.136Y-110.228
X123.136Y-114.755
X125.676Y-96.798
X125.676Y-101.325
X125.676Y-110.228
X125.676Y-114.755
X125.681Y-124.759
X125.681Y-128.863
X128.216Y-96.798
X128.216Y-101.325
X128.216Y-110.228
X128.216Y-114.755
X128.221Y-124.759
X128.221Y-128.863
X130.756Y-96.798
X130.756Y-101.325
X130.756Y-110.228
X130.756Y-114.755
X130.761Y-124.759
X130.761Y-128.863
X133.296Y-96.798
X133.296Y-101.325
X133.296Y-110.228
X133.296Y-114.755
X133.301Y-124.759
X133.301Y-128.863
X135.836Y-96.798
X135.836Y-101.325
X135.836Y-110.228
X135.836Y-114.755
X135.841Y-124.759
X135.841Y-128.863
X138.376Y-96.798
X138.376Y-101.325
X138.376Y-110.228
X138.376Y-114.755
X138.381Y-124.759
X138.381Y-128.863
X140.916Y-96.798
X140.916Y-101.325
X140.916Y-110.228
X140.916Y-114.755
X140.921Y-124.759
X140.921Y-128.863
X143.456Y-96.798
X143.456Y-101.325
X143.456Y-110.228
X143.456Y-114.755
X143.461Y-124.759
X143.461Y-128.863
X145.996Y-96.798
X145.996Y-101.325
X145.996Y-110.228
X145.996Y-114.755
X146.001Y-124.759
X146.001Y-128.863
X148.536Y-96.798
X148.536Y-101.325
X148.536Y-110.228
X148.536Y-114.755
X148.541Y-124.759
X148.541Y-128.863
X151.076Y-96.798
X151.076Y-101.325
X151.076Y-110.228
X151.076Y-114.755
X151.081Y-124.759
X151.081Y-128.863
X153.616Y-96.798
X153.616Y-101.325
X153.616Y-110.228
X153.616Y-114.755
X153.621Y-124.759
X153.621Y-128.863
X156.156Y-96.798
X156.156Y-101.325
X156.156Y-110.228
X156.156Y-114.755
X156.161Y-124.759
X156.161Y-128.863
X158.696Y-96.798
X158.696Y-101.325
X158.696Y-110.228
X158.696Y-114.755
X158.701Y-124.759
X158.701Y-128.863
X161.236Y-96.798
X161.236Y-101.325
X161.236Y-110.228
X161.236Y-114.755
X161.241Y-124.759
X161.241Y-128.863
X163.776Y-96.798
X163.776Y-101.325
X163.776Y-110.228
X163.776Y-114.755
X163.781Y-124.759
X163.781Y-128.863
X166.316Y-96.798
X166.316Y-101.325
X166.316Y-110.228
X166.316Y-114.755
X168.856Y-96.798
X168.856Y-101.325
X168.856Y-110.228
X168.856Y-114.755
T4
X109.476Y-76.511
X109.478Y-70.635
X109.478Y-79.968
X109.479Y-73.538
X109.48Y-67.186
T5
X182.246Y-67.091
X182.246Y-74.121
X184.389Y-68.364
X184.429Y-72.815
T6
X144.577Y-176.279
T0
M30
