%TF.GenerationSoftware,KiCad,Pcbnew,(6.0.2)*%
%TF.CreationDate,2022-11-18T22:33:18-06:00*%
%TF.ProjectId,REF1395A Optimized,52454631-3339-4354-9120-4f7074696d69,rev?*%
%TF.SameCoordinates,Original*%
%TF.FileFunction,Copper,L1,Top*%
%TF.FilePolarity,Positive*%
%FSLAX46Y46*%
G04 Gerber Fmt 4.6, Leading zero omitted, Abs format (unit mm)*
G04 Created by KiCad (PCBNEW (6.0.2)) date 2022-11-18 22:33:18*
%MOMM*%
%LPD*%
G01*
G04 APERTURE LIST*
G04 Aperture macros list*
%AMRoundRect*
0 Rectangle with rounded corners*
0 $1 Rounding radius*
0 $2 $3 $4 $5 $6 $7 $8 $9 X,Y pos of 4 corners*
0 Add a 4 corners polygon primitive as box body*
4,1,4,$2,$3,$4,$5,$6,$7,$8,$9,$2,$3,0*
0 Add four circle primitives for the rounded corners*
1,1,$1+$1,$2,$3*
1,1,$1+$1,$4,$5*
1,1,$1+$1,$6,$7*
1,1,$1+$1,$8,$9*
0 Add four rect primitives between the rounded corners*
20,1,$1+$1,$2,$3,$4,$5,0*
20,1,$1+$1,$4,$5,$6,$7,0*
20,1,$1+$1,$6,$7,$8,$9,0*
20,1,$1+$1,$8,$9,$2,$3,0*%
G04 Aperture macros list end*
%ADD10C,0.170000*%
%TA.AperFunction,NonConductor*%
%ADD11C,0.170000*%
%TD*%
%TA.AperFunction,SMDPad,CuDef*%
%ADD12R,2.250000X0.600000*%
%TD*%
%TA.AperFunction,SMDPad,CuDef*%
%ADD13R,0.600000X2.250000*%
%TD*%
%TA.AperFunction,SMDPad,CuDef*%
%ADD14RoundRect,0.150000X0.150000X-0.587500X0.150000X0.587500X-0.150000X0.587500X-0.150000X-0.587500X0*%
%TD*%
%TA.AperFunction,ComponentPad*%
%ADD15C,5.240000*%
%TD*%
%TA.AperFunction,SMDPad,CuDef*%
%ADD16R,0.600000X3.420000*%
%TD*%
%TA.AperFunction,SMDPad,CuDef*%
%ADD17R,1.670000X1.670000*%
%TD*%
%TA.AperFunction,SMDPad,CuDef*%
%ADD18R,1.500000X6.250000*%
%TD*%
%TA.AperFunction,SMDPad,CuDef*%
%ADD19R,1.000000X6.000000*%
%TD*%
%TA.AperFunction,ComponentPad*%
%ADD20C,1.830000*%
%TD*%
%TA.AperFunction,ComponentPad*%
%ADD21C,2.020000*%
%TD*%
%TA.AperFunction,SMDPad,CuDef*%
%ADD22R,0.650000X2.300000*%
%TD*%
%TA.AperFunction,SMDPad,CuDef*%
%ADD23R,2.300000X0.650000*%
%TD*%
%TA.AperFunction,ComponentPad*%
%ADD24R,1.700000X1.700000*%
%TD*%
%TA.AperFunction,ComponentPad*%
%ADD25O,1.700000X1.700000*%
%TD*%
%TA.AperFunction,ViaPad*%
%ADD26C,0.500000*%
%TD*%
%TA.AperFunction,ViaPad*%
%ADD27C,0.800000*%
%TD*%
%TA.AperFunction,Conductor*%
%ADD28C,0.200000*%
%TD*%
%TA.AperFunction,Conductor*%
%ADD29C,0.500000*%
%TD*%
G04 APERTURE END LIST*
D10*
D11*
X105519857Y-77417000D02*
X104948428Y-77767000D01*
X105519857Y-78017000D02*
X104319857Y-78017000D01*
X104319857Y-77617000D01*
X104377000Y-77517000D01*
X104434142Y-77467000D01*
X104548428Y-77417000D01*
X104719857Y-77417000D01*
X104834142Y-77467000D01*
X104891285Y-77517000D01*
X104948428Y-77617000D01*
X104948428Y-78017000D01*
X104891285Y-76967000D02*
X104891285Y-76617000D01*
X105519857Y-76467000D02*
X105519857Y-76967000D01*
X104319857Y-76967000D01*
X104319857Y-76467000D01*
X104891285Y-75667000D02*
X104891285Y-76017000D01*
X105519857Y-76017000D02*
X104319857Y-76017000D01*
X104319857Y-75517000D01*
X105519857Y-74567000D02*
X105519857Y-75167000D01*
X105519857Y-74867000D02*
X104319857Y-74867000D01*
X104491285Y-74967000D01*
X104605571Y-75067000D01*
X104662714Y-75167000D01*
X104319857Y-74217000D02*
X104319857Y-73567000D01*
X104777000Y-73917000D01*
X104777000Y-73767000D01*
X104834142Y-73667000D01*
X104891285Y-73617000D01*
X105005571Y-73567000D01*
X105291285Y-73567000D01*
X105405571Y-73617000D01*
X105462714Y-73667000D01*
X105519857Y-73767000D01*
X105519857Y-74067000D01*
X105462714Y-74167000D01*
X105405571Y-74217000D01*
X105519857Y-73067000D02*
X105519857Y-72867000D01*
X105462714Y-72767000D01*
X105405571Y-72717000D01*
X105234142Y-72617000D01*
X105005571Y-72567000D01*
X104548428Y-72567000D01*
X104434142Y-72617000D01*
X104377000Y-72667000D01*
X104319857Y-72767000D01*
X104319857Y-72967000D01*
X104377000Y-73067000D01*
X104434142Y-73117000D01*
X104548428Y-73167000D01*
X104834142Y-73167000D01*
X104948428Y-73117000D01*
X105005571Y-73067000D01*
X105062714Y-72967000D01*
X105062714Y-72767000D01*
X105005571Y-72667000D01*
X104948428Y-72617000D01*
X104834142Y-72567000D01*
X104319857Y-71617000D02*
X104319857Y-72117000D01*
X104891285Y-72167000D01*
X104834142Y-72117000D01*
X104777000Y-72017000D01*
X104777000Y-71767000D01*
X104834142Y-71667000D01*
X104891285Y-71617000D01*
X105005571Y-71567000D01*
X105291285Y-71567000D01*
X105405571Y-71617000D01*
X105462714Y-71667000D01*
X105519857Y-71767000D01*
X105519857Y-72017000D01*
X105462714Y-72117000D01*
X105405571Y-72167000D01*
X105177000Y-71167000D02*
X105177000Y-70667000D01*
X105519857Y-71267000D02*
X104319857Y-70917000D01*
X105519857Y-70567000D01*
D12*
%TO.P,U3,1,I/O*%
%TO.N,/D0*%
X150517000Y-148512000D03*
%TO.P,U3,2,I/O*%
%TO.N,/D1*%
X150517000Y-149512000D03*
%TO.P,U3,3,I/O*%
%TO.N,/D2*%
X150517000Y-150512000D03*
%TO.P,U3,4,I/O*%
%TO.N,/D3*%
X150517000Y-151512000D03*
%TO.P,U3,5,I/O*%
%TO.N,/D4*%
X150517000Y-152512000D03*
%TO.P,U3,6,I/O*%
%TO.N,/D5*%
X150517000Y-153512000D03*
%TO.P,U3,7,I/O*%
%TO.N,/D6*%
X150517000Y-154512000D03*
%TO.P,U3,8,I/O*%
%TO.N,/D7*%
X150517000Y-155512000D03*
%TO.P,U3,9,I/O*%
%TO.N,/Pin_9*%
X150517000Y-156512000D03*
%TO.P,U3,10,GND*%
%TO.N,/GND*%
X150517000Y-157512000D03*
%TO.P,U3,11,I/O*%
%TO.N,/CE_SST*%
X150517000Y-158512000D03*
%TO.P,U3,12,I/O*%
%TO.N,/CE_V62*%
X150517000Y-159512000D03*
%TO.P,U3,13,I/O*%
%TO.N,/Rd_Game*%
X150517000Y-160512000D03*
%TO.P,U3,14,I/O*%
%TO.N,/Wr_Game*%
X150517000Y-161512000D03*
%TO.P,U3,15,I/O*%
%TO.N,/Pin_15*%
X150517000Y-162512000D03*
%TO.P,U3,16,I/O*%
%TO.N,/Rd_Sys*%
X150517000Y-163512000D03*
%TO.P,U3,17,I/O*%
%TO.N,/Reset*%
X150517000Y-164512000D03*
%TO.P,U3,18,I/O*%
%TO.N,/Switch*%
X150517000Y-165512000D03*
%TO.P,U3,19,I/O*%
%TO.N,/Wr_Sys*%
X150517000Y-166512000D03*
D13*
%TO.P,U3,20,I/O*%
%TO.N,/Button*%
X153267000Y-169262000D03*
%TO.P,U3,21,I/O*%
%TO.N,/Pin_21*%
X154267000Y-169262000D03*
%TO.P,U3,22,I/O*%
%TO.N,/Pin_22*%
X155267000Y-169262000D03*
%TO.P,U3,23,I/O*%
%TO.N,/A15_Game*%
X156267000Y-169262000D03*
%TO.P,U3,24,I/O*%
%TO.N,/Pin_24*%
X157267000Y-169262000D03*
%TO.P,U3,25,VCC*%
%TO.N,/VCC*%
X158267000Y-169262000D03*
%TO.P,U3,26,GND*%
%TO.N,/GND*%
X159267000Y-169262000D03*
%TO.P,U3,27,I/O*%
%TO.N,/A0*%
X160267000Y-169262000D03*
%TO.P,U3,28,I/O*%
%TO.N,/A1*%
X161267000Y-169262000D03*
%TO.P,U3,29,I/O*%
%TO.N,/A2*%
X162267000Y-169262000D03*
%TO.P,U3,30,I/O*%
%TO.N,/A3*%
X163267000Y-169262000D03*
%TO.P,U3,31,I/O*%
%TO.N,/A4*%
X164267000Y-169262000D03*
%TO.P,U3,32,I/O*%
%TO.N,/A5*%
X165267000Y-169262000D03*
D12*
%TO.P,U3,33,I/O*%
%TO.N,/A6*%
X168017000Y-166512000D03*
%TO.P,U3,34,I/O*%
%TO.N,/A7*%
X168017000Y-165512000D03*
%TO.P,U3,35,I/O*%
%TO.N,/A8*%
X168017000Y-164512000D03*
%TO.P,U3,36,I/O*%
%TO.N,/A9*%
X168017000Y-163512000D03*
%TO.P,U3,37,GND*%
%TO.N,/GND*%
X168017000Y-162512000D03*
%TO.P,U3,38,I/O*%
%TO.N,/A10*%
X168017000Y-161512000D03*
%TO.P,U3,39,I/O*%
%TO.N,/A11*%
X168017000Y-160512000D03*
%TO.P,U3,40,I/O*%
%TO.N,/A12*%
X168017000Y-159512000D03*
%TO.P,U3,41,I/O*%
%TO.N,/A13*%
X168017000Y-158512000D03*
%TO.P,U3,42,I/O*%
%TO.N,/A14*%
X168017000Y-157512000D03*
%TO.P,U3,43,I/O*%
%TO.N,/A15_Sys*%
X168017000Y-156512000D03*
%TO.P,U3,44,I/O*%
%TO.N,/Pin_44*%
X168017000Y-155512000D03*
%TO.P,U3,45,I/O*%
%TO.N,/A13_SST*%
X168017000Y-154512000D03*
%TO.P,U3,46,I/O*%
%TO.N,/A14_SST*%
X168017000Y-153512000D03*
%TO.P,U3,47,I/O*%
%TO.N,/A15_SST*%
X168017000Y-152512000D03*
%TO.P,U3,48,I/O*%
%TO.N,/A16_SST*%
X168017000Y-151512000D03*
%TO.P,U3,49,I/O*%
%TO.N,/BC847C*%
X168017000Y-150512000D03*
%TO.P,U3,50,VCC*%
%TO.N,/VCC*%
X168017000Y-149512000D03*
%TO.P,U3,51,I/O*%
%TO.N,/A12_V62*%
X168017000Y-148512000D03*
D13*
%TO.P,U3,52,I/O*%
%TO.N,/A13_V62*%
X165267000Y-145762000D03*
%TO.P,U3,53,I/O*%
%TO.N,/A14_V62*%
X164267000Y-145762000D03*
%TO.P,U3,54,I/O*%
%TO.N,/A15_V62*%
X163267000Y-145762000D03*
%TO.P,U3,55,I/O*%
%TO.N,/A16_V62*%
X162267000Y-145762000D03*
%TO.P,U3,56,I/O*%
%TO.N,/WE*%
X161267000Y-145762000D03*
%TO.P,U3,57,I/O*%
%TO.N,/OE_V62*%
X160267000Y-145762000D03*
%TO.P,U3,58,I/O*%
%TO.N,/Ind1*%
X159267000Y-145762000D03*
%TO.P,U3,59,GND*%
%TO.N,/GND*%
X158267000Y-145762000D03*
%TO.P,U3,60,I/O*%
%TO.N,/Ind2*%
X157267000Y-145762000D03*
%TO.P,U3,61,I/O*%
%TO.N,/Pin_61*%
X156267000Y-145762000D03*
%TO.P,U3,62,I/O*%
%TO.N,/Pin_62*%
X155267000Y-145762000D03*
%TO.P,U3,63,I/O*%
%TO.N,/Pin_63*%
X154267000Y-145762000D03*
%TO.P,U3,64,I/O*%
%TO.N,/Pin_64*%
X153267000Y-145762000D03*
%TD*%
D14*
%TO.P,Q1,1,B*%
%TO.N,/BC847C*%
X165788000Y-142749500D03*
%TO.P,Q1,2,E*%
%TO.N,/D0*%
X167688000Y-142749500D03*
%TO.P,Q1,3,C*%
%TO.N,/VCC*%
X166738000Y-140874500D03*
%TD*%
D15*
%TO.P,Hole,1*%
%TO.N,N/C*%
X144577000Y-176279000D03*
%TD*%
D16*
%TO.P,U2,1,N/C*%
%TO.N,/VCC*%
X122314500Y-154136000D03*
%TO.P,U2,2,A16*%
%TO.N,/A16_V62*%
X123585500Y-154136000D03*
%TO.P,U2,3,A14*%
%TO.N,/A14_V62*%
X124855500Y-154136000D03*
%TO.P,U2,4,A12*%
%TO.N,/A12_V62*%
X126160500Y-154133000D03*
%TO.P,U2,5,A7*%
%TO.N,/A7*%
X127435500Y-154133000D03*
%TO.P,U2,6,A6*%
%TO.N,/A6*%
X128700500Y-154133000D03*
%TO.P,U2,7,A5*%
%TO.N,/A5*%
X129975500Y-154133000D03*
%TO.P,U2,8,A4*%
%TO.N,/A4*%
X131246500Y-154133000D03*
%TO.P,U2,9,A3*%
%TO.N,/A3*%
X132551500Y-154133000D03*
%TO.P,U2,10,A2*%
%TO.N,/A2*%
X133822500Y-154133000D03*
%TO.P,U2,11,A1*%
%TO.N,/A1*%
X135050500Y-154133000D03*
%TO.P,U2,12,A0*%
%TO.N,/A0*%
X136357500Y-154133000D03*
%TO.P,U2,13,I/O_0*%
%TO.N,/D0*%
X137638500Y-154133000D03*
%TO.P,U2,14,I/O_1*%
%TO.N,/D1*%
X138904500Y-154132000D03*
%TO.P,U2,15,I/O_2*%
%TO.N,/D2*%
X140169500Y-154132000D03*
%TO.P,U2,16,GND*%
%TO.N,/GND*%
X141477500Y-154132000D03*
%TO.P,U2,17,I/O_3*%
%TO.N,/D3*%
X141519500Y-142502000D03*
%TO.P,U2,18,I/O_4*%
%TO.N,/D4*%
X140213500Y-142500000D03*
%TO.P,U2,19,I/O_5*%
%TO.N,/D5*%
X138938500Y-142513000D03*
%TO.P,U2,20,I/O_6*%
%TO.N,/D6*%
X137673500Y-142503000D03*
%TO.P,U2,21,I/O_7*%
%TO.N,/D7*%
X136398500Y-142507000D03*
%TO.P,U2,22,CE_1*%
%TO.N,/CE_V62*%
X135096500Y-142507000D03*
%TO.P,U2,23,A10*%
%TO.N,/A10*%
X133863500Y-142507000D03*
%TO.P,U2,24,OE*%
%TO.N,/OE_V62*%
X132587500Y-142507000D03*
%TO.P,U2,25,A11*%
%TO.N,/A11*%
X131285500Y-142504000D03*
%TO.P,U2,26,A9*%
%TO.N,/A9*%
X130014500Y-142504000D03*
%TO.P,U2,27,A8*%
%TO.N,/A8*%
X128741500Y-142506000D03*
%TO.P,U2,28,A13*%
%TO.N,/A13_V62*%
X127471500Y-142506000D03*
%TO.P,U2,29,WE*%
%TO.N,/WE*%
X126207500Y-142506000D03*
%TO.P,U2,30,CE_2*%
%TO.N,/VCC*%
X124896500Y-142506000D03*
%TO.P,U2,31,A15*%
%TO.N,/A15_V62*%
X123618500Y-142507000D03*
%TO.P,U2,32,VCC*%
%TO.N,/VCC*%
X122353500Y-142507000D03*
%TD*%
D17*
%TO.P,C1,1*%
%TO.N,/GND*%
X120412000Y-159466000D03*
%TO.P,C1,2*%
%TO.N,/VCC*%
X120421000Y-162597000D03*
%TD*%
D18*
%TO.P,J1,1,+5V*%
%TO.N,/VCC*%
X120962484Y-188785200D03*
D19*
%TO.P,J1,2,Clock*%
%TO.N,/Clk*%
X122712742Y-188660200D03*
%TO.P,J1,3,Write*%
%TO.N,/Wr_Sys*%
X124213000Y-188660200D03*
%TO.P,J1,4,Read*%
%TO.N,/Rd_Sys*%
X125713258Y-188660200D03*
%TO.P,J1,5,CS*%
%TO.N,/CS*%
X127213516Y-188660200D03*
%TO.P,J1,6,A0*%
%TO.N,/A0*%
X128713774Y-188660200D03*
%TO.P,J1,7,A1*%
%TO.N,/A1*%
X130214032Y-188660200D03*
%TO.P,J1,8,A2*%
%TO.N,/A2*%
X131714290Y-188660200D03*
%TO.P,J1,9,A3*%
%TO.N,/A3*%
X133214548Y-188660200D03*
%TO.P,J1,10,A4*%
%TO.N,/A4*%
X134714806Y-188660200D03*
%TO.P,J1,11,A5*%
%TO.N,/A5*%
X136215064Y-188660200D03*
%TO.P,J1,12,A6*%
%TO.N,/A6*%
X137715322Y-188660200D03*
%TO.P,J1,13,A7*%
%TO.N,/A7*%
X139215580Y-188660200D03*
%TO.P,J1,14,A8*%
%TO.N,/A8*%
X140715838Y-188660200D03*
%TO.P,J1,15,A9*%
%TO.N,/A9*%
X142216096Y-188660200D03*
%TO.P,J1,16,A10*%
%TO.N,/A10*%
X143716354Y-188660200D03*
%TO.P,J1,17,A11*%
%TO.N,/A11*%
X145216612Y-188660200D03*
%TO.P,J1,18,A12*%
%TO.N,/A12*%
X146716870Y-188660200D03*
%TO.P,J1,19,A13*%
%TO.N,/A13*%
X148217128Y-188660200D03*
%TO.P,J1,20,A14*%
%TO.N,/A14*%
X149717386Y-188660200D03*
%TO.P,J1,21,A15*%
%TO.N,/A15_Sys*%
X151217644Y-188660200D03*
%TO.P,J1,22,Data_0*%
%TO.N,/D0*%
X152717902Y-188660200D03*
%TO.P,J1,23,Data_1*%
%TO.N,/D1*%
X154218160Y-188660200D03*
%TO.P,J1,24,Data_2*%
%TO.N,/D2*%
X155718418Y-188660200D03*
%TO.P,J1,25,Data_3*%
%TO.N,/D3*%
X157218676Y-188660200D03*
%TO.P,J1,26,Data_4*%
%TO.N,/D4*%
X158718934Y-188660200D03*
%TO.P,J1,27,Data_5*%
%TO.N,/D5*%
X160219192Y-188660200D03*
%TO.P,J1,28,Data_6*%
%TO.N,/D6*%
X161719450Y-188660200D03*
%TO.P,J1,29,Data_7*%
%TO.N,/D7*%
X163219708Y-188660200D03*
%TO.P,J1,30,Reset*%
%TO.N,/Reset*%
X164719966Y-188660200D03*
%TO.P,J1,31,Audio*%
%TO.N,/Audio*%
X166220224Y-188660200D03*
D18*
%TO.P,J1,32,GND*%
%TO.N,/GND*%
X167970484Y-188785200D03*
%TD*%
D17*
%TO.P,R2,1*%
%TO.N,/Button*%
X182143500Y-78196000D03*
%TO.P,R2,2*%
%TO.N,/VCC*%
X182152500Y-81327000D03*
%TD*%
D20*
%TO.P,SW1,1,1*%
%TO.N,unconnected-(SW1-Pad1)*%
X182246500Y-67091000D03*
%TO.P,SW1,2,2*%
%TO.N,/GND*%
X184389500Y-68364000D03*
%TO.P,SW1,3,3*%
%TO.N,/Button*%
X184429500Y-72815000D03*
%TO.P,SW1,4,4*%
%TO.N,unconnected-(SW1-Pad4)*%
X182246500Y-74121000D03*
%TD*%
D17*
%TO.P,C3,1*%
%TO.N,/GND*%
X111730500Y-133072500D03*
%TO.P,C3,2*%
%TO.N,/Button*%
X114861500Y-133063500D03*
%TD*%
%TO.P,I1,1*%
%TO.N,/Ind1*%
X161186000Y-142641000D03*
%TO.P,I1,2*%
%TO.N,/Ind2*%
X158055000Y-142650000D03*
%TD*%
D21*
%TO.P,J3,1,A*%
%TO.N,unconnected-(J3-Pad1)*%
X109476000Y-76511000D03*
%TO.P,J3,2,B*%
%TO.N,/Switch*%
X109479000Y-73538000D03*
%TO.P,J3,3,C*%
%TO.N,/GND*%
X109478000Y-70635000D03*
%TO.P,J3,4*%
%TO.N,N/C*%
X109478000Y-79968000D03*
%TO.P,J3,5*%
X109480000Y-67186000D03*
%TD*%
D17*
%TO.P,R1,1*%
%TO.N,/Switch*%
X109076000Y-133075000D03*
%TO.P,R1,2*%
%TO.N,/VCC*%
X105945000Y-133084000D03*
%TD*%
D22*
%TO.P,U1,1,N/C*%
%TO.N,/VCC*%
X129991000Y-175878000D03*
%TO.P,U1,2,A16*%
%TO.N,/A16_SST*%
X131263000Y-175880000D03*
%TO.P,U1,3,A15*%
%TO.N,/A15_SST*%
X132532000Y-175879000D03*
%TO.P,U1,4,A12*%
%TO.N,/A12*%
X133802000Y-175879000D03*
D23*
%TO.P,U1,5,A7*%
%TO.N,/A7*%
X135692000Y-174058000D03*
%TO.P,U1,6,A6*%
%TO.N,/A6*%
X135692000Y-172789000D03*
%TO.P,U1,7,A5*%
%TO.N,/A5*%
X135690000Y-171518000D03*
%TO.P,U1,8,A4*%
%TO.N,/A4*%
X135691000Y-170248000D03*
%TO.P,U1,9,A3*%
%TO.N,/A3*%
X135692000Y-168982000D03*
%TO.P,U1,10,A2*%
%TO.N,/A2*%
X135693000Y-167709000D03*
%TO.P,U1,11,A1*%
%TO.N,/A1*%
X135691000Y-166438000D03*
%TO.P,U1,12,A0*%
%TO.N,/A0*%
X135693000Y-165171000D03*
%TO.P,U1,13,DQ0*%
%TO.N,/D0*%
X135690000Y-163901000D03*
D22*
%TO.P,U1,14,DQ1*%
%TO.N,/D1*%
X133799000Y-162077000D03*
%TO.P,U1,15,DQ2*%
%TO.N,/D2*%
X132530000Y-162080000D03*
%TO.P,U1,16,GND*%
%TO.N,/GND*%
X131261000Y-162076000D03*
%TO.P,U1,17,DQ3*%
%TO.N,/D3*%
X129992000Y-162077000D03*
%TO.P,U1,18,DQ4*%
%TO.N,/D4*%
X128724000Y-162077000D03*
%TO.P,U1,19,DQ5*%
%TO.N,/D5*%
X127451000Y-162076000D03*
%TO.P,U1,20,DQ6*%
%TO.N,/D6*%
X126180000Y-162077000D03*
D23*
%TO.P,U1,21,DQ7*%
%TO.N,/D7*%
X124290000Y-163895000D03*
%TO.P,U1,22,CE#*%
%TO.N,/CE_SST*%
X124290000Y-165171000D03*
%TO.P,U1,23,A10*%
%TO.N,/A10*%
X124290000Y-166436000D03*
%TO.P,U1,24,OE#*%
%TO.N,/Rd_Sys*%
X124294000Y-167712000D03*
%TO.P,U1,25,A11*%
%TO.N,/A11*%
X124289000Y-168976000D03*
%TO.P,U1,26,A9*%
%TO.N,/A9*%
X124296000Y-170249000D03*
%TO.P,U1,27,A8*%
%TO.N,/A8*%
X124295000Y-171517000D03*
%TO.P,U1,28,A13*%
%TO.N,/A13_SST*%
X124295000Y-172789000D03*
%TO.P,U1,29,A14*%
%TO.N,/A14_SST*%
X124294000Y-174060000D03*
D22*
%TO.P,U1,30,N/C*%
%TO.N,/VCC*%
X126182000Y-175876000D03*
%TO.P,U1,31,WE#*%
%TO.N,/WE*%
X127450000Y-175876000D03*
%TO.P,U1,32,VCC*%
%TO.N,/VCC*%
X128722000Y-175881000D03*
%TD*%
D17*
%TO.P,C2,1*%
%TO.N,/GND*%
X161204000Y-172825000D03*
%TO.P,C2,2*%
%TO.N,/VCC*%
X158073000Y-172834000D03*
%TD*%
D24*
%TO.P,J5,1,Pin_1*%
%TO.N,/CE_SST*%
X163781000Y-124759000D03*
D25*
%TO.P,J5,2,Pin_2*%
%TO.N,/CE_V62*%
X161241000Y-124759000D03*
%TO.P,J5,3,Pin_3*%
%TO.N,/Reset*%
X158701000Y-124759000D03*
%TO.P,J5,4,Pin_4*%
%TO.N,/BC847C*%
X156161000Y-124759000D03*
%TO.P,J5,5,Pin_5*%
%TO.N,/WE*%
X153621000Y-124759000D03*
%TO.P,J5,6,Pin_6*%
%TO.N,/OE_V62*%
X151081000Y-124759000D03*
%TO.P,J5,7,Pin_7*%
%TO.N,/Pin_9*%
X148541000Y-124759000D03*
%TO.P,J5,8,Pin_8*%
%TO.N,/Pin_15*%
X146001000Y-124759000D03*
%TO.P,J5,9,Pin_9*%
%TO.N,/Pin_21*%
X143461000Y-124759000D03*
%TO.P,J5,10,Pin_10*%
%TO.N,/Pin_22*%
X140921000Y-124759000D03*
%TO.P,J5,11,Pin_11*%
%TO.N,/Pin_24*%
X138381000Y-124759000D03*
%TO.P,J5,12,Pin_12*%
%TO.N,/Pin_44*%
X135841000Y-124759000D03*
%TO.P,J5,13,Pin_13*%
%TO.N,/Pin_61*%
X133301000Y-124759000D03*
%TO.P,J5,14,Pin_14*%
%TO.N,/Pin_62*%
X130761000Y-124759000D03*
%TO.P,J5,15,Pin_15*%
%TO.N,/Pin_63*%
X128221000Y-124759000D03*
%TO.P,J5,16,Pin_16*%
%TO.N,/Pin_64*%
X125681000Y-124759000D03*
%TD*%
D24*
%TO.P,J4,1,Pin_1*%
%TO.N,/GND*%
X163781000Y-128863000D03*
D25*
%TO.P,J4,2,Pin_2*%
X161241000Y-128863000D03*
%TO.P,J4,3,Pin_3*%
X158701000Y-128863000D03*
%TO.P,J4,4,Pin_4*%
X156161000Y-128863000D03*
%TO.P,J4,5,Pin_5*%
X153621000Y-128863000D03*
%TO.P,J4,6,Pin_6*%
X151081000Y-128863000D03*
%TO.P,J4,7,Pin_7*%
X148541000Y-128863000D03*
%TO.P,J4,8,Pin_8*%
X146001000Y-128863000D03*
%TO.P,J4,9,Pin_9*%
X143461000Y-128863000D03*
%TO.P,J4,10,Pin_10*%
X140921000Y-128863000D03*
%TO.P,J4,11,Pin_11*%
X138381000Y-128863000D03*
%TO.P,J4,12,Pin_12*%
X135841000Y-128863000D03*
%TO.P,J4,13,Pin_13*%
X133301000Y-128863000D03*
%TO.P,J4,14,Pin_14*%
X130761000Y-128863000D03*
%TO.P,J4,15,Pin_15*%
X128221000Y-128863000D03*
%TO.P,J4,16,Pin_16*%
X125681000Y-128863000D03*
%TD*%
D24*
%TO.P,J8,1,Pin_1*%
%TO.N,/GND*%
X168856000Y-101324700D03*
D25*
%TO.P,J8,2,Pin_2*%
X166316000Y-101324700D03*
%TO.P,J8,3,Pin_3*%
X163776000Y-101324700D03*
%TO.P,J8,4,Pin_4*%
X161236000Y-101324700D03*
%TO.P,J8,5,Pin_5*%
X158696000Y-101324700D03*
%TO.P,J8,6,Pin_6*%
X156156000Y-101324700D03*
%TO.P,J8,7,Pin_7*%
X153616000Y-101324700D03*
%TO.P,J8,8,Pin_8*%
X151076000Y-101324700D03*
%TO.P,J8,9,Pin_9*%
X148536000Y-101324700D03*
%TO.P,J8,10,Pin_10*%
X145996000Y-101324700D03*
%TO.P,J8,11,Pin_11*%
X143456000Y-101324700D03*
%TO.P,J8,12,Pin_12*%
X140916000Y-101324700D03*
%TO.P,J8,13,Pin_13*%
X138376000Y-101324700D03*
%TO.P,J8,14,Pin_14*%
X135836000Y-101324700D03*
%TO.P,J8,15,Pin_15*%
X133296000Y-101324700D03*
%TO.P,J8,16,Pin_16*%
X130756000Y-101324700D03*
%TO.P,J8,17,Pin_17*%
X128216000Y-101324700D03*
%TO.P,J8,18,Pin_18*%
X125676000Y-101324700D03*
%TO.P,J8,19,Pin_19*%
X123136000Y-101324700D03*
%TO.P,J8,20,Pin_20*%
X120596000Y-101324700D03*
%TD*%
D24*
%TO.P,J7,1,Pin_1*%
%TO.N,/A12*%
X168856000Y-110228000D03*
D25*
%TO.P,J7,2,Pin_2*%
%TO.N,/A13*%
X166316000Y-110228000D03*
%TO.P,J7,3,Pin_3*%
%TO.N,/A14*%
X163776000Y-110228000D03*
%TO.P,J7,4,Pin_4*%
%TO.N,/A15_Sys*%
X161236000Y-110228000D03*
%TO.P,J7,5,Pin_5*%
%TO.N,/A15_Game*%
X158696000Y-110228000D03*
%TO.P,J7,6,Pin_6*%
%TO.N,/A13_SST*%
X156156000Y-110228000D03*
%TO.P,J7,7,Pin_7*%
%TO.N,/A14_SST*%
X153616000Y-110228000D03*
%TO.P,J7,8,Pin_8*%
%TO.N,/A15_SST*%
X151076000Y-110228000D03*
%TO.P,J7,9,Pin_9*%
%TO.N,/A16_SST*%
X148536000Y-110228000D03*
%TO.P,J7,10,Pin_10*%
%TO.N,/A12_V62*%
X145996000Y-110228000D03*
%TO.P,J7,11,Pin_11*%
%TO.N,/A13_V62*%
X143456000Y-110228000D03*
%TO.P,J7,12,Pin_12*%
%TO.N,/A14_V62*%
X140916000Y-110228000D03*
%TO.P,J7,13,Pin_13*%
%TO.N,/A15_V62*%
X138376000Y-110228000D03*
%TO.P,J7,14,Pin_14*%
%TO.N,/A16_V62*%
X135836000Y-110228000D03*
%TO.P,J7,15,Pin_15*%
%TO.N,/Rd_Game*%
X133296000Y-110228000D03*
%TO.P,J7,16,Pin_16*%
%TO.N,/Wr_Game*%
X130756000Y-110228000D03*
%TO.P,J7,17,Pin_17*%
%TO.N,/Rd_Sys*%
X128216000Y-110228000D03*
%TO.P,J7,18,Pin_18*%
%TO.N,/Wr_Sys*%
X125676000Y-110228000D03*
%TO.P,J7,19,Pin_19*%
%TO.N,/Button*%
X123136000Y-110228000D03*
%TO.P,J7,20,Pin_20*%
%TO.N,/Switch*%
X120596000Y-110228000D03*
%TD*%
D24*
%TO.P,J6,1,Pin_1*%
%TO.N,/GND*%
X168856000Y-114754700D03*
D25*
%TO.P,J6,2,Pin_2*%
X166316000Y-114754700D03*
%TO.P,J6,3,Pin_3*%
X163776000Y-114754700D03*
%TO.P,J6,4,Pin_4*%
X161236000Y-114754700D03*
%TO.P,J6,5,Pin_5*%
X158696000Y-114754700D03*
%TO.P,J6,6,Pin_6*%
X156156000Y-114754700D03*
%TO.P,J6,7,Pin_7*%
X153616000Y-114754700D03*
%TO.P,J6,8,Pin_8*%
X151076000Y-114754700D03*
%TO.P,J6,9,Pin_9*%
X148536000Y-114754700D03*
%TO.P,J6,10,Pin_10*%
X145996000Y-114754700D03*
%TO.P,J6,11,Pin_11*%
X143456000Y-114754700D03*
%TO.P,J6,12,Pin_12*%
X140916000Y-114754700D03*
%TO.P,J6,13,Pin_13*%
X138376000Y-114754700D03*
%TO.P,J6,14,Pin_14*%
X135836000Y-114754700D03*
%TO.P,J6,15,Pin_15*%
X133296000Y-114754700D03*
%TO.P,J6,16,Pin_16*%
X130756000Y-114754700D03*
%TO.P,J6,17,Pin_17*%
X128216000Y-114754700D03*
%TO.P,J6,18,Pin_18*%
X125676000Y-114754700D03*
%TO.P,J6,19,Pin_19*%
X123136000Y-114754700D03*
%TO.P,J6,20,Pin_20*%
X120596000Y-114754700D03*
%TD*%
D24*
%TO.P,J9,1,Pin_1*%
%TO.N,/D0*%
X168856000Y-96798000D03*
D25*
%TO.P,J9,2,Pin_2*%
%TO.N,/D1*%
X166316000Y-96798000D03*
%TO.P,J9,3,Pin_3*%
%TO.N,/D2*%
X163776000Y-96798000D03*
%TO.P,J9,4,Pin_4*%
%TO.N,/D3*%
X161236000Y-96798000D03*
%TO.P,J9,5,Pin_5*%
%TO.N,/D4*%
X158696000Y-96798000D03*
%TO.P,J9,6,Pin_6*%
%TO.N,/D5*%
X156156000Y-96798000D03*
%TO.P,J9,7,Pin_7*%
%TO.N,/D6*%
X153616000Y-96798000D03*
%TO.P,J9,8,Pin_8*%
%TO.N,/D7*%
X151076000Y-96798000D03*
%TO.P,J9,9,Pin_9*%
%TO.N,/A0*%
X148536000Y-96798000D03*
%TO.P,J9,10,Pin_10*%
%TO.N,/A1*%
X145996000Y-96798000D03*
%TO.P,J9,11,Pin_11*%
%TO.N,/A2*%
X143456000Y-96798000D03*
%TO.P,J9,12,Pin_12*%
%TO.N,/A3*%
X140916000Y-96798000D03*
%TO.P,J9,13,Pin_13*%
%TO.N,/A4*%
X138376000Y-96798000D03*
%TO.P,J9,14,Pin_14*%
%TO.N,/A5*%
X135836000Y-96798000D03*
%TO.P,J9,15,Pin_15*%
%TO.N,/A6*%
X133296000Y-96798000D03*
%TO.P,J9,16,Pin_16*%
%TO.N,/A7*%
X130756000Y-96798000D03*
%TO.P,J9,17,Pin_17*%
%TO.N,/A8*%
X128216000Y-96798000D03*
%TO.P,J9,18,Pin_18*%
%TO.N,/A9*%
X125676000Y-96798000D03*
%TO.P,J9,19,Pin_19*%
%TO.N,/A10*%
X123136000Y-96798000D03*
%TO.P,J9,20,Pin_20*%
%TO.N,/A11*%
X120596000Y-96798000D03*
%TD*%
D26*
%TO.N,/D0*%
X148324000Y-136339500D03*
X137638500Y-156300600D03*
X162618400Y-134461400D03*
X164358200Y-82002100D03*
X167984500Y-143986000D03*
X168449600Y-138918600D03*
X152397700Y-155348600D03*
X160059300Y-100179500D03*
%TO.N,/D1*%
X164926200Y-103590100D03*
X167231800Y-118573500D03*
X164821400Y-131059700D03*
X148256800Y-132721700D03*
X167745700Y-100052400D03*
X165158700Y-81981800D03*
X167516200Y-112871300D03*
X141029000Y-131795900D03*
%TO.N,/D2*%
X148870000Y-151371400D03*
X142890100Y-130641500D03*
X142831900Y-151500400D03*
X166749800Y-134650000D03*
X140055800Y-160434800D03*
X132853400Y-160092900D03*
X163776000Y-99533100D03*
X163610300Y-131518500D03*
X140169500Y-151966200D03*
X163600200Y-80783400D03*
%TO.N,/D3*%
X160159400Y-80535700D03*
X152288300Y-153075700D03*
X129992000Y-158354100D03*
X130074600Y-164216300D03*
X141576900Y-150908800D03*
X144103900Y-164613800D03*
%TO.N,/D4*%
X136451300Y-88687800D03*
X142186000Y-98500500D03*
X144844900Y-100622700D03*
X140593700Y-150331300D03*
X148250100Y-150261500D03*
X128724000Y-158495200D03*
%TO.N,/D5*%
X127588100Y-163677800D03*
X149093900Y-80151100D03*
X139201400Y-140018500D03*
X147116800Y-141807000D03*
X148770200Y-153888400D03*
X145942400Y-159635900D03*
%TO.N,/D6*%
X148428700Y-79480900D03*
X146148500Y-131721600D03*
X128274800Y-170411300D03*
X168329100Y-136513700D03*
X160484200Y-94207100D03*
X141720600Y-131241300D03*
X159382600Y-93858700D03*
X148838600Y-155057500D03*
X147780600Y-163557100D03*
X147953900Y-169775300D03*
X162890800Y-131645300D03*
%TO.N,/D7*%
X136731100Y-150735500D03*
X126322900Y-159263300D03*
X154729000Y-98036500D03*
X145982200Y-149645300D03*
X154729000Y-99736900D03*
X148234700Y-156161300D03*
X138332500Y-89091300D03*
X148243300Y-159148800D03*
%TO.N,/Pin_9*%
X153317700Y-148496600D03*
D27*
%TO.N,/GND*%
X141477500Y-156722000D03*
X131356700Y-160012700D03*
D26*
%TO.N,/CE_SST*%
X147673900Y-158682600D03*
X126827900Y-165039600D03*
X153865900Y-149044900D03*
%TO.N,/CE_V62*%
X135096500Y-137724600D03*
X154361100Y-149540000D03*
X148899800Y-142151700D03*
%TO.N,/Rd_Game*%
X153844000Y-158718700D03*
%TO.N,/Wr_Game*%
X133663300Y-103578900D03*
X154699900Y-155424400D03*
X169735200Y-94645200D03*
X164341400Y-80535500D03*
%TO.N,/Pin_15*%
X154426800Y-148049600D03*
%TO.N,/Rd_Sys*%
X148761300Y-167666100D03*
X126556200Y-168948000D03*
X121366000Y-113115200D03*
X124199100Y-158001200D03*
X116592300Y-125039100D03*
X127315200Y-111924300D03*
X126567500Y-180907800D03*
%TO.N,/Reset*%
X155509400Y-148682000D03*
X157426000Y-80132400D03*
%TO.N,/Switch*%
X153182900Y-175283700D03*
X110882600Y-131669100D03*
%TO.N,/Wr_Sys*%
X152813100Y-174316100D03*
X125248000Y-183457700D03*
X119761600Y-157838000D03*
%TO.N,/Button*%
X153267000Y-165255500D03*
X171554600Y-107569600D03*
X175002000Y-135570600D03*
%TO.N,/Pin_21*%
X144611100Y-151841200D03*
X156284500Y-154261000D03*
%TO.N,/Pin_22*%
X156585000Y-149728200D03*
%TO.N,/A15_Game*%
X139646000Y-106790200D03*
X139646000Y-90629700D03*
X157289900Y-149692300D03*
%TO.N,/Pin_24*%
X155127000Y-148074100D03*
D27*
%TO.N,/VCC*%
X166571300Y-147053800D03*
X180680600Y-81348500D03*
X107230100Y-70769100D03*
X124896500Y-144838300D03*
X158601000Y-150242400D03*
D26*
%TO.N,/A0*%
X136357500Y-156293500D03*
X160267000Y-166917800D03*
X128713800Y-177736400D03*
X137334500Y-167112000D03*
%TO.N,/A1*%
X161513000Y-99506800D03*
X130169400Y-165428800D03*
X161267000Y-152595100D03*
X135050500Y-150158600D03*
X133155200Y-165087100D03*
X158741700Y-89198300D03*
%TO.N,/A2*%
X138047400Y-167987300D03*
X142327200Y-92415800D03*
X131185800Y-179481700D03*
X133822500Y-151727300D03*
X117692500Y-105655700D03*
X124796100Y-156706000D03*
X126984100Y-94305100D03*
X125418500Y-159611800D03*
X161895500Y-167465400D03*
%TO.N,/A3*%
X121979700Y-100363500D03*
X120501900Y-106680100D03*
X134112200Y-168265800D03*
X135905700Y-98504300D03*
X134253100Y-148738200D03*
X162788700Y-167384400D03*
X133241800Y-179434700D03*
%TO.N,/A4*%
X164226000Y-167684000D03*
X137301400Y-170248000D03*
%TO.N,/A5*%
X135282200Y-99284500D03*
X133933200Y-171157300D03*
X125822100Y-99284500D03*
X129739600Y-168895400D03*
X120512300Y-104328700D03*
X164926200Y-167484900D03*
X129386200Y-152046600D03*
%TO.N,/A6*%
X137312900Y-172789000D03*
X166272400Y-168262000D03*
X129040100Y-170838700D03*
%TO.N,/A7*%
X166340200Y-167492500D03*
X138701500Y-182581500D03*
X120242600Y-103578900D03*
X126308800Y-156401200D03*
X138247500Y-172096600D03*
%TO.N,/A8*%
X141056200Y-182497400D03*
X166434500Y-164959300D03*
X127376600Y-150221200D03*
X127348000Y-172237600D03*
%TO.N,/A9*%
X127735200Y-171634600D03*
X165871300Y-164507100D03*
X142166200Y-181950900D03*
%TO.N,/A10*%
X131847000Y-158744600D03*
X138840100Y-166342400D03*
X166440400Y-161360500D03*
X126396400Y-165873800D03*
X119716900Y-106322700D03*
X132051100Y-150659200D03*
%TO.N,/A11*%
X124002300Y-160380100D03*
X123144100Y-129692800D03*
X144661300Y-179749300D03*
X118693900Y-103231300D03*
X126037400Y-157949900D03*
X115142100Y-128741400D03*
X131285500Y-132852300D03*
X128281300Y-171190400D03*
X165097900Y-165229200D03*
%TO.N,/A12*%
X142867800Y-89122400D03*
X149702700Y-104083600D03*
X162331500Y-174461200D03*
X168856000Y-105284200D03*
X146716900Y-181819100D03*
X137579500Y-184150400D03*
%TO.N,/A13*%
X165037500Y-82698300D03*
X170003500Y-159398600D03*
X148967300Y-185229900D03*
%TO.N,/A14*%
X152061600Y-180351800D03*
X166427900Y-158093900D03*
X161889700Y-82305300D03*
%TO.N,/A15_Sys*%
X169601200Y-156735500D03*
X151145600Y-182601700D03*
X171595300Y-136521300D03*
X170582900Y-112342600D03*
%TO.N,/Pin_44*%
X166007800Y-155534800D03*
X145544400Y-153471800D03*
X135841000Y-121416200D03*
X145220800Y-143989800D03*
%TO.N,/A13_SST*%
X166432800Y-154089900D03*
X128328300Y-165184700D03*
X169464900Y-116282200D03*
X169395800Y-140518400D03*
%TO.N,/A14_SST*%
X124899800Y-175482100D03*
X166423300Y-153088300D03*
X168197400Y-140251500D03*
%TO.N,/A15_SST*%
X157909900Y-108345800D03*
X164317000Y-166214100D03*
X160061600Y-147762800D03*
X132532000Y-172580400D03*
%TO.N,/A16_SST*%
X152245900Y-115747400D03*
X169791800Y-154792300D03*
X169080100Y-125630800D03*
X132734800Y-184369000D03*
%TO.N,/A12_V62*%
X165228300Y-137488700D03*
X143526200Y-116464300D03*
X126190300Y-147922400D03*
%TO.N,/A13_V62*%
X165267000Y-147953100D03*
X126110000Y-146060700D03*
X153933200Y-113444600D03*
%TO.N,/A14_V62*%
X164028100Y-149471900D03*
X124855500Y-150731600D03*
X162391100Y-114024100D03*
X162218300Y-133761200D03*
X162593400Y-140364700D03*
%TO.N,/A15_V62*%
X126433100Y-130432200D03*
X149790900Y-113375800D03*
X152610300Y-126416500D03*
X162782800Y-141216400D03*
%TO.N,/A16_V62*%
X123967000Y-149986800D03*
X162267000Y-149879900D03*
X134463700Y-116917200D03*
X134463700Y-113432600D03*
%TO.N,/WE*%
X126207500Y-135249300D03*
%TO.N,/OE_V62*%
X161074500Y-150201000D03*
X132798100Y-145911400D03*
X132657700Y-138043900D03*
%TO.N,/Pin_61*%
X147875800Y-127684400D03*
%TO.N,/Pin_62*%
X155267000Y-144186800D03*
%TO.N,/Pin_63*%
X154267000Y-144183100D03*
%TO.N,/Pin_64*%
X153267000Y-144110100D03*
%TO.N,/Clk*%
X126017300Y-184430000D03*
%TO.N,/CS*%
X119706400Y-98111400D03*
X127213500Y-182340200D03*
X118711600Y-104029300D03*
%TO.N,/Audio*%
X165470100Y-185229900D03*
X124983500Y-89646500D03*
X118217700Y-96753900D03*
%TD*%
D28*
%TO.N,/D0*%
X164358200Y-82002100D02*
X164965100Y-81395200D01*
X152861200Y-154885100D02*
X152397700Y-155348600D01*
X167984500Y-143986000D02*
X167688000Y-143689500D01*
X168511700Y-137109100D02*
X168879200Y-136741600D01*
X165534900Y-112319400D02*
X164238900Y-112319400D01*
X139897500Y-167409600D02*
X152717900Y-180230000D01*
X168513200Y-119076900D02*
X167678200Y-118241900D01*
X137389300Y-163901000D02*
X137140100Y-163901000D01*
X160059300Y-106475700D02*
X160059300Y-100179500D01*
X162506000Y-108922400D02*
X160059300Y-106475700D01*
X164965100Y-81395200D02*
X165411500Y-81395200D01*
X167688000Y-143689500D02*
X167688000Y-142749500D01*
X164622700Y-134461400D02*
X167270400Y-137109100D01*
X168856000Y-84839700D02*
X168856000Y-95647900D01*
X168449600Y-137109100D02*
X168511700Y-137109100D01*
X135690000Y-163901000D02*
X137140100Y-163901000D01*
X148324000Y-147744100D02*
X148324000Y-136339500D01*
X137638500Y-156300600D02*
X137638500Y-163651800D01*
X137638500Y-156135100D02*
X137638500Y-156300600D01*
X137638500Y-163651800D02*
X137389300Y-163901000D01*
X162506000Y-110586500D02*
X162506000Y-108922400D01*
X151942100Y-148512000D02*
X152861200Y-149431100D01*
X149904500Y-148512000D02*
X150517000Y-148512000D01*
X162618400Y-134461400D02*
X164622700Y-134461400D01*
X152861200Y-149431100D02*
X152861200Y-154885100D01*
X137638500Y-154133000D02*
X137638500Y-156135100D01*
X137389300Y-164112800D02*
X139897500Y-166621000D01*
X137389300Y-163901000D02*
X137389300Y-164112800D01*
X165411500Y-81395200D02*
X168856000Y-84839700D01*
X167270400Y-137109100D02*
X168449600Y-137109100D01*
X139897500Y-166621000D02*
X139897500Y-167409600D01*
X152717900Y-180230000D02*
X152717900Y-185360100D01*
X152717900Y-188660200D02*
X152717900Y-185360100D01*
X168879200Y-136285900D02*
X168513200Y-135919900D01*
X168856000Y-96798000D02*
X168856000Y-95647900D01*
X168879200Y-136741600D02*
X168879200Y-136285900D01*
X168449600Y-137109100D02*
X168449600Y-138918600D01*
X168513200Y-135919900D02*
X168513200Y-119076900D01*
X149904500Y-148512000D02*
X149091900Y-148512000D01*
X164238900Y-112319400D02*
X162506000Y-110586500D01*
X150517000Y-148512000D02*
X151942100Y-148512000D01*
X167678200Y-118241900D02*
X167678200Y-114462700D01*
X149091900Y-148512000D02*
X148324000Y-147744100D01*
X167678200Y-114462700D02*
X165534900Y-112319400D01*
%TO.N,/D1*%
X147917000Y-148337100D02*
X147917000Y-146998200D01*
X154218200Y-181164500D02*
X154218200Y-188660200D01*
X140356000Y-167302300D02*
X154218200Y-181164500D01*
X137036000Y-135788900D02*
X137036000Y-145759200D01*
X167745700Y-100052400D02*
X166316000Y-98622700D01*
X167277400Y-112871300D02*
X164926200Y-110520100D01*
X138563500Y-152121900D02*
X138904500Y-152121900D01*
X167231800Y-118573500D02*
X167231800Y-128649300D01*
X137425700Y-150984100D02*
X137887900Y-151446200D01*
X138904500Y-154132000D02*
X138904500Y-156142100D01*
X165158700Y-81981800D02*
X166316000Y-83139100D01*
X137038300Y-152295800D02*
X137038300Y-157387600D01*
X141029000Y-131795900D02*
X137036000Y-135788900D01*
X137887900Y-151446200D02*
X137038300Y-152295800D01*
X149091900Y-149512000D02*
X147917000Y-148337100D01*
X138904500Y-165062300D02*
X140356000Y-166513800D01*
X147738000Y-146819200D02*
X147738000Y-133240500D01*
X138904500Y-154132000D02*
X138904500Y-152121900D01*
X133799000Y-162077000D02*
X133799000Y-160626900D01*
X137425700Y-146148900D02*
X137425700Y-150984100D01*
X150517000Y-149512000D02*
X149091900Y-149512000D01*
X137038300Y-157387600D02*
X133799000Y-160626900D01*
X166316000Y-83139100D02*
X166316000Y-96798000D01*
X138904500Y-156142100D02*
X138904500Y-165062300D01*
X147738000Y-133240500D02*
X148256800Y-132721700D01*
X166316000Y-98622700D02*
X166316000Y-96798000D01*
X164926200Y-110520100D02*
X164926200Y-103590100D01*
X137036000Y-145759200D02*
X137425700Y-146148900D01*
X137887900Y-151446200D02*
X138563500Y-152121900D01*
X167516200Y-112871300D02*
X167277400Y-112871300D01*
X147917000Y-146998200D02*
X147738000Y-146819200D01*
X167231800Y-128649300D02*
X164821400Y-131059700D01*
X140356000Y-166513800D02*
X140356000Y-167302300D01*
%TO.N,/D2*%
X132530000Y-160416300D02*
X132530000Y-162080000D01*
X140169500Y-154132000D02*
X140169500Y-156142100D01*
X163776000Y-96798000D02*
X163776000Y-95647900D01*
X163610300Y-131518500D02*
X166741800Y-134650000D01*
X140055800Y-156255800D02*
X140055800Y-160434800D01*
X166741800Y-134650000D02*
X166749800Y-134650000D01*
X140756100Y-167136600D02*
X155718400Y-182098900D01*
X148870000Y-151371400D02*
X148870000Y-150733900D01*
X163776000Y-95647900D02*
X163600200Y-95472100D01*
X140169500Y-154132000D02*
X140169500Y-152122100D01*
X155718400Y-182098900D02*
X155718400Y-188660200D01*
X150517000Y-150512000D02*
X149091900Y-150512000D01*
X163600200Y-95472100D02*
X163600200Y-80783400D01*
X140756100Y-161135100D02*
X140756100Y-167136600D01*
X140169500Y-156142100D02*
X140055800Y-156255800D01*
X163776000Y-96798000D02*
X163776000Y-99533100D01*
X140169500Y-152122100D02*
X140169500Y-151966200D01*
X148870000Y-150733900D02*
X149091900Y-150512000D01*
X132853400Y-160092900D02*
X132530000Y-160416300D01*
X142831900Y-151500400D02*
X142890100Y-151442200D01*
X142890100Y-151442200D02*
X142890100Y-130641500D01*
X140055800Y-160434800D02*
X140756100Y-161135100D01*
%TO.N,/D3*%
X157218700Y-182467600D02*
X157218700Y-185360100D01*
X144103900Y-164613800D02*
X144103900Y-169352800D01*
X141519500Y-144512100D02*
X141576900Y-144569500D01*
X157218700Y-188660200D02*
X157218700Y-185360100D01*
X129992000Y-158354100D02*
X129992000Y-162077000D01*
X129992000Y-162077000D02*
X129992000Y-164133700D01*
X161236000Y-81612300D02*
X161236000Y-95647900D01*
X141519500Y-142502000D02*
X141519500Y-144512100D01*
X144103900Y-169352800D02*
X157218700Y-182467600D01*
X129992000Y-164133700D02*
X130074600Y-164216300D01*
X152288300Y-151858200D02*
X152288300Y-153075700D01*
X150517000Y-151512000D02*
X151942100Y-151512000D01*
X151942100Y-151512000D02*
X152288300Y-151858200D01*
X141576900Y-144569500D02*
X141576900Y-150908800D01*
X161236000Y-96798000D02*
X161236000Y-95647900D01*
X160159400Y-80535700D02*
X161236000Y-81612300D01*
%TO.N,/D4*%
X142275400Y-109728300D02*
X142275400Y-137731900D01*
X136451300Y-88687800D02*
X137444100Y-89680600D01*
X145239800Y-169815800D02*
X158718900Y-183294900D01*
X137444100Y-89680600D02*
X138747300Y-89680600D01*
X140777300Y-150514900D02*
X140777300Y-159793500D01*
X158718900Y-183294900D02*
X158718900Y-188660200D01*
X142275400Y-137731900D02*
X140213500Y-139793800D01*
X140593700Y-150331300D02*
X140777300Y-150514900D01*
X140213500Y-142500000D02*
X140213500Y-149951100D01*
X144844900Y-107158800D02*
X142275400Y-109728300D01*
X148250100Y-151670200D02*
X148250100Y-150261500D01*
X141777100Y-91391000D02*
X141777100Y-92643600D01*
X138806400Y-89621500D02*
X140007600Y-89621500D01*
X145239800Y-164256000D02*
X145239800Y-169815800D01*
X141777100Y-92643600D02*
X142186000Y-93052500D01*
X149091900Y-152512000D02*
X148250100Y-151670200D01*
X140777300Y-159793500D02*
X145239800Y-164256000D01*
X150517000Y-152512000D02*
X149091900Y-152512000D01*
X140007600Y-89621500D02*
X141777100Y-91391000D01*
X128724000Y-158495200D02*
X128724000Y-162077000D01*
X142186000Y-93052500D02*
X142186000Y-98500500D01*
X138747300Y-89680600D02*
X138806400Y-89621500D01*
X140213500Y-139793800D02*
X140213500Y-142500000D01*
X140213500Y-149951100D02*
X140593700Y-150331300D01*
X144844900Y-100622700D02*
X144844900Y-107158800D01*
%TO.N,/D5*%
X147516900Y-147164000D02*
X147116800Y-146763900D01*
X147116800Y-146763900D02*
X147116800Y-141807000D01*
X138938500Y-142513000D02*
X138938500Y-140502900D01*
X156156000Y-95647900D02*
X149093900Y-88585800D01*
X148770200Y-153833700D02*
X148770200Y-153888400D01*
X156156000Y-96798000D02*
X156156000Y-95647900D01*
X147516900Y-151937000D02*
X147516900Y-147164000D01*
X127451000Y-162076000D02*
X127451000Y-163540700D01*
X139201400Y-140018500D02*
X139201400Y-140240000D01*
X139201400Y-140240000D02*
X138938500Y-140502900D01*
X154947300Y-100506400D02*
X154947300Y-101662300D01*
X149091900Y-153512000D02*
X147516900Y-151937000D01*
X154947300Y-101662300D02*
X147243200Y-109366400D01*
X150517000Y-153512000D02*
X149091900Y-153512000D01*
X127451000Y-163540700D02*
X127588100Y-163677800D01*
X149091900Y-153512000D02*
X148770200Y-153833700D01*
X156156000Y-99297700D02*
X154947300Y-100506400D01*
X160219200Y-188660200D02*
X160219200Y-184229400D01*
X147243200Y-109366400D02*
X147243200Y-141680600D01*
X145942400Y-169952600D02*
X145942400Y-159635900D01*
X147243200Y-141680600D02*
X147116800Y-141807000D01*
X149093900Y-88585800D02*
X149093900Y-80151100D01*
X156156000Y-96798000D02*
X156156000Y-99297700D01*
X160219200Y-184229400D02*
X145942400Y-169952600D01*
%TO.N,/D6*%
X167759200Y-136513700D02*
X168329100Y-136513700D01*
X149091900Y-154512000D02*
X148838600Y-154765300D01*
X146916900Y-151902800D02*
X147393200Y-152379100D01*
X147393200Y-152379100D02*
X147393200Y-153319900D01*
X126180000Y-162077000D02*
X126180000Y-163527100D01*
X161719500Y-185163900D02*
X161719500Y-185360100D01*
X137673500Y-142503000D02*
X137673500Y-140265900D01*
X147953900Y-169775300D02*
X147953900Y-171398300D01*
X141720600Y-136218800D02*
X141720600Y-131241300D01*
X147953900Y-171398300D02*
X161719500Y-185163900D01*
X160135800Y-93858700D02*
X159382600Y-93858700D01*
X128274800Y-170411300D02*
X127378000Y-169514500D01*
X146148500Y-146561200D02*
X146916900Y-147329600D01*
X147780600Y-169602000D02*
X147780600Y-163557100D01*
X146916900Y-147329600D02*
X146916900Y-151902800D01*
X146148500Y-131721600D02*
X146148500Y-146561200D01*
X148428700Y-90460600D02*
X148428700Y-79480900D01*
X147393200Y-153319900D02*
X148838600Y-154765300D01*
X148838600Y-154765300D02*
X148838600Y-155057500D01*
X137673500Y-140265900D02*
X141720600Y-136218800D01*
X127378000Y-169514500D02*
X127378000Y-164811800D01*
X150517000Y-154512000D02*
X149091900Y-154512000D01*
X161719500Y-188660200D02*
X161719500Y-185360100D01*
X126180000Y-163613800D02*
X126180000Y-163527100D01*
X162890800Y-131645300D02*
X167759200Y-136513700D01*
X153616000Y-96798000D02*
X153616000Y-95647900D01*
X127378000Y-164811800D02*
X126180000Y-163613800D01*
X160484200Y-94207100D02*
X160135800Y-93858700D01*
X153616000Y-95647900D02*
X148428700Y-90460600D01*
X147953900Y-169775300D02*
X147780600Y-169602000D01*
%TO.N,/D7*%
X148234700Y-155661300D02*
X148234700Y-156161300D01*
X136398500Y-150402900D02*
X136398500Y-144517100D01*
X146851800Y-152798500D02*
X146851800Y-154278400D01*
X145982200Y-149645300D02*
X145982200Y-151928900D01*
X151076000Y-96798000D02*
X151076000Y-95647900D01*
X150517000Y-155512000D02*
X149192000Y-155512000D01*
X124290000Y-163895000D02*
X124290000Y-161990100D01*
X126322900Y-159957200D02*
X126322900Y-159263300D01*
X148522900Y-168205600D02*
X148190000Y-167872700D01*
X149192000Y-155512000D02*
X149042700Y-155661300D01*
X151076000Y-95647900D02*
X144000400Y-88572300D01*
X148383100Y-159288600D02*
X148243300Y-159148800D01*
X124290000Y-161990100D02*
X126322900Y-159957200D01*
X145982200Y-151928900D02*
X146851800Y-152798500D01*
X146851800Y-154278400D02*
X148234700Y-155661300D01*
X148522900Y-171401500D02*
X148522900Y-168205600D01*
X162481500Y-185360100D02*
X148522900Y-171401500D01*
X154729000Y-99736900D02*
X154729000Y-98036500D01*
X148190000Y-167872700D02*
X148190000Y-165078900D01*
X149042700Y-155661300D02*
X148234700Y-155661300D01*
X163219700Y-185360100D02*
X162481500Y-185360100D01*
X136731100Y-150735500D02*
X136398500Y-150402900D01*
X148190000Y-165078900D02*
X148383100Y-164885800D01*
X144000400Y-88572300D02*
X138851500Y-88572300D01*
X138851500Y-88572300D02*
X138332500Y-89091300D01*
X148383100Y-164885800D02*
X148383100Y-159288600D01*
X163219700Y-188660200D02*
X163219700Y-185360100D01*
X136398500Y-142507000D02*
X136398500Y-144517100D01*
%TO.N,/Pin_9*%
X153284100Y-155240200D02*
X153284100Y-148530200D01*
X153284100Y-148530200D02*
X153317700Y-148496600D01*
X152012300Y-156512000D02*
X153284100Y-155240200D01*
X150517000Y-156512000D02*
X151942100Y-156512000D01*
X151942100Y-156512000D02*
X152012300Y-156512000D01*
D29*
%TO.N,/GND*%
X158267000Y-147349500D02*
X158267000Y-145762000D01*
X161204000Y-172825000D02*
X161204000Y-174110100D01*
X166316000Y-114754700D02*
X166316000Y-125027900D01*
X159451100Y-167502800D02*
X159451100Y-148533600D01*
X163252000Y-173400400D02*
X162041300Y-173400400D01*
X111730500Y-133072500D02*
X111730500Y-131787400D01*
X142157400Y-151971900D02*
X141477500Y-151971900D01*
X160501200Y-170837100D02*
X161204000Y-171539900D01*
X159267000Y-168474400D02*
X159267000Y-167686900D01*
X168856000Y-100024600D02*
X170435300Y-98445300D01*
X120596000Y-122278900D02*
X120596000Y-116054800D01*
X169592100Y-162512000D02*
X169592100Y-167060300D01*
X163781000Y-128863000D02*
X163781000Y-127562900D01*
X149333900Y-130956000D02*
X148541000Y-130163100D01*
X150517000Y-157512000D02*
X148941900Y-157512000D01*
X149788500Y-144347500D02*
X149788500Y-141673100D01*
X161631200Y-174750900D02*
X167970500Y-181090200D01*
X170435300Y-82318200D02*
X184389500Y-68364000D01*
X161631200Y-174110100D02*
X161631200Y-174750900D01*
X161204000Y-172825000D02*
X161204000Y-171539900D01*
X143630100Y-130332200D02*
X143461000Y-130163100D01*
X151076000Y-101324700D02*
X153616000Y-101324700D01*
X141477500Y-154132000D02*
X141477500Y-151971900D01*
X111730500Y-131787400D02*
X111730500Y-131144400D01*
X169592100Y-167060300D02*
X163252000Y-173400400D01*
X149788500Y-141673100D02*
X149333900Y-141218500D01*
X161631200Y-173810500D02*
X161631200Y-174110100D01*
X141477500Y-154132000D02*
X141477500Y-156292100D01*
X168017000Y-162512000D02*
X169592100Y-162512000D01*
X120461700Y-158131200D02*
X120461700Y-135382400D01*
X143461000Y-128863000D02*
X143461000Y-130163100D01*
X143630100Y-152228600D02*
X143630100Y-152581600D01*
X143630100Y-152228600D02*
X142414100Y-152228600D01*
X111730500Y-131144400D02*
X120596000Y-122278900D01*
X159451100Y-148533600D02*
X158267000Y-147349500D01*
X159267000Y-169262000D02*
X159267000Y-170837100D01*
X170435300Y-98445300D02*
X170435300Y-82318200D01*
X120412000Y-158180900D02*
X120461700Y-158131200D01*
X149333900Y-141218500D02*
X149333900Y-130956000D01*
X142414100Y-152228600D02*
X142157400Y-151971900D01*
X125681000Y-128863000D02*
X125681000Y-130163100D01*
X159267000Y-168474400D02*
X159267000Y-169262000D01*
X166316000Y-125027900D02*
X163781000Y-127562900D01*
X161631200Y-174110100D02*
X161204000Y-174110100D01*
X152790500Y-147349500D02*
X149788500Y-144347500D01*
X162041300Y-173400400D02*
X161631200Y-173810500D01*
X167970500Y-181090200D02*
X167970500Y-188785200D01*
X120596000Y-114754700D02*
X120596000Y-116054800D01*
X141477500Y-156292100D02*
X141477500Y-156722000D01*
X159267000Y-167686900D02*
X159451100Y-167502800D01*
X148560500Y-157512000D02*
X148941900Y-157512000D01*
X168856000Y-101324700D02*
X168856000Y-100024600D01*
X120412000Y-159466000D02*
X120412000Y-158180900D01*
X143630100Y-152581600D02*
X148560500Y-157512000D01*
X131261000Y-162076000D02*
X131261000Y-160108400D01*
X148541000Y-128863000D02*
X148541000Y-130163100D01*
X159267000Y-170837100D02*
X160501200Y-170837100D01*
X158267000Y-147349500D02*
X152790500Y-147349500D01*
X131261000Y-160108400D02*
X131356700Y-160012700D01*
X143630100Y-152228600D02*
X143630100Y-130332200D01*
X120461700Y-135382400D02*
X125681000Y-130163100D01*
D28*
%TO.N,/CE_SST*%
X149091900Y-158512000D02*
X147844500Y-158512000D01*
X147844500Y-158512000D02*
X147673900Y-158682600D01*
X150517000Y-158512000D02*
X149091900Y-158512000D01*
X126696500Y-165171000D02*
X126827900Y-165039600D01*
X150517000Y-158512000D02*
X151942100Y-158512000D01*
X151942100Y-158512000D02*
X153742100Y-156712000D01*
X153742100Y-156712000D02*
X153742100Y-149168700D01*
X153742100Y-149168700D02*
X153865900Y-149044900D01*
X124290000Y-165171000D02*
X126696500Y-165171000D01*
%TO.N,/CE_V62*%
X148899800Y-144259800D02*
X148899800Y-142151700D01*
X154149800Y-149751300D02*
X154149800Y-157304300D01*
X135096500Y-137724600D02*
X135096500Y-140496900D01*
X154361100Y-149540000D02*
X154149800Y-149751300D01*
X153545600Y-147946500D02*
X152586500Y-147946500D01*
X135096500Y-141780400D02*
X135096500Y-142507000D01*
X154416000Y-148816900D02*
X153545600Y-147946500D01*
X154361100Y-149540000D02*
X154416000Y-149485100D01*
X152586500Y-147946500D02*
X148899800Y-144259800D01*
X154416000Y-149485100D02*
X154416000Y-148816900D01*
X150517000Y-159512000D02*
X151942100Y-159512000D01*
X135096500Y-141780400D02*
X135096500Y-140496900D01*
X154149800Y-157304300D02*
X151942100Y-159512000D01*
%TO.N,/Rd_Game*%
X153844000Y-158718700D02*
X152050700Y-160512000D01*
X152050700Y-160512000D02*
X150517000Y-160512000D01*
%TO.N,/Wr_Game*%
X154699900Y-155424400D02*
X154699900Y-158754200D01*
X164341400Y-80535500D02*
X165117700Y-80535500D01*
X134683700Y-89650300D02*
X134683700Y-102558500D01*
X165117700Y-80535500D02*
X169735200Y-85153000D01*
X164341400Y-80535500D02*
X162720300Y-78914400D01*
X134683700Y-102558500D02*
X133663300Y-103578900D01*
X145419600Y-78914400D02*
X134683700Y-89650300D01*
X169735200Y-85153000D02*
X169735200Y-94645200D01*
X154699900Y-158754200D02*
X151942100Y-161512000D01*
X162720300Y-78914400D02*
X145419600Y-78914400D01*
X150517000Y-161512000D02*
X151942100Y-161512000D01*
%TO.N,/Pin_15*%
X155281500Y-159172600D02*
X151942100Y-162512000D01*
X150517000Y-162512000D02*
X151942100Y-162512000D01*
X155281500Y-149374000D02*
X155281500Y-159172600D01*
X154426800Y-148261900D02*
X154816100Y-148651200D01*
X154426800Y-148049600D02*
X154426800Y-148261900D01*
X154816100Y-148651200D02*
X154816100Y-148908600D01*
X154816100Y-148908600D02*
X155281500Y-149374000D01*
%TO.N,/Rd_Sys*%
X127861400Y-111378100D02*
X127315200Y-111924300D01*
X120544100Y-113115200D02*
X116592300Y-117067000D01*
X148622900Y-167527700D02*
X148622900Y-165412000D01*
X125713300Y-188660200D02*
X125713300Y-185360100D01*
X122843900Y-167712000D02*
X122839800Y-167707900D01*
X124573700Y-158375800D02*
X124199100Y-158001200D01*
X148761300Y-167666100D02*
X148622900Y-167527700D01*
X128216000Y-111378100D02*
X127861400Y-111378100D01*
X150517000Y-163512000D02*
X149091900Y-163512000D01*
X148622900Y-165412000D02*
X149091900Y-164943000D01*
X149091900Y-164943000D02*
X149091900Y-163512000D01*
X124573700Y-161058400D02*
X124573700Y-158375800D01*
X126567500Y-184665900D02*
X125873300Y-185360100D01*
X122839800Y-162792300D02*
X124573700Y-161058400D01*
X124294000Y-167712000D02*
X122843900Y-167712000D01*
X128216000Y-110228000D02*
X128216000Y-111378100D01*
X121366000Y-113115200D02*
X120544100Y-113115200D01*
X124294000Y-167712000D02*
X125744100Y-167712000D01*
X122839800Y-167707900D02*
X122839800Y-162792300D01*
X125744100Y-168135900D02*
X126556200Y-168948000D01*
X125744100Y-167712000D02*
X125744100Y-168135900D01*
X116592300Y-117067000D02*
X116592300Y-125039100D01*
X126567500Y-180907800D02*
X126567500Y-184665900D01*
X125873300Y-185360100D02*
X125713300Y-185360100D01*
%TO.N,/Reset*%
X152660800Y-165419100D02*
X151753700Y-164512000D01*
X155703000Y-160562700D02*
X151753700Y-164512000D01*
X159846200Y-122463700D02*
X159846200Y-108490300D01*
X158701000Y-124759000D02*
X158701000Y-123608900D01*
X155703000Y-148875600D02*
X155703000Y-160562700D01*
X164720000Y-184279700D02*
X152660800Y-172220500D01*
X159846200Y-108490300D02*
X157426000Y-106070100D01*
X155509400Y-148682000D02*
X155703000Y-148875600D01*
X152660800Y-172220500D02*
X152660800Y-165419100D01*
X150517000Y-164512000D02*
X151753700Y-164512000D01*
X158701000Y-123608900D02*
X159846200Y-122463700D01*
X157426000Y-106070100D02*
X157426000Y-80132400D01*
X164720000Y-188660200D02*
X164720000Y-184279700D01*
%TO.N,/Switch*%
X150517000Y-165512000D02*
X149091900Y-165512000D01*
X120596000Y-110228000D02*
X120596000Y-109077900D01*
X110211100Y-133075000D02*
X110211100Y-132340600D01*
X109076000Y-133075000D02*
X110211100Y-133075000D01*
X117040600Y-81099600D02*
X117040600Y-105790600D01*
X153182900Y-175283700D02*
X153002700Y-175283700D01*
X117040600Y-105790600D02*
X120327900Y-109077900D01*
X120596000Y-110228000D02*
X120596000Y-111378100D01*
X120327900Y-109077900D02*
X120596000Y-109077900D01*
X149091900Y-167218700D02*
X149091900Y-165512000D01*
X153002700Y-175283700D02*
X149357500Y-171638500D01*
X110882600Y-121091500D02*
X110882600Y-131669100D01*
X110211100Y-132340600D02*
X110882600Y-131669100D01*
X120596000Y-111378100D02*
X110882600Y-121091500D01*
X149357500Y-171638500D02*
X149357500Y-167484300D01*
X109479000Y-73538000D02*
X117040600Y-81099600D01*
X149357500Y-167484300D02*
X149091900Y-167218700D01*
%TO.N,/Wr_Sys*%
X124525900Y-112528200D02*
X124525900Y-129735400D01*
X125676000Y-111378100D02*
X124525900Y-112528200D01*
X124525900Y-129735400D02*
X119761600Y-134499700D01*
X150517000Y-166512000D02*
X151942100Y-166512000D01*
X151942100Y-173445100D02*
X151942100Y-166512000D01*
X125676000Y-110228000D02*
X125676000Y-111378100D01*
X124213000Y-184492700D02*
X125248000Y-183457700D01*
X119761600Y-134499700D02*
X119761600Y-157838000D01*
X152813100Y-174316100D02*
X151942100Y-173445100D01*
X124213000Y-188660200D02*
X124213000Y-184492700D01*
%TO.N,/Button*%
X182143500Y-78196000D02*
X182143500Y-77060900D01*
X121985900Y-112528200D02*
X123136000Y-111378100D01*
X120551400Y-133063500D02*
X123694200Y-129920700D01*
X182143500Y-78196000D02*
X182143500Y-79331100D01*
X175002000Y-107569600D02*
X171554600Y-107569600D01*
X123136000Y-110228000D02*
X123136000Y-111378100D01*
X181692800Y-79331100D02*
X175002000Y-86021900D01*
X175002000Y-86021900D02*
X175002000Y-107569600D01*
X153267000Y-169262000D02*
X153267000Y-165255500D01*
X175002000Y-107569600D02*
X175002000Y-135570600D01*
X184429500Y-72815000D02*
X184429500Y-74774900D01*
X121985900Y-127228000D02*
X121985900Y-112528200D01*
X184429500Y-74774900D02*
X182143500Y-77060900D01*
X123694200Y-129920700D02*
X123694200Y-128936300D01*
X123694200Y-128936300D02*
X121985900Y-127228000D01*
X114861500Y-133063500D02*
X120551400Y-133063500D01*
X182143500Y-79331100D02*
X181692800Y-79331100D01*
%TO.N,/Pin_21*%
X143461000Y-125909100D02*
X144611100Y-127059200D01*
X143461000Y-124759000D02*
X143461000Y-125909100D01*
X156284500Y-163105800D02*
X156284500Y-154261000D01*
X144611100Y-127059200D02*
X144611100Y-151841200D01*
X154267000Y-165123300D02*
X156284500Y-163105800D01*
X154267000Y-169262000D02*
X154267000Y-165123300D01*
%TO.N,/Pin_22*%
X156867800Y-154000000D02*
X156585000Y-153717200D01*
X156585000Y-153717200D02*
X156585000Y-149728200D01*
X155267000Y-169262000D02*
X155267000Y-165274800D01*
X156867800Y-163674000D02*
X156867800Y-154000000D01*
X155267000Y-165274800D02*
X156867800Y-163674000D01*
%TO.N,/A15_Game*%
X156267000Y-167836900D02*
X157289900Y-166814000D01*
X157289900Y-166814000D02*
X157289900Y-149692300D01*
X139646000Y-106790200D02*
X139646000Y-90629700D01*
X156267000Y-169262000D02*
X156267000Y-167836900D01*
%TO.N,/Pin_24*%
X157890400Y-166779400D02*
X157267000Y-167402800D01*
X157890400Y-149514800D02*
X157890400Y-166779400D01*
X157267000Y-167402800D02*
X157267000Y-169262000D01*
X155127000Y-148074100D02*
X156449700Y-148074100D01*
X156449700Y-148074100D02*
X157890400Y-149514800D01*
D29*
%TO.N,/VCC*%
X115586200Y-134369100D02*
X118554600Y-137337500D01*
X120421000Y-161633100D02*
X120421000Y-161311900D01*
X122353500Y-143587000D02*
X122353500Y-144667100D01*
X122353500Y-142507000D02*
X122353500Y-143587000D01*
X107230100Y-133084000D02*
X107230100Y-70769100D01*
X108033200Y-134369100D02*
X115586200Y-134369100D01*
X127981600Y-177476100D02*
X126182000Y-177476100D01*
X124896500Y-142506000D02*
X124896500Y-144491000D01*
X126182000Y-175876000D02*
X126182000Y-176676000D01*
X118554600Y-137337500D02*
X118554600Y-159974200D01*
X125916900Y-176410900D02*
X122480700Y-176410900D01*
X168684600Y-144940500D02*
X166571300Y-147053800D01*
X129991000Y-175878000D02*
X129991000Y-177478100D01*
X122480700Y-176410900D02*
X120962500Y-177929100D01*
X107230100Y-133084000D02*
X107230100Y-133566000D01*
X124896500Y-144491000D02*
X124896500Y-144667100D01*
X158073000Y-171548900D02*
X158267000Y-171354900D01*
X180845900Y-81348500D02*
X180867400Y-81327000D01*
X122353500Y-144667100D02*
X124896500Y-144667100D01*
X158267000Y-169262000D02*
X158267000Y-167686900D01*
X120421000Y-161954400D02*
X120421000Y-162597000D01*
X122314500Y-159900300D02*
X122314500Y-156296100D01*
X168057300Y-141453800D02*
X168684600Y-142081100D01*
X128722000Y-176681000D02*
X128722000Y-176735700D01*
X120902900Y-161311900D02*
X122314500Y-159900300D01*
X122314500Y-143626000D02*
X122314500Y-154136000D01*
X128722000Y-176735700D02*
X129464400Y-177478100D01*
X166441900Y-149512000D02*
X166441900Y-147183200D01*
X166738000Y-140874500D02*
X167317300Y-141453800D01*
X166441900Y-147183200D02*
X166571300Y-147053800D01*
X129464400Y-177478100D02*
X129991000Y-177478100D01*
X158267000Y-171354900D02*
X158267000Y-169262000D01*
X120421000Y-174351200D02*
X122480700Y-176410900D01*
X120421000Y-161954400D02*
X120421000Y-161633100D01*
X158601000Y-167352900D02*
X158601000Y-150242400D01*
X180680600Y-81348500D02*
X180845900Y-81348500D01*
X168017000Y-149512000D02*
X166441900Y-149512000D01*
X128722000Y-176735700D02*
X127981600Y-177476100D01*
X128722000Y-175881000D02*
X128722000Y-176681000D01*
X105945000Y-133084000D02*
X107230100Y-133084000D01*
X107230100Y-133566000D02*
X108033200Y-134369100D01*
X168684600Y-142081100D02*
X168684600Y-144940500D01*
X120421000Y-162597000D02*
X120421000Y-174351200D01*
X126182000Y-176676000D02*
X126182000Y-177476100D01*
X120213500Y-161633100D02*
X120421000Y-161633100D01*
X167317300Y-141453800D02*
X168057300Y-141453800D01*
X182152500Y-81327000D02*
X180867400Y-81327000D01*
X120962500Y-188785200D02*
X120962500Y-185210100D01*
X122314500Y-154136000D02*
X122314500Y-156296100D01*
X122353500Y-143587000D02*
X122314500Y-143626000D01*
X126182000Y-176676000D02*
X125916900Y-176410900D01*
X118554600Y-159974200D02*
X120213500Y-161633100D01*
X158267000Y-167686900D02*
X158601000Y-167352900D01*
X124896500Y-144667100D02*
X124896500Y-144838300D01*
X120421000Y-161311900D02*
X120902900Y-161311900D01*
X120962500Y-177929100D02*
X120962500Y-185210100D01*
X158073000Y-172834000D02*
X158073000Y-171548900D01*
D28*
%TO.N,/A0*%
X136357500Y-155138000D02*
X136357500Y-154133000D01*
X136357500Y-152122900D02*
X135765900Y-151531300D01*
X142075400Y-101042000D02*
X143768700Y-99348700D01*
X160267000Y-167836900D02*
X160267000Y-166917800D01*
X135765900Y-136070200D02*
X139587200Y-132248900D01*
X137143100Y-166920600D02*
X137334500Y-167112000D01*
X137143100Y-165171000D02*
X137143100Y-166920600D01*
X139587200Y-108552700D02*
X142075400Y-106064500D01*
X147385900Y-97085500D02*
X147385900Y-96798000D01*
X128713800Y-188660200D02*
X128713800Y-177736400D01*
X143768700Y-99348700D02*
X145122700Y-99348700D01*
X142075400Y-106064500D02*
X142075400Y-101042000D01*
X160267000Y-169262000D02*
X160267000Y-167836900D01*
X148536000Y-96798000D02*
X147385900Y-96798000D01*
X135693000Y-165171000D02*
X137143100Y-165171000D01*
X136357500Y-156143100D02*
X136357500Y-156293500D01*
X136357500Y-155138000D02*
X136357500Y-156143100D01*
X136357500Y-154133000D02*
X136357500Y-152122900D01*
X135765900Y-151531300D02*
X135765900Y-136070200D01*
X139587200Y-132248900D02*
X139587200Y-108552700D01*
X145122700Y-99348700D02*
X147385900Y-97085500D01*
%TO.N,/A1*%
X159885900Y-95230600D02*
X158741700Y-94086400D01*
X158741700Y-94086400D02*
X158741700Y-89198300D01*
X135691000Y-166438000D02*
X134240900Y-166438000D01*
X130169400Y-165428800D02*
X130169400Y-167787500D01*
X135050500Y-150158600D02*
X135050500Y-154133000D01*
X130635600Y-168253700D02*
X130635600Y-184938500D01*
X130214000Y-188660200D02*
X130214000Y-185360100D01*
X161513000Y-99506800D02*
X159885900Y-97879700D01*
X133155200Y-160569100D02*
X135050500Y-158673800D01*
X135050500Y-158673800D02*
X135050500Y-154133000D01*
X161267000Y-169262000D02*
X161267000Y-152595100D01*
X130635600Y-184938500D02*
X130214000Y-185360100D01*
X130169400Y-167787500D02*
X130635600Y-168253700D01*
X133155200Y-165087100D02*
X133155200Y-160569100D01*
X133155200Y-165087100D02*
X133155200Y-165352300D01*
X159885900Y-97879700D02*
X159885900Y-95230600D01*
X133155200Y-165352300D02*
X134240900Y-166438000D01*
%TO.N,/A2*%
X131185800Y-179481700D02*
X131185800Y-184831600D01*
X121443400Y-94305100D02*
X118854500Y-96894000D01*
X117440700Y-100023700D02*
X117440700Y-105403900D01*
X118854500Y-98609900D02*
X117440700Y-100023700D01*
X137769100Y-167709000D02*
X138047400Y-167987300D01*
X118854500Y-96894000D02*
X118854500Y-98609900D01*
X143456000Y-96798000D02*
X143456000Y-93544600D01*
X131714300Y-188660200D02*
X131714300Y-185360100D01*
X126984100Y-94305100D02*
X121443400Y-94305100D01*
X143456000Y-93544600D02*
X142327200Y-92415800D01*
X125418500Y-157328400D02*
X124796100Y-156706000D01*
X131185800Y-184831600D02*
X131714300Y-185360100D01*
X161895500Y-167465400D02*
X162267000Y-167836900D01*
X162267000Y-169262000D02*
X162267000Y-167836900D01*
X135693000Y-167709000D02*
X137769100Y-167709000D01*
X133822500Y-151727300D02*
X133822500Y-154133000D01*
X117440700Y-105403900D02*
X117692500Y-105655700D01*
X125418500Y-159611800D02*
X125418500Y-157328400D01*
%TO.N,/A3*%
X137106000Y-97304000D02*
X137106000Y-92336700D01*
X133214500Y-185360100D02*
X133323800Y-185250800D01*
X139404600Y-90038100D02*
X139835800Y-90038100D01*
X139835800Y-90038100D02*
X140916000Y-91118300D01*
X133214500Y-188660200D02*
X133214500Y-185360100D01*
X132551500Y-154133000D02*
X132551500Y-159616900D01*
X134253100Y-150389800D02*
X132551500Y-152091400D01*
X134253100Y-148738200D02*
X134253100Y-150389800D01*
X131904800Y-160454700D02*
X131904800Y-166058400D01*
X163267000Y-167836900D02*
X162814500Y-167384400D01*
X133323800Y-185250800D02*
X133323800Y-179516700D01*
X162814500Y-167384400D02*
X162788700Y-167384400D01*
X132551500Y-152091400D02*
X132551500Y-154133000D01*
X121979700Y-105202300D02*
X120501900Y-106680100D01*
X137106000Y-92336700D02*
X139404600Y-90038100D01*
X135905700Y-98504300D02*
X137106000Y-97304000D01*
X140916000Y-91118300D02*
X140916000Y-95647900D01*
X131904800Y-166058400D02*
X134112200Y-168265800D01*
X132303300Y-159865100D02*
X132303300Y-160056200D01*
X133323800Y-179516700D02*
X133241800Y-179434700D01*
X134241900Y-168982000D02*
X134112200Y-168852300D01*
X140916000Y-96798000D02*
X140916000Y-95647900D01*
X132551500Y-159616900D02*
X132303300Y-159865100D01*
X134112200Y-168852300D02*
X134112200Y-168265800D01*
X135692000Y-168982000D02*
X134241900Y-168982000D01*
X163267000Y-169262000D02*
X163267000Y-167836900D01*
X121979700Y-100363500D02*
X121979700Y-105202300D01*
X132303300Y-160056200D02*
X131904800Y-160454700D01*
%TO.N,/A4*%
X130799300Y-167581000D02*
X130799300Y-165121100D01*
X164267000Y-167725000D02*
X164226000Y-167684000D01*
X133263300Y-145598600D02*
X133263300Y-138006900D01*
X131906800Y-177207100D02*
X134714800Y-180015100D01*
X130626500Y-156763100D02*
X131246500Y-156143100D01*
X135691000Y-170248000D02*
X137301400Y-170248000D01*
X133348200Y-145683500D02*
X133263300Y-145598600D01*
X133263300Y-146224200D02*
X133348200Y-146139300D01*
X133466300Y-170248000D02*
X131906800Y-171807500D01*
X135691000Y-170248000D02*
X134240900Y-170248000D01*
X131246500Y-154133000D02*
X131246500Y-156143100D01*
X131246500Y-150667100D02*
X133263300Y-148650300D01*
X164267000Y-167836900D02*
X164267000Y-167725000D01*
X134714800Y-180015100D02*
X134714800Y-185360100D01*
X133263300Y-138006900D02*
X137225900Y-134044300D01*
X137225900Y-134044300D02*
X137225900Y-99098200D01*
X134240900Y-170248000D02*
X133466300Y-170248000D01*
X130626500Y-164948300D02*
X130626500Y-156763100D01*
X137225900Y-99098200D02*
X138376000Y-97948100D01*
X133466300Y-170248000D02*
X130799300Y-167581000D01*
X134714800Y-188660200D02*
X134714800Y-185360100D01*
X133348200Y-146139300D02*
X133348200Y-145683500D01*
X133263300Y-148650300D02*
X133263300Y-146224200D01*
X130799300Y-165121100D02*
X130626500Y-164948300D01*
X131246500Y-154133000D02*
X131246500Y-150667100D01*
X138376000Y-96798000D02*
X138376000Y-97948100D01*
X164267000Y-169262000D02*
X164267000Y-167836900D01*
X131906800Y-171807500D02*
X131906800Y-177207100D01*
%TO.N,/A5*%
X135282200Y-98263500D02*
X135282200Y-99284500D01*
X129366800Y-168522600D02*
X129739600Y-168895400D01*
X129462500Y-152122900D02*
X129975500Y-152122900D01*
X165267000Y-167836900D02*
X165267000Y-167825700D01*
X135904300Y-180415500D02*
X135904300Y-185049400D01*
X120844600Y-103199700D02*
X120844600Y-103996400D01*
X119441200Y-101796300D02*
X120844600Y-103199700D01*
X120580200Y-99713200D02*
X119441200Y-100852200D01*
X133176800Y-172274400D02*
X133176800Y-177688000D01*
X133933200Y-171518000D02*
X134239900Y-171518000D01*
X133933200Y-171518000D02*
X133933200Y-171157300D01*
X133933200Y-171518000D02*
X133176800Y-172274400D01*
X120844600Y-103996400D02*
X120512300Y-104328700D01*
X129386200Y-152046600D02*
X129462500Y-152122900D01*
X136215100Y-188660200D02*
X136215100Y-185360100D01*
X129975500Y-154133000D02*
X129975500Y-152122900D01*
X135836000Y-96798000D02*
X135836000Y-97948100D01*
X135904400Y-185049400D02*
X136215100Y-185360100D01*
X129366800Y-156751800D02*
X129366800Y-168522600D01*
X133176800Y-177688000D02*
X135904300Y-180415500D01*
X135904300Y-185049400D02*
X135904400Y-185049400D01*
X119441200Y-100852200D02*
X119441200Y-101796300D01*
X165267000Y-167825700D02*
X164926200Y-167484900D01*
X125393400Y-99713200D02*
X120580200Y-99713200D01*
X135690000Y-171518000D02*
X134239900Y-171518000D01*
X125822100Y-99284500D02*
X125393400Y-99713200D01*
X129975500Y-156143100D02*
X129366800Y-156751800D01*
X129975500Y-154133000D02*
X129975500Y-156143100D01*
X135597600Y-97948100D02*
X135282200Y-98263500D01*
X135836000Y-97948100D02*
X135597600Y-97948100D01*
X165267000Y-169262000D02*
X165267000Y-167836900D01*
%TO.N,/A6*%
X127778100Y-164646100D02*
X126815500Y-163683500D01*
X168017000Y-166512000D02*
X168017000Y-166653000D01*
X138129600Y-183650000D02*
X137312900Y-182833300D01*
X168017000Y-166653000D02*
X166408000Y-168262000D01*
X128700500Y-151184600D02*
X128700500Y-154133000D01*
X137312900Y-182833300D02*
X137312900Y-172789000D01*
X166408000Y-168262000D02*
X166272400Y-168262000D01*
X128700500Y-154133000D02*
X128700500Y-156143100D01*
X129040100Y-170384000D02*
X127778100Y-169122000D01*
X127778100Y-169122000D02*
X127778100Y-164646100D01*
X129040100Y-170838700D02*
X129040100Y-170384000D01*
X133296000Y-96798000D02*
X133296000Y-97948100D01*
X126815500Y-163683500D02*
X126815500Y-159548700D01*
X131911500Y-147973600D02*
X128700500Y-151184600D01*
X138129600Y-184945800D02*
X138129600Y-183650000D01*
X128700500Y-157663700D02*
X128700500Y-156143100D01*
X133296000Y-97948100D02*
X131911500Y-99332600D01*
X137715300Y-188660200D02*
X137715300Y-185360100D01*
X126815500Y-159548700D02*
X128700500Y-157663700D01*
X131911500Y-99332600D02*
X131911500Y-147973600D01*
X135692000Y-172789000D02*
X137312900Y-172789000D01*
X137715300Y-185360100D02*
X138129600Y-184945800D01*
%TO.N,/A7*%
X138247500Y-182127500D02*
X138247500Y-172163800D01*
X135692000Y-174058000D02*
X134241900Y-174058000D01*
X122358900Y-99313000D02*
X120414600Y-99313000D01*
X124325900Y-96454200D02*
X124325900Y-97346000D01*
X120242600Y-103163500D02*
X120242600Y-103578900D01*
X120414600Y-99313000D02*
X119041100Y-100686500D01*
X129605900Y-96798000D02*
X129605900Y-96510500D01*
X138247500Y-172163800D02*
X134345900Y-172163800D01*
X127177400Y-156401200D02*
X127435500Y-156143100D01*
X129605900Y-96510500D02*
X128727000Y-95631600D01*
X166591900Y-167240800D02*
X166340200Y-167492500D01*
X166591900Y-165512000D02*
X166591900Y-167240800D01*
X138247500Y-172163800D02*
X138247500Y-172096600D01*
X134345900Y-172163800D02*
X134241900Y-172267800D01*
X139215600Y-188660200D02*
X139215600Y-183095600D01*
X139215600Y-183095600D02*
X138701500Y-182581500D01*
X130756000Y-96798000D02*
X129605900Y-96798000D01*
X128727000Y-95631600D02*
X125148500Y-95631600D01*
X134241900Y-172267800D02*
X134241900Y-174058000D01*
X126308800Y-156401200D02*
X127177400Y-156401200D01*
X127435500Y-154133000D02*
X127435500Y-156143100D01*
X119041100Y-101962000D02*
X120242600Y-103163500D01*
X124325900Y-97346000D02*
X122358900Y-99313000D01*
X119041100Y-100686500D02*
X119041100Y-101962000D01*
X138701500Y-182581500D02*
X138247500Y-182127500D01*
X168017000Y-165512000D02*
X166591900Y-165512000D01*
X125148500Y-95631600D02*
X124325900Y-96454200D01*
%TO.N,/A8*%
X166591900Y-164512000D02*
X166591900Y-164801900D01*
X128741500Y-142506000D02*
X128741500Y-144415000D01*
X141056200Y-185019700D02*
X141056200Y-182497400D01*
X125745100Y-171517000D02*
X126465700Y-172237600D01*
X129386100Y-99118200D02*
X129386100Y-139851300D01*
X128216000Y-97948100D02*
X129386100Y-99118200D01*
X125020100Y-171517000D02*
X125745100Y-171517000D01*
X127376600Y-145779900D02*
X127376600Y-150221200D01*
X128741500Y-144415000D02*
X127376600Y-145779900D01*
X166591900Y-164801900D02*
X166434500Y-164959300D01*
X140715800Y-185360100D02*
X141056200Y-185019700D01*
X128741500Y-142506000D02*
X128741500Y-140495900D01*
X126465700Y-172237600D02*
X127348000Y-172237600D01*
X129386100Y-139851300D02*
X128741500Y-140495900D01*
X140715800Y-188660200D02*
X140715800Y-185360100D01*
X125020100Y-171517000D02*
X124295000Y-171517000D01*
X128216000Y-96798000D02*
X128216000Y-97948100D01*
X168017000Y-164512000D02*
X166591900Y-164512000D01*
%TO.N,/A9*%
X125746100Y-170249000D02*
X127131700Y-171634600D01*
X124517100Y-148781800D02*
X124517100Y-150214700D01*
X126740400Y-147694500D02*
X126172400Y-147126500D01*
X126828600Y-111633000D02*
X126828600Y-99100700D01*
X124234100Y-150497700D02*
X124234100Y-157188300D01*
X142216100Y-182000800D02*
X142166200Y-181950900D01*
X127604500Y-150771300D02*
X127124700Y-150771300D01*
X126802900Y-145693400D02*
X128071600Y-144424700D01*
X126740400Y-150387000D02*
X126740400Y-147694500D01*
X123452200Y-157970200D02*
X123452200Y-160853900D01*
X126802900Y-146496000D02*
X126802900Y-145693400D01*
X126828600Y-99100700D02*
X125676000Y-97948100D01*
X130014500Y-144514100D02*
X130014500Y-148361300D01*
X127019300Y-112406300D02*
X126765100Y-112152100D01*
X125676000Y-96798000D02*
X125676000Y-97948100D01*
X126765100Y-111696500D02*
X126828600Y-111633000D01*
X128071600Y-140493900D02*
X127019300Y-139441600D01*
X124296000Y-170249000D02*
X122845900Y-170249000D01*
X126172400Y-147126500D02*
X126802900Y-146496000D01*
X165871300Y-164232600D02*
X165871300Y-164507100D01*
X126765100Y-112152100D02*
X126765100Y-111696500D01*
X122039600Y-169442700D02*
X122845900Y-170249000D01*
X126172400Y-147126500D02*
X124517100Y-148781800D01*
X125021100Y-170249000D02*
X124296000Y-170249000D01*
X130014500Y-142504000D02*
X130014500Y-144514100D01*
X128071600Y-144424700D02*
X128071600Y-140493900D01*
X127131700Y-171634600D02*
X127735200Y-171634600D01*
X125021100Y-170249000D02*
X125746100Y-170249000D01*
X130014500Y-148361300D02*
X127604500Y-150771300D01*
X127124700Y-150771300D02*
X126740400Y-150387000D01*
X124517100Y-150214700D02*
X124234100Y-150497700D01*
X142216100Y-188660200D02*
X142216100Y-182000800D01*
X122039600Y-162266500D02*
X122039600Y-169442700D01*
X124234100Y-157188300D02*
X123452200Y-157970200D01*
X127019300Y-139441600D02*
X127019300Y-112406300D01*
X168017000Y-163512000D02*
X166591900Y-163512000D01*
X166591900Y-163512000D02*
X165871300Y-164232600D01*
X123452200Y-160853900D02*
X122039600Y-162266500D01*
%TO.N,/A10*%
X133703000Y-146350300D02*
X133703000Y-149007300D01*
X133863500Y-146189800D02*
X133703000Y-146350300D01*
X166440400Y-161360500D02*
X166591900Y-161512000D01*
X123136000Y-97948100D02*
X121213700Y-97948100D01*
X131847000Y-150863300D02*
X131847000Y-158744600D01*
X119692400Y-103179100D02*
X119692400Y-106298200D01*
X124290000Y-166436000D02*
X125740100Y-166436000D01*
X138840100Y-176281000D02*
X138840100Y-166342400D01*
X133863500Y-144517100D02*
X133863500Y-146189800D01*
X125740100Y-166436000D02*
X126302300Y-165873800D01*
X121213700Y-97948100D02*
X118641000Y-100520800D01*
X126302300Y-165873800D02*
X126396400Y-165873800D01*
X168017000Y-161512000D02*
X166591900Y-161512000D01*
X123136000Y-96798000D02*
X123136000Y-97948100D01*
X133863500Y-142507000D02*
X133863500Y-144517100D01*
X119692400Y-106298200D02*
X119716900Y-106322700D01*
X118641000Y-102127700D02*
X119692400Y-103179100D01*
X143716400Y-181157300D02*
X138840100Y-176281000D01*
X143716400Y-188660200D02*
X143716400Y-185360100D01*
X132051100Y-150659200D02*
X131847000Y-150863300D01*
X133703000Y-149007300D02*
X132051100Y-150659200D01*
X143716400Y-185360100D02*
X143716400Y-181157300D01*
X118641000Y-100520800D02*
X118641000Y-102127700D01*
%TO.N,/A11*%
X118240900Y-102778300D02*
X118693900Y-103231300D01*
X124002300Y-160869600D02*
X122439700Y-162432200D01*
X165097900Y-161918900D02*
X166504800Y-160512000D01*
X145216600Y-180304600D02*
X144661300Y-179749300D01*
X120596000Y-96798000D02*
X120596000Y-97948100D01*
X126525400Y-169646800D02*
X128069000Y-171190400D01*
X125739100Y-168976000D02*
X126409900Y-169646800D01*
X120596000Y-97948100D02*
X120596000Y-98000000D01*
X128100300Y-150841300D02*
X131285500Y-147656100D01*
X126230500Y-157949900D02*
X128100300Y-156080100D01*
X124002300Y-160380100D02*
X124002300Y-160869600D01*
X145216600Y-188660200D02*
X145216600Y-180304600D01*
X166504800Y-160512000D02*
X168017000Y-160512000D01*
X126409900Y-169646800D02*
X126525400Y-169646800D01*
X131285500Y-147656100D02*
X131285500Y-142504000D01*
X126037400Y-157949900D02*
X126230500Y-157949900D01*
X165097900Y-165229200D02*
X165097900Y-161918900D01*
X124289000Y-168976000D02*
X122838900Y-168976000D01*
X122439700Y-162432200D02*
X122439700Y-168576800D01*
X128069000Y-171190400D02*
X128281300Y-171190400D01*
X118240900Y-100355100D02*
X118240900Y-102778300D01*
X116093500Y-129692800D02*
X123144100Y-129692800D01*
X122439700Y-168576800D02*
X122838900Y-168976000D01*
X131285500Y-132852300D02*
X131285500Y-142504000D01*
X128100300Y-156080100D02*
X128100300Y-150841300D01*
X124289000Y-168976000D02*
X125739100Y-168976000D01*
X115142100Y-128741400D02*
X116093500Y-129692800D01*
X120596000Y-98000000D02*
X118240900Y-100355100D01*
%TO.N,/A12*%
X142867800Y-89122400D02*
X149702700Y-95957300D01*
X149702700Y-95957300D02*
X149702700Y-104083600D01*
X170257200Y-159950000D02*
X170146400Y-159950000D01*
X169442100Y-159615100D02*
X169442100Y-159512000D01*
X170146400Y-159950000D02*
X169777000Y-159950000D01*
X163038600Y-174461200D02*
X162331500Y-174461200D01*
X146716900Y-188660200D02*
X146716900Y-181819100D01*
X168856000Y-110228000D02*
X168856000Y-105284200D01*
X171142100Y-136846000D02*
X171142100Y-159065100D01*
X133802000Y-177329100D02*
X136352800Y-179879900D01*
X168856000Y-110781500D02*
X168856000Y-110228000D01*
X168856000Y-110781500D02*
X168856000Y-111378100D01*
X168856000Y-111378100D02*
X168856000Y-111408900D01*
X171045200Y-113598100D02*
X171045200Y-136749100D01*
X169777000Y-159950000D02*
X169442100Y-159615100D01*
X136352800Y-179879900D02*
X136352800Y-182923700D01*
X171045200Y-136749100D02*
X171142100Y-136846000D01*
X171142100Y-159065100D02*
X170257200Y-159950000D01*
X136352800Y-182923700D02*
X137579500Y-184150400D01*
X170146400Y-167353400D02*
X163038600Y-174461200D01*
X133802000Y-175879000D02*
X133802000Y-177329100D01*
X168017000Y-159512000D02*
X169442100Y-159512000D01*
X168856000Y-111408900D02*
X171045200Y-113598100D01*
X170146400Y-159950000D02*
X170146400Y-167353400D01*
%TO.N,/A13*%
X170742000Y-137011700D02*
X170742000Y-157212100D01*
X168017000Y-158512000D02*
X169442100Y-158512000D01*
X148217100Y-185360100D02*
X148837100Y-185360100D01*
X166316000Y-110228000D02*
X166791000Y-110228000D01*
X167466100Y-111001700D02*
X168723900Y-112259500D01*
X148217100Y-188660200D02*
X148217100Y-185360100D01*
X170645100Y-113787000D02*
X170645100Y-136914800D01*
X170003500Y-159398600D02*
X169442100Y-158837200D01*
X168723900Y-112259500D02*
X169117600Y-112259500D01*
X165037500Y-102897500D02*
X165037500Y-82698300D01*
X169442100Y-158837200D02*
X169442100Y-158512000D01*
X170742000Y-157212100D02*
X169442100Y-158512000D01*
X166791000Y-104651000D02*
X165037500Y-102897500D01*
X166791000Y-110228000D02*
X166791000Y-104651000D01*
X148837100Y-185360100D02*
X148967300Y-185229900D01*
X167466100Y-110228000D02*
X167466100Y-111001700D01*
X170645100Y-136914800D02*
X170742000Y-137011700D01*
X166791000Y-110228000D02*
X167466100Y-110228000D01*
X169117600Y-112259500D02*
X170645100Y-113787000D01*
%TO.N,/A14*%
X162506000Y-82921600D02*
X161889700Y-82305300D01*
X163776000Y-109865000D02*
X163776000Y-103012900D01*
X149717400Y-188660200D02*
X149717400Y-182696000D01*
X166591900Y-157512000D02*
X166591900Y-157929900D01*
X168017000Y-157512000D02*
X166591900Y-157512000D01*
X168629500Y-157512000D02*
X168017000Y-157512000D01*
X168629500Y-157512000D02*
X169442100Y-157512000D01*
X170245000Y-137080500D02*
X170341900Y-137177400D01*
X167286200Y-113446000D02*
X169698200Y-113446000D01*
X163776000Y-110228000D02*
X163776000Y-109865000D01*
X170341900Y-156779700D02*
X169609600Y-157512000D01*
X149717400Y-182696000D02*
X152061600Y-180351800D01*
X169609600Y-157512000D02*
X169442100Y-157512000D01*
X162506000Y-101742900D02*
X162506000Y-82921600D01*
X170341900Y-137177400D02*
X170341900Y-156779700D01*
X170245000Y-113992800D02*
X170245000Y-137080500D01*
X169698200Y-113446000D02*
X170245000Y-113992800D01*
X163776000Y-103012900D02*
X162506000Y-101742900D01*
X163776000Y-109935800D02*
X167286200Y-113446000D01*
X163776000Y-109865000D02*
X163776000Y-109935800D01*
X166591900Y-157929900D02*
X166427900Y-158093900D01*
%TO.N,/A15_Sys*%
X151217600Y-185360100D02*
X151145600Y-185288100D01*
X169442100Y-156576400D02*
X169601200Y-156735500D01*
X169442100Y-156512000D02*
X169442100Y-156576400D01*
X168017000Y-156512000D02*
X169442100Y-156512000D01*
X170582900Y-112342600D02*
X171595300Y-113355000D01*
X151217600Y-188660200D02*
X151217600Y-185360100D01*
X171595300Y-113355000D02*
X171595300Y-136521300D01*
X151145600Y-185288100D02*
X151145600Y-182601700D01*
%TO.N,/Pin_44*%
X145220800Y-153148200D02*
X145544400Y-153471800D01*
X166569100Y-155534800D02*
X166007800Y-155534800D01*
X145220800Y-143989800D02*
X145220800Y-153148200D01*
X168017000Y-155512000D02*
X166591900Y-155512000D01*
X166591900Y-155512000D02*
X166569100Y-155534800D01*
X135841000Y-124759000D02*
X135841000Y-121416200D01*
%TO.N,/A13_SST*%
X169679400Y-135954400D02*
X169630200Y-135905200D01*
X129663300Y-170994400D02*
X129663300Y-170441300D01*
X127868700Y-172789000D02*
X129663300Y-170994400D01*
X128328300Y-169106300D02*
X128328300Y-165184700D01*
X168017000Y-154512000D02*
X166591900Y-154512000D01*
X129663300Y-170441300D02*
X128328300Y-169106300D01*
X169630200Y-140284000D02*
X169630200Y-137122200D01*
X169630200Y-137122200D02*
X169679400Y-137073000D01*
X169679400Y-137073000D02*
X169679400Y-135954400D01*
X166591900Y-154512000D02*
X166591900Y-154249000D01*
X124295000Y-172789000D02*
X125745100Y-172789000D01*
X169395800Y-140518400D02*
X169630200Y-140284000D01*
X169630200Y-135905200D02*
X169630200Y-116447500D01*
X166591900Y-154249000D02*
X166432800Y-154089900D01*
X169630200Y-116447500D02*
X169464900Y-116282200D01*
X125745100Y-172789000D02*
X127868700Y-172789000D01*
%TO.N,/A14_SST*%
X166423300Y-153343400D02*
X166591900Y-153512000D01*
X168197400Y-139679800D02*
X165456200Y-136938600D01*
X124294000Y-174876300D02*
X124294000Y-174060000D01*
X159971000Y-132591900D02*
X159971000Y-128452400D01*
X164317700Y-136938600D02*
X159971000Y-132591900D01*
X124899800Y-175482100D02*
X124294000Y-174876300D01*
X168017000Y-153512000D02*
X166591900Y-153512000D01*
X166423300Y-153088300D02*
X166423300Y-153343400D01*
X157426000Y-125907400D02*
X157426000Y-114374800D01*
X157426000Y-114374800D02*
X154429300Y-111378100D01*
X159971000Y-128452400D02*
X157426000Y-125907400D01*
X165456200Y-136938600D02*
X164317700Y-136938600D01*
X154429300Y-111378100D02*
X153616000Y-111378100D01*
X153616000Y-110228000D02*
X153616000Y-111378100D01*
X168197400Y-140251500D02*
X168197400Y-139679800D01*
%TO.N,/A15_SST*%
X160061600Y-149998500D02*
X163258800Y-153195700D01*
X152226100Y-110228000D02*
X152226100Y-109940500D01*
X152226100Y-109940500D02*
X153820800Y-108345800D01*
X151076000Y-110228000D02*
X152226100Y-110228000D01*
X153820800Y-108345800D02*
X157909900Y-108345800D01*
X164317000Y-166214100D02*
X164317000Y-153195700D01*
X132532000Y-172580400D02*
X132532000Y-175879000D01*
X165000700Y-152512000D02*
X166591900Y-152512000D01*
X164317000Y-153195700D02*
X165000700Y-152512000D01*
X163258800Y-153195700D02*
X164317000Y-153195700D01*
X160061600Y-147762800D02*
X160061600Y-149998500D01*
X168017000Y-152512000D02*
X166591900Y-152512000D01*
%TO.N,/A16_SST*%
X169279300Y-136120100D02*
X169080100Y-135920900D01*
X131263000Y-175880000D02*
X131263000Y-178487100D01*
X168845600Y-139300600D02*
X169080100Y-139066100D01*
X168017000Y-151512000D02*
X169442100Y-151512000D01*
X169080100Y-137106500D02*
X169279300Y-136907300D01*
X148536000Y-110228000D02*
X148536000Y-111378100D01*
X132734800Y-179958900D02*
X132734800Y-184369000D01*
X169080100Y-135920900D02*
X169080100Y-125630800D01*
X168845600Y-140760200D02*
X168845600Y-139300600D01*
X169279300Y-136907300D02*
X169279300Y-136120100D01*
X169442100Y-151512000D02*
X169851500Y-151102600D01*
X169442100Y-151512000D02*
X169791800Y-151861700D01*
X152245900Y-114297300D02*
X152245900Y-115747400D01*
X149326700Y-111378100D02*
X152245900Y-114297300D01*
X131263000Y-178487100D02*
X132734800Y-179958900D01*
X169851500Y-151102600D02*
X169851500Y-141766100D01*
X169851500Y-141766100D02*
X168845600Y-140760200D01*
X148536000Y-111378100D02*
X149326700Y-111378100D01*
X169080100Y-139066100D02*
X169080100Y-137106500D01*
X169791800Y-151861700D02*
X169791800Y-154792300D01*
%TO.N,/BC847C*%
X156161000Y-125909100D02*
X157359300Y-127107400D01*
X165788000Y-139958100D02*
X165788000Y-142749500D01*
X165788000Y-142749500D02*
X165871200Y-142832700D01*
X165871200Y-149791300D02*
X166591900Y-150512000D01*
X157359300Y-131529400D02*
X165788000Y-139958100D01*
X157359300Y-127107400D02*
X157359300Y-131529400D01*
X168017000Y-150512000D02*
X166591900Y-150512000D01*
X165871200Y-142832700D02*
X165871200Y-149791300D01*
X156161000Y-124759000D02*
X156161000Y-125909100D01*
%TO.N,/A12_V62*%
X167545200Y-139805600D02*
X165228300Y-137488700D01*
X145996000Y-110228000D02*
X145996000Y-111378100D01*
X145996000Y-111378100D02*
X144845900Y-112528200D01*
X126160500Y-154133000D02*
X126160500Y-152122900D01*
X169442100Y-142026300D02*
X168319500Y-140903700D01*
X144845900Y-115144600D02*
X143526200Y-116464300D01*
X167545200Y-140427800D02*
X167545200Y-139805600D01*
X168017000Y-148512000D02*
X169442100Y-148512000D01*
X168319500Y-140903700D02*
X168021100Y-140903700D01*
X126190300Y-147922400D02*
X126190300Y-152093100D01*
X169442100Y-148512000D02*
X169442100Y-142026300D01*
X144845900Y-112528200D02*
X144845900Y-115144600D01*
X126190300Y-152093100D02*
X126160500Y-152122900D01*
X168021100Y-140903700D02*
X167545200Y-140427800D01*
%TO.N,/A13_V62*%
X154891000Y-131525500D02*
X164867200Y-141501700D01*
X164867200Y-141501700D02*
X164867200Y-143937100D01*
X127471500Y-142506000D02*
X127471500Y-144202800D01*
X153933200Y-113444600D02*
X154891000Y-114402400D01*
X164867200Y-143937100D02*
X165267000Y-144336900D01*
X165267000Y-147953100D02*
X165267000Y-145762000D01*
X154891000Y-114402400D02*
X154891000Y-131525500D01*
X126110000Y-145564300D02*
X126110000Y-146060700D01*
X127471500Y-144202800D02*
X126110000Y-145564300D01*
X165267000Y-145762000D02*
X165267000Y-144336900D01*
%TO.N,/A14_V62*%
X164028100Y-147426000D02*
X164028100Y-149471900D01*
X164267000Y-145762000D02*
X164267000Y-147187100D01*
X164267000Y-141864200D02*
X162767500Y-140364700D01*
X162391100Y-114024100D02*
X162391100Y-131196100D01*
X164267000Y-145762000D02*
X164267000Y-141864200D01*
X162391100Y-131196100D02*
X162218300Y-131368900D01*
X162767500Y-140364700D02*
X162593400Y-140364700D01*
X164267000Y-147187100D02*
X164028100Y-147426000D01*
X162218300Y-131368900D02*
X162218300Y-133761200D01*
X124855500Y-154136000D02*
X124855500Y-150731600D01*
%TO.N,/A15_V62*%
X152430600Y-126236800D02*
X152430600Y-120422100D01*
X162782800Y-143852700D02*
X162782800Y-141216400D01*
X126433100Y-130432200D02*
X123618500Y-133246800D01*
X163267000Y-145762000D02*
X163267000Y-144336900D01*
X152610300Y-126416500D02*
X152430600Y-126236800D01*
X163267000Y-144336900D02*
X162782800Y-143852700D01*
X152430600Y-120422100D02*
X149790900Y-117782400D01*
X123618500Y-133246800D02*
X123618500Y-142507000D01*
X149790900Y-117782400D02*
X149790900Y-113375800D01*
%TO.N,/A16_V62*%
X162267000Y-145762000D02*
X162267000Y-149879900D01*
X134463700Y-113432600D02*
X134463700Y-116917200D01*
X123585500Y-154136000D02*
X123585500Y-150368300D01*
X123585500Y-150368300D02*
X123967000Y-149986800D01*
%TO.N,/WE*%
X122914700Y-160247400D02*
X121592800Y-161569300D01*
X126458900Y-173434800D02*
X127450000Y-174425900D01*
X161267000Y-144336900D02*
X161584500Y-144336900D01*
X122914700Y-148193800D02*
X122914700Y-160247400D01*
X121592800Y-171988000D02*
X123039600Y-173434800D01*
X121592800Y-161569300D02*
X121592800Y-171988000D01*
X152430400Y-127374400D02*
X153621000Y-126183800D01*
X123039600Y-173434800D02*
X126458900Y-173434800D01*
X162321200Y-143600200D02*
X162321200Y-141640700D01*
X126207500Y-142506000D02*
X126207500Y-135249300D01*
X127450000Y-175876000D02*
X127450000Y-174425900D01*
X161267000Y-145762000D02*
X161267000Y-144336900D01*
X126207500Y-144901000D02*
X122914700Y-148193800D01*
X152430400Y-131749900D02*
X152430400Y-127374400D01*
X153621000Y-126183800D02*
X153621000Y-125909100D01*
X153621000Y-124759000D02*
X153621000Y-125909100D01*
X161584500Y-144336900D02*
X162321200Y-143600200D01*
X126207500Y-142506000D02*
X126207500Y-144901000D01*
X162321200Y-141640700D02*
X152430400Y-131749900D01*
%TO.N,/OE_V62*%
X132587500Y-142507000D02*
X132587500Y-140496900D01*
X132739700Y-140496900D02*
X132798100Y-140555300D01*
X132798100Y-140555300D02*
X132798100Y-145911400D01*
X132657700Y-140496900D02*
X132739700Y-140496900D01*
X132657700Y-140496900D02*
X132657700Y-138043900D01*
X160267000Y-147187100D02*
X161074500Y-147994600D01*
X160267000Y-145762000D02*
X160267000Y-147187100D01*
X132587500Y-140496900D02*
X132657700Y-140496900D01*
X161074500Y-147994600D02*
X161074500Y-150201000D01*
%TO.N,/Ind1*%
X159827800Y-143776100D02*
X159267000Y-144336900D01*
X161186000Y-142641000D02*
X161186000Y-143776100D01*
X159267000Y-145762000D02*
X159267000Y-144336900D01*
X161186000Y-143776100D02*
X159827800Y-143776100D01*
%TO.N,/Ind2*%
X157267000Y-145762000D02*
X157267000Y-144336900D01*
X158055000Y-143785100D02*
X157503200Y-144336900D01*
X157503200Y-144336900D02*
X157267000Y-144336900D01*
X158055000Y-142650000D02*
X158055000Y-143785100D01*
%TO.N,/Pin_61*%
X148994000Y-127684400D02*
X147875800Y-127684400D01*
X149884000Y-136806500D02*
X149884000Y-128574400D01*
X156267000Y-145762000D02*
X156267000Y-143189500D01*
X156267000Y-143189500D02*
X149884000Y-136806500D01*
X149884000Y-128574400D02*
X148994000Y-127684400D01*
%TO.N,/Pin_62*%
X155267000Y-145762000D02*
X155267000Y-144186800D01*
%TO.N,/Pin_63*%
X154267000Y-145762000D02*
X154267000Y-144336900D01*
X154267000Y-144336900D02*
X154267000Y-144183100D01*
%TO.N,/Pin_64*%
X153267000Y-144336900D02*
X153267000Y-144110100D01*
X153267000Y-145762000D02*
X153267000Y-144336900D01*
%TO.N,/Clk*%
X124992100Y-182907500D02*
X125520400Y-182907500D01*
X126017300Y-183404400D02*
X126017300Y-184430000D01*
X122712700Y-185186900D02*
X124992100Y-182907500D01*
X125520400Y-182907500D02*
X126017300Y-183404400D01*
X122712700Y-188660200D02*
X122712700Y-185186900D01*
%TO.N,/CS*%
X117840800Y-103158500D02*
X118711600Y-104029300D01*
X117840800Y-100189400D02*
X117840800Y-103158500D01*
X119706400Y-98323800D02*
X117840800Y-100189400D01*
X119706400Y-98111400D02*
X119706400Y-98323800D01*
X127213500Y-188660200D02*
X127213500Y-182340200D01*
%TO.N,/Audio*%
X165600300Y-185360100D02*
X165470100Y-185229900D01*
X118217700Y-96753900D02*
X124983500Y-89988100D01*
X166220200Y-185360100D02*
X165600300Y-185360100D01*
X124983500Y-89988100D02*
X124983500Y-89646500D01*
X166220200Y-188660200D02*
X166220200Y-185360100D01*
%TD*%
M02*
